{"glyphs":{"0":{"ha":829,"x_min":42,"x_max":788,"o":"m 414 985 q 561 950 493 985 q 680 851 629 915 q 759 695 731 786 q 788 492 788 604 q 759 289 788 379 q 680 134 731 199 q 561 35 629 69 q 414 0 493 0 q 268 35 336 0 q 150 134 200 69 q 71 289 100 199 q 42 492 42 379 q 71 695 42 604 q 150 851 100 786 q 268 950 200 915 q 414 985 336 985 m 490 25 q 593 76 551 35 q 658 185 635 118 q 683 341 681 253 q 669 533 686 429 q 622 720 653 638 q 548 859 590 803 q 453 942 506 915 q 339 958 400 968 q 236 907 278 949 q 172 799 194 865 q 147 643 150 732 q 160 451 143 554 q 208 265 176 347 q 282 126 239 182 q 377 42 325 69 q 490 25 429 15 z "},"1":{"ha":289,"x_min":42,"x_max":247,"o":"m 47 882 l 42 893 l 189 975 l 215 975 l 215 119 q 219 65 215 86 q 228 32 222 43 q 239 17 233 21 q 247 13 244 13 l 247 0 l 83 0 l 83 13 q 92 17 86 13 q 102 32 97 21 q 111 65 107 43 q 115 119 115 86 l 115 806 q 113 845 115 826 q 102 876 110 864 q 82 890 94 888 q 50 883 69 893 l 47 882 z "},"2":{"ha":756,"x_min":42,"x_max":714,"o":"m 333 976 q 431 968 381 978 q 526 935 482 958 q 603 875 571 913 q 646 786 635 838 q 647 688 656 735 q 613 594 639 640 q 543 499 586 547 q 442 396 500 450 q 281 242 357 314 q 119 100 206 171 l 518 100 q 553 103 528 100 q 606 117 578 107 q 660 142 633 126 q 700 182 686 158 l 703 188 l 714 181 l 618 3 l 615 3 l 614 0 l 42 0 l 42 49 q 242 220 150 132 q 431 408 335 308 q 497 497 472 451 q 535 585 522 542 q 549 671 547 629 q 549 750 551 713 q 528 827 544 789 q 485 895 513 865 q 419 944 458 925 q 333 963 381 963 q 225 939 269 963 q 153 883 181 915 q 115 815 126 850 q 103 758 103 781 l 93 758 q 110 834 93 796 q 159 904 128 872 q 235 956 190 936 q 333 976 279 976 z "},"3":{"ha":788,"x_min":42,"x_max":749,"o":"m 411 976 q 509 965 458 978 q 601 927 560 953 q 667 860 642 901 q 688 761 692 818 q 663 680 685 715 q 607 615 642 644 q 526 563 572 586 q 429 519 481 540 q 529 522 476 526 q 637 493 592 517 q 709 431 682 469 q 742 342 736 393 q 735 232 749 292 q 688 137 722 181 q 606 60 654 93 q 496 10 557 28 q 367 -8 435 -8 q 276 1 324 -8 q 183 28 228 10 q 101 75 139 47 q 42 139 64 103 l 51 146 q 101 92 69 118 q 174 48 132 67 q 270 20 217 29 q 388 17 324 11 q 544 78 482 25 q 629 228 606 132 q 639 322 642 276 q 620 403 636 367 q 574 465 604 440 q 503 500 544 490 q 449 507 474 507 q 401 502 425 507 q 351 490 376 497 q 297 475 326 483 l 292 488 q 394 522 344 501 q 485 571 444 542 q 553 640 525 600 q 593 732 582 679 q 593 827 603 785 q 558 900 583 869 q 495 947 533 931 q 411 963 457 963 q 324 949 365 963 q 250 910 282 936 q 199 847 218 885 q 181 758 181 808 l 171 758 q 178 825 171 788 q 212 897 186 863 q 285 953 238 931 q 411 976 332 976 z "},"4":{"ha":836,"x_min":42,"x_max":794,"o":"m 606 242 l 606 96 q 608 53 606 69 q 620 27 611 36 q 646 15 629 18 q 689 11 663 11 l 715 11 l 715 0 l 406 0 l 406 11 l 433 11 q 476 15 460 11 q 501 27 492 18 q 513 53 510 36 q 515 96 515 69 l 515 242 l 42 242 l 42 257 l 593 967 l 606 967 l 606 257 l 794 257 l 794 242 l 606 242 m 515 257 l 515 840 l 64 257 l 515 257 z "},"5":{"ha":760,"x_min":42,"x_max":724,"o":"m 456 588 q 569 559 518 581 q 656 501 621 538 q 708 414 692 464 q 715 300 724 364 q 679 189 708 244 q 602 90 650 133 q 488 19 554 46 q 342 -8 422 -8 q 255 1 299 -8 q 172 28 211 10 q 98 75 132 47 q 42 139 64 103 l 51 146 q 98 90 69 117 q 165 45 126 64 q 253 18 203 26 q 364 17 303 10 q 461 48 418 22 q 535 111 504 74 q 584 194 565 149 q 608 289 603 240 q 576 474 624 401 q 428 560 529 547 q 288 551 350 571 q 174 497 226 532 l 165 504 l 193 968 l 671 968 l 671 886 l 203 885 l 181 517 q 301 573 229 550 q 456 588 372 596 z "},"6":{"ha":771,"x_min":35,"x_max":733,"o":"m 472 611 q 580 576 531 604 q 665 506 629 549 q 717 406 700 463 q 726 282 733 349 q 698 178 721 232 q 632 82 675 125 q 526 13 589 39 q 376 -8 463 -12 q 256 19 319 -6 q 142 97 193 44 q 63 231 92 149 q 46 431 35 314 q 121 661 58 561 q 273 830 183 761 q 465 934 363 899 q 660 971 568 969 l 660 958 q 572 950 622 958 q 467 921 521 942 q 360 864 413 900 q 264 772 307 828 q 191 638 221 717 q 156 456 161 560 q 201 525 171 493 q 273 578 232 557 q 365 609 314 600 q 472 611 415 618 m 625 281 q 582 482 628 403 q 443 585 536 561 q 344 587 394 597 q 252 549 294 576 q 182 478 210 521 q 153 382 154 435 q 176 179 149 256 q 247 63 204 103 q 338 13 290 24 q 419 6 386 1 q 512 38 474 11 q 575 104 550 65 q 612 190 600 143 q 625 281 624 236 z "},"7":{"ha":729,"x_min":42,"x_max":688,"o":"m 42 967 l 688 967 l 688 933 q 542 740 607 853 q 430 502 476 628 q 358 246 383 376 q 333 0 333 115 l 204 0 q 265 238 222 117 q 366 474 308 358 q 491 694 424 589 q 625 883 558 799 l 42 885 l 42 967 z "},"8":{"ha":790,"x_min":42,"x_max":749,"o":"m 517 499 q 692 392 635 450 q 749 249 749 335 q 732 163 749 208 q 676 80 715 118 q 572 17 636 42 q 410 -8 507 -8 q 241 11 311 -8 q 126 63 171 31 q 62 137 82 94 q 42 224 42 179 q 63 322 42 278 q 117 399 85 365 q 189 456 150 432 q 261 497 228 481 q 199 533 232 513 q 141 582 167 553 q 99 650 115 611 q 83 740 82 689 q 113 840 85 796 q 185 915 142 885 q 283 960 229 944 q 390 976 336 976 q 532 953 472 976 q 631 897 592 931 q 689 822 669 863 q 710 747 708 782 q 703 683 711 715 q 672 619 694 650 q 613 558 650 588 q 517 499 575 528 m 396 8 q 494 15 447 6 q 577 49 540 25 q 636 112 614 74 q 660 206 658 150 q 642 281 661 247 q 590 343 622 315 q 517 392 558 371 q 432 431 475 414 q 349 461 389 447 q 278 488 308 475 q 179 389 219 447 q 136 240 139 331 q 157 150 135 192 q 215 78 179 108 q 299 30 251 49 q 396 8 346 11 m 163 751 q 208 658 167 699 q 302 589 249 618 q 410 540 356 560 q 499 507 465 519 q 542 544 521 522 q 579 596 563 567 q 606 661 596 625 q 615 743 617 697 q 594 839 614 799 q 544 906 575 879 q 472 947 513 933 q 389 960 432 960 q 307 947 349 960 q 232 908 265 935 q 178 843 199 882 q 163 751 158 804 z "},"9":{"ha":771,"x_min":38,"x_max":738,"o":"m 299 358 q 192 392 242 365 q 107 462 142 419 q 55 561 72 504 q 44 685 38 618 q 74 790 50 736 q 140 886 97 843 q 247 955 183 929 q 396 976 310 981 q 515 949 451 974 q 628 872 578 924 q 708 737 679 819 q 726 538 738 654 q 687 376 718 450 q 607 243 656 303 q 498 138 558 183 q 372 60 438 92 q 240 13 307 29 q 111 -4 172 -4 l 113 8 q 201 17 150 8 q 305 47 251 25 q 411 103 358 68 q 508 195 464 139 q 581 329 551 251 q 617 511 610 407 q 570 442 600 474 q 499 390 540 411 q 406 360 457 369 q 299 358 356 351 m 147 688 q 190 485 144 564 q 328 383 235 407 q 426 381 375 371 q 519 419 476 390 q 588 490 561 447 q 618 588 615 533 q 594 789 622 714 q 524 903 567 864 q 434 954 482 943 q 353 961 386 965 q 260 929 299 956 q 197 864 221 903 q 160 778 172 825 q 147 688 149 732 z "},"\u0000":{"ha":0,"x_min":0,"x_max":0,"o":""},"\r":{"ha":310,"x_min":0,"x_max":0,"o":""}," ":{"ha":310,"x_min":0,"x_max":0,"o":""},"E":{"ha":1018,"x_min":33,"x_max":976,"o":"m 60 361 q 47 557 33 460 q 109 736 61 654 q 233 878 157 818 q 408 965 310 939 q 550 982 479 985 q 687 958 621 979 q 810 899 753 938 q 913 808 868 861 l 879 686 l 867 686 q 788 808 835 750 q 682 904 740 865 q 555 958 624 943 q 411 954 486 974 q 294 896 344 936 q 211 802 244 856 q 160 685 178 749 q 140 556 142 621 l 168 556 q 334 563 251 556 q 483 582 417 571 q 633 608 561 593 l 646 608 l 646 490 l 633 490 q 483 517 561 504 q 334 535 417 526 q 168 543 251 543 l 139 543 q 143 464 139 503 q 158 388 147 425 q 256 193 189 271 q 405 75 322 115 q 577 31 488 35 q 746 61 667 28 q 884 163 825 94 q 964 335 943 231 l 976 332 q 886 144 954 219 q 727 31 818 68 q 533 -4 636 -6 q 335 38 429 -3 q 166 160 240 79 q 60 361 92 240 z "},"F":{"ha":686,"x_min":42,"x_max":644,"o":"m 206 0 l 42 0 l 42 13 q 50 17 44 13 q 60 32 56 21 q 69 65 65 43 q 74 119 74 86 l 74 856 q 69 911 74 890 q 60 943 65 932 q 50 958 56 954 q 42 963 44 963 l 42 975 l 644 975 l 644 857 l 632 857 q 569 893 600 876 q 502 924 538 910 q 424 947 467 938 q 331 963 382 957 l 174 963 l 174 554 q 306 563 256 554 q 388 581 357 571 q 440 607 422 592 l 453 607 l 453 489 l 440 489 q 388 515 422 503 q 306 533 357 525 q 174 542 256 542 l 174 119 q 177 65 174 86 q 186 32 181 43 q 197 17 192 21 q 206 13 203 13 l 206 0 z "},"G":{"ha":1049,"x_min":33,"x_max":1007,"o":"m 876 318 q 863 390 876 364 q 828 430 849 417 q 781 447 807 443 q 728 451 754 451 l 639 451 l 639 464 l 1007 464 l 1007 451 q 991 439 996 451 q 984 408 986 426 q 981 368 982 389 q 975 331 979 347 q 881 143 950 218 q 722 31 813 68 q 528 -5 631 -7 q 332 38 425 -3 q 165 158 239 78 q 60 360 92 239 q 47 556 33 458 q 108 735 61 653 q 233 877 156 817 q 408 964 310 938 q 550 981 479 983 q 686 957 621 978 q 809 898 751 936 q 911 807 867 860 l 878 685 l 865 685 q 786 806 833 749 q 681 903 739 864 q 554 957 622 942 q 411 953 486 972 q 263 868 321 929 q 174 727 204 807 q 140 557 143 647 q 157 386 136 467 q 240 211 185 283 q 364 95 294 139 q 512 37 433 51 q 665 36 590 22 q 778 83 736 51 q 841 153 819 114 q 869 236 863 193 q 876 318 876 279 z "},"H":{"ha":801,"x_min":42,"x_max":760,"o":"m 760 963 q 751 958 757 963 q 740 943 746 954 q 731 911 735 932 q 728 856 728 890 l 728 119 q 731 65 728 86 q 740 32 735 43 q 751 17 746 21 q 760 13 757 13 l 760 0 l 596 0 l 596 13 q 604 17 599 13 q 615 32 610 21 q 624 65 619 43 q 628 119 628 86 l 628 572 l 172 572 l 172 119 q 176 65 172 86 q 185 32 179 43 q 196 17 190 21 q 204 13 201 13 l 204 0 l 42 0 l 42 13 q 50 17 44 13 q 60 32 56 21 q 69 65 65 43 q 74 119 74 86 l 74 856 q 69 911 74 890 q 60 943 65 932 q 50 958 56 954 q 42 963 44 963 l 42 975 l 204 975 l 204 963 q 196 958 201 963 q 185 943 190 954 q 176 911 179 932 q 172 856 172 890 l 172 585 l 628 585 l 628 856 q 624 911 628 890 q 615 943 619 932 q 604 958 610 954 q 596 963 599 963 l 596 975 l 760 975 l 760 963 z "},"I":{"ha":247,"x_min":42,"x_max":206,"o":"m 206 963 q 196 958 201 963 q 185 943 190 954 q 176 911 181 932 q 172 856 172 890 l 172 119 q 176 65 172 86 q 185 32 181 43 q 196 17 190 21 q 206 13 201 13 l 206 0 l 42 0 l 42 13 q 50 17 44 13 q 60 32 56 21 q 69 65 65 43 q 74 119 74 86 l 74 856 q 69 911 74 890 q 60 943 65 932 q 50 958 56 954 q 42 963 44 963 l 42 975 l 206 975 l 206 963 z "},"J":{"ha":418,"x_min":42,"x_max":376,"o":"m 344 175 q 328 55 344 106 q 284 -31 311 4 q 224 -87 257 -65 q 157 -122 190 -110 q 93 -137 124 -133 q 42 -142 63 -142 l 42 -129 q 110 -116 81 -129 q 160 -82 139 -103 q 197 -34 182 -61 q 221 22 211 -7 q 246 175 243 89 l 246 856 q 242 911 246 890 q 233 943 238 932 q 222 958 228 954 q 214 963 217 963 l 214 975 l 376 975 l 376 963 q 368 958 374 963 q 357 943 363 954 q 348 911 351 932 q 344 856 344 890 l 344 175 z "},"K":{"ha":849,"x_min":42,"x_max":807,"o":"m 685 151 q 756 44 729 75 q 794 13 782 13 l 794 0 l 621 0 l 621 13 q 629 17 626 13 q 628 33 632 21 q 615 68 625 46 q 585 126 606 90 l 329 579 l 172 424 l 172 119 q 176 65 172 86 q 185 32 181 43 q 196 17 190 21 q 206 13 201 13 l 206 0 l 42 0 l 42 13 q 50 17 44 13 q 60 32 56 21 q 69 65 65 43 q 74 119 74 86 l 74 856 q 69 911 74 890 q 60 943 65 932 q 50 958 56 954 q 42 963 44 963 l 42 975 l 206 975 l 206 963 q 196 958 201 963 q 185 943 190 954 q 176 911 181 932 q 172 856 172 890 l 172 440 l 547 814 q 633 924 617 885 q 585 963 649 963 l 585 975 l 807 975 l 807 963 q 744 947 778 963 q 677 908 711 932 q 610 856 643 885 q 553 803 578 828 l 403 653 l 685 151 z "},"L":{"ha":686,"x_min":42,"x_max":644,"o":"m 206 961 q 197 957 203 961 q 186 942 192 953 q 177 910 181 931 q 174 854 174 889 l 174 13 l 331 13 q 424 28 382 18 q 502 51 467 38 q 569 81 538 64 q 632 117 600 97 l 644 117 l 644 -1 l 525 -1 l 489 0 l 42 0 l 42 13 q 50 16 44 13 q 60 31 56 19 q 69 64 65 43 q 74 119 74 85 l 74 854 q 69 910 74 889 q 60 942 65 931 q 50 957 56 953 q 42 961 44 961 l 42 974 l 206 974 l 206 961 z "},"M":{"ha":1172,"x_min":42,"x_max":1131,"o":"m 1131 975 l 1131 963 q 1122 958 1128 963 q 1111 943 1117 954 q 1102 911 1106 932 q 1099 856 1099 890 l 1099 119 q 1102 65 1099 86 q 1111 32 1106 43 q 1122 17 1117 21 q 1131 13 1128 13 l 1131 0 l 967 0 l 967 13 q 975 17 969 13 q 985 32 981 21 q 994 65 990 43 q 999 119 999 86 l 999 946 l 582 82 l 621 0 l 511 0 l 107 840 l 107 228 q 113 140 107 179 q 126 72 118 100 q 142 28 133 43 q 160 13 151 13 l 160 0 l 42 0 l 42 13 q 59 28 50 13 q 76 72 68 43 q 89 140 83 100 q 94 228 94 179 l 94 865 l 42 975 l 151 975 l 575 96 l 999 975 l 1131 975 z "},"N":{"ha":978,"x_min":42,"x_max":936,"o":"m 828 138 l 936 0 l 810 0 l 146 843 l 146 228 q 151 140 146 179 q 165 72 157 100 q 181 28 172 43 q 199 13 190 13 l 199 0 l 81 0 l 81 13 q 98 28 89 13 q 115 72 107 43 q 128 140 122 100 q 133 228 133 179 l 133 858 l 42 975 l 168 975 l 815 153 l 815 749 q 810 837 815 797 q 797 904 804 876 q 780 947 789 932 q 763 963 771 963 l 763 975 l 881 975 l 881 963 q 863 947 872 963 q 847 904 854 932 q 833 837 839 876 q 828 749 828 797 l 828 138 z "},"O":{"ha":1071,"x_min":32,"x_max":1038,"o":"m 58 361 q 47 557 32 460 q 108 736 61 654 q 232 878 156 818 q 407 965 308 939 q 603 978 506 992 q 782 917 700 964 q 924 792 864 869 q 1011 617 985 715 q 1024 422 1038 518 q 963 243 1010 325 q 838 100 915 161 q 663 13 761 39 q 467 0 564 -14 q 289 62 371 14 q 146 186 207 110 q 58 361 85 263 m 913 590 q 844 747 892 671 q 730 878 796 824 q 582 955 664 932 q 411 954 500 978 q 262 869 321 931 q 172 728 203 808 q 139 558 142 649 q 157 388 136 468 q 226 231 179 307 q 340 101 274 156 q 488 24 407 47 q 660 25 569 0 q 808 110 749 49 q 897 251 867 171 q 931 420 928 331 q 913 590 935 510 z "},"P":{"ha":732,"x_min":42,"x_max":690,"o":"m 206 0 l 42 0 l 42 13 q 50 17 44 13 q 60 32 56 21 q 69 65 65 43 q 74 119 74 86 l 74 856 q 69 911 74 890 q 60 943 65 932 q 50 958 56 954 q 42 963 44 963 l 42 975 l 54 975 q 184 983 117 976 q 313 990 251 990 q 490 973 418 990 q 607 925 563 956 q 671 852 651 894 q 690 760 690 810 q 671 667 690 710 q 607 595 651 625 q 490 548 563 565 q 313 531 418 531 l 172 531 l 172 119 q 176 65 172 86 q 185 32 181 43 q 196 17 190 21 q 206 13 201 13 l 206 0 m 313 543 l 313 542 q 406 551 357 542 q 497 586 456 561 q 566 653 539 611 q 593 760 593 696 q 566 866 593 824 q 497 933 539 908 q 406 969 456 958 q 313 979 357 979 q 244 976 279 979 q 172 971 208 974 l 172 543 l 313 543 z "},"Q":{"ha":1071,"x_min":32,"x_max":1033,"o":"m 882 -118 q 863 -76 878 -101 q 824 -26 850 -56 q 751 44 797 4 q 663 11 708 24 q 467 -1 564 -15 q 289 60 371 13 q 146 185 207 108 q 58 360 85 261 q 47 556 32 458 q 108 735 61 653 q 232 877 156 817 q 407 964 308 938 q 603 976 506 990 q 782 915 700 963 q 924 791 864 868 q 1011 615 985 714 q 1026 447 1033 531 q 987 288 1019 363 q 898 153 954 214 q 768 53 842 92 q 851 5 817 21 q 910 -18 886 -11 q 953 -25 935 -25 l 963 -32 l 931 -74 l 924 -83 l 892 -126 l 882 -118 m 739 56 q 717 71 728 63 q 696 89 707 79 l 622 144 l 629 154 l 704 99 q 728 79 717 88 q 751 64 740 71 q 853 163 814 103 q 913 295 893 224 q 932 443 932 367 q 914 589 932 519 q 844 746 892 669 q 731 876 797 822 q 582 953 664 931 q 411 953 500 976 q 262 868 321 929 q 172 727 203 807 q 139 557 142 647 q 157 386 136 467 q 226 230 179 306 q 340 100 274 154 q 488 22 407 46 q 660 24 569 -1 q 701 37 682 29 q 739 56 719 44 z "},"R":{"ha":806,"x_min":42,"x_max":764,"o":"m 636 196 q 678 124 658 157 q 715 65 699 90 q 744 26 732 40 q 764 13 756 13 l 764 0 l 601 0 l 601 13 q 594 56 610 13 q 540 165 579 99 l 329 531 l 172 531 l 172 119 q 176 65 172 86 q 185 32 179 43 q 196 17 190 21 q 204 13 201 13 l 204 0 l 42 0 l 42 13 q 50 17 44 13 q 60 32 56 21 q 69 65 65 43 q 74 119 74 86 l 74 856 q 69 911 74 890 q 60 943 65 932 q 50 958 56 954 q 42 963 44 963 l 42 975 l 54 975 q 183 983 117 976 q 311 990 250 990 q 489 973 417 990 q 606 925 561 956 q 669 852 650 894 q 689 760 689 810 q 676 682 689 718 q 633 617 663 646 q 555 567 603 588 q 439 538 507 547 l 636 196 m 172 971 l 172 542 l 311 542 q 406 551 357 542 q 497 586 456 561 q 565 653 538 611 q 592 760 592 696 q 565 866 592 824 q 497 933 538 908 q 406 969 456 958 q 311 979 357 979 q 244 976 279 979 q 172 971 208 974 z "},"S":{"ha":763,"x_min":42,"x_max":721,"o":"m 442 -11 q 307 10 371 -11 q 191 63 243 31 q 101 135 139 96 q 42 210 63 174 l 75 333 l 86 333 q 185 167 129 240 q 237 105 208 135 q 297 52 265 75 q 365 15 329 29 q 442 0 401 0 q 501 8 464 0 q 575 37 539 17 q 637 91 611 57 q 663 175 663 125 q 638 267 663 225 q 576 342 614 308 q 489 401 538 375 q 393 443 440 426 q 289 488 339 463 q 200 549 239 514 q 138 631 161 585 q 115 736 115 678 q 138 840 115 793 q 198 919 160 886 q 287 969 236 951 q 394 988 338 988 q 517 973 465 988 q 608 933 569 958 q 672 876 646 908 q 719 807 699 843 l 686 685 l 674 685 q 613 829 650 765 q 575 882 596 856 q 527 929 554 908 q 467 963 500 950 q 394 975 433 975 q 333 967 371 975 q 260 938 296 958 q 199 884 225 918 q 172 800 172 850 q 197 708 172 750 q 259 633 221 667 q 346 575 297 600 q 443 533 394 550 q 547 488 497 514 q 636 426 597 461 q 698 344 675 390 q 721 240 721 299 q 699 137 721 183 q 638 58 676 90 q 548 7 599 25 q 442 -11 497 -11 z "},"T":{"ha":875,"x_min":42,"x_max":833,"o":"m 833 857 l 821 857 q 761 911 790 890 q 694 943 732 932 q 607 958 657 954 q 486 963 557 963 l 486 119 q 490 65 486 86 q 499 32 493 43 q 510 17 504 21 q 518 13 515 13 l 518 0 l 356 0 l 356 13 q 364 17 358 13 q 374 32 369 21 q 383 65 379 43 q 388 119 388 86 l 388 963 q 267 958 317 963 q 180 943 217 954 q 114 911 143 932 q 54 857 85 890 l 42 857 l 42 975 l 833 975 l 833 857 z "},"U":{"ha":875,"x_min":42,"x_max":833,"o":"m 74 856 q 69 911 74 890 q 60 943 65 932 q 50 958 56 954 q 42 963 44 963 l 42 975 l 204 975 l 204 963 q 196 958 201 963 q 185 943 190 954 q 176 911 179 932 q 172 856 172 890 l 172 367 q 197 188 171 265 q 227 122 208 154 q 274 64 246 89 q 342 24 303 39 q 435 8 382 8 q 544 22 486 8 q 653 75 603 36 q 735 184 703 114 q 768 367 768 254 l 768 749 q 763 837 768 797 q 749 904 757 876 q 733 947 742 932 q 715 963 724 963 l 715 975 l 833 975 l 833 963 q 816 947 825 963 q 799 904 807 932 q 786 837 792 876 q 781 749 781 797 l 781 367 q 761 217 781 279 q 711 114 742 156 q 642 48 681 72 q 567 11 604 24 q 497 -5 529 -1 q 444 -8 464 -8 q 390 -4 425 -8 q 313 14 354 0 q 228 53 271 28 q 152 119 186 78 q 96 222 118 161 q 74 367 74 282 l 74 856 z "},"V":{"ha":872,"x_min":42,"x_max":831,"o":"m 713 975 l 831 975 l 831 963 q 811 955 822 963 q 786 928 800 947 q 757 879 772 910 q 726 801 742 849 l 478 78 l 504 0 l 400 0 l 135 774 q 108 847 121 813 q 83 908 94 882 q 60 948 71 933 q 42 963 50 963 l 42 975 l 206 975 l 206 963 q 200 924 197 963 q 221 828 203 886 l 472 96 l 714 804 q 713 963 768 963 l 713 975 z "},"W":{"ha":1426,"x_min":42,"x_max":1385,"o":"m 1267 975 l 1385 975 l 1385 963 q 1341 928 1369 963 q 1281 800 1313 893 l 1033 76 l 1058 0 l 954 0 l 703 733 l 478 76 l 504 0 l 399 0 l 135 772 q 108 846 121 811 q 83 907 94 881 q 60 948 71 933 q 42 963 50 963 l 42 975 l 204 975 l 204 963 q 200 924 197 963 q 221 826 203 885 l 471 96 l 696 753 l 689 772 q 662 846 675 811 q 637 907 649 881 q 615 948 625 933 q 597 963 606 963 l 597 975 l 760 975 l 760 963 q 755 924 753 963 q 776 826 757 885 l 1026 96 l 1268 804 q 1267 963 1322 963 l 1267 975 z "},"X":{"ha":961,"x_min":42,"x_max":919,"o":"m 160 0 l 42 0 l 42 13 q 90 31 56 13 q 178 114 125 50 l 451 481 l 247 779 l 217 824 l 175 885 q 131 941 151 919 q 96 963 111 963 l 96 975 l 303 975 l 303 963 q 301 919 293 963 q 347 810 308 876 l 514 565 l 706 824 q 774 931 763 900 q 768 963 786 963 l 768 975 l 885 975 l 885 963 q 835 942 871 963 q 747 858 800 922 l 521 554 l 767 196 q 817 125 793 158 q 862 67 842 92 q 897 27 882 42 q 919 13 911 13 l 919 0 l 713 0 l 713 13 q 717 50 722 13 q 668 165 711 88 l 458 471 l 221 151 q 153 43 164 74 q 160 13 142 13 l 160 0 z "},"Z":{"ha":906,"x_min":42,"x_max":864,"o":"m 614 810 q 660 919 653 876 q 657 963 667 963 l 465 963 q 371 947 413 957 q 294 924 329 938 q 227 893 258 910 q 164 857 196 876 l 151 857 l 151 975 l 864 975 l 864 963 q 828 941 849 963 q 785 885 808 919 l 743 824 l 713 779 l 293 165 q 260 98 271 126 q 244 51 249 69 q 242 22 240 32 q 247 13 243 13 l 479 13 q 573 28 531 18 q 651 51 615 38 q 717 81 686 64 q 781 117 749 97 l 792 117 l 792 0 l 42 0 l 42 13 q 65 27 50 13 q 99 67 79 42 q 142 125 118 92 q 193 196 167 158 l 614 810 l 614 810 z "},"a":{"ha":704,"x_min":29,"x_max":669,"o":"m 669 0 l 542 0 l 542 400 q 538 483 542 438 q 521 569 535 529 q 478 637 507 610 q 400 664 450 664 q 313 649 350 664 q 254 615 276 635 q 225 576 232 596 q 228 546 218 557 q 247 535 233 539 q 276 529 260 532 q 312 524 293 526 q 347 514 331 521 q 420 456 393 496 q 458 368 447 417 q 467 268 469 319 q 447 178 464 217 q 353 44 415 97 q 217 -6 290 -8 q 104 33 147 -3 q 45 120 61 68 q 42 233 29 172 q 95 345 54 293 q 208 433 136 397 q 382 474 279 469 q 392 475 385 475 q 343 504 371 493 q 289 517 318 514 q 234 518 260 519 q 188 514 208 517 q 163 510 168 511 q 174 559 158 531 q 222 613 190 588 q 298 656 253 639 q 400 674 343 674 q 513 653 467 674 q 586 596 558 632 q 626 509 614 560 q 638 400 638 458 l 638 119 q 641 64 638 85 q 650 31 644 43 q 661 16 656 19 q 669 13 667 13 l 669 0 m 401 464 q 297 450 346 464 q 210 407 247 436 q 152 333 174 378 q 131 229 131 289 q 137 171 131 200 q 158 117 143 142 q 194 74 172 92 q 249 50 217 56 q 311 53 282 43 q 365 81 340 63 q 409 126 390 100 q 439 181 428 153 q 456 252 451 214 q 457 328 461 290 q 439 401 453 367 q 401 464 425 436 z "},"b":{"ha":763,"x_min":35,"x_max":731,"o":"m 165 301 q 192 422 175 368 q 233 521 210 476 q 335 639 278 603 q 351 649 340 643 q 428 676 388 669 q 508 675 468 682 q 627 628 581 663 q 698 544 674 593 q 726 437 722 494 q 717 320 731 379 q 674 206 703 261 q 603 107 644 150 q 482 21 551 54 q 329 -11 413 -12 q 165 22 257 -12 l 157 26 q 103 29 125 38 q 81 0 81 21 l 68 0 l 68 885 q 54 932 64 921 q 39 943 44 943 l 35 956 l 165 1004 l 165 301 m 165 33 q 251 8 210 15 q 331 -1 292 0 q 458 38 404 1 q 547 138 511 74 q 587 248 572 183 q 601 379 601 313 q 583 506 601 446 q 526 606 565 567 q 447 653 490 642 q 357 640 404 664 q 268 554 304 610 q 210 438 232 501 q 178 310 189 374 q 169 249 172 279 q 165 172 165 211 l 165 33 z "},"c":{"ha":697,"x_min":29,"x_max":663,"o":"m 628 472 q 572 562 607 521 q 492 628 536 603 q 397 662 449 654 q 290 651 344 669 q 197 594 232 636 q 144 497 161 551 q 128 382 128 442 q 142 271 129 322 l 146 258 q 215 124 171 175 q 311 48 258 72 q 419 24 364 24 q 524 44 475 24 q 607 101 572 64 q 653 189 642 139 l 663 189 q 606 83 650 126 q 501 17 563 39 q 370 -5 440 -6 q 236 24 300 -4 q 121 106 172 51 q 47 246 69 160 q 39 381 29 314 q 81 503 49 447 q 167 601 114 560 q 289 661 221 643 q 413 673 353 678 q 524 653 474 668 q 608 622 574 639 q 654 597 643 604 l 660 597 l 640 469 l 628 472 l 628 472 z "},"d":{"ha":763,"x_min":32,"x_max":728,"o":"m 599 375 q 571 248 589 306 q 529 146 553 190 q 428 28 485 65 l 411 18 q 335 -8 375 -3 q 254 -7 294 -14 q 135 40 182 6 q 65 124 89 75 q 36 231 40 172 q 46 348 32 289 q 89 463 60 407 q 160 561 118 518 q 281 647 211 614 q 433 678 350 679 q 510 672 469 679 q 599 644 551 664 l 599 885 q 584 932 593 921 q 569 943 575 943 l 565 956 l 696 1004 l 696 121 q 699 65 696 86 q 708 33 703 44 q 719 17 714 21 q 728 14 725 14 l 728 1 l 599 1 l 599 375 m 599 633 q 432 668 511 668 q 305 629 358 665 q 215 531 251 593 q 176 420 190 485 q 161 289 161 356 q 179 161 161 222 q 236 61 197 100 q 315 15 272 25 q 406 28 358 4 q 455 65 433 43 q 494 114 476 86 q 552 229 531 165 q 585 358 574 293 q 593 418 590 386 q 597 510 597 461 l 599 510 l 599 633 z "},"e":{"ha":731,"x_min":29,"x_max":696,"o":"m 47 246 q 39 381 29 314 q 81 503 49 447 q 167 601 114 560 q 288 661 219 643 q 426 670 360 681 q 547 629 493 660 q 640 551 601 599 q 696 449 679 504 q 588 444 646 449 q 483 429 531 440 q 555 416 522 431 q 611 376 588 401 q 649 318 635 351 q 665 249 663 285 q 634 119 671 174 q 537 33 597 64 q 401 -3 476 1 q 256 17 326 -8 q 129 98 186 42 q 47 246 72 154 m 129 346 q 142 271 133 306 q 222 114 168 171 q 340 36 276 57 q 467 27 403 15 q 578 75 531 39 q 647 167 625 111 q 647 293 668 224 q 611 361 636 331 q 550 406 586 392 q 468 417 514 421 q 371 383 422 414 q 273 342 321 354 q 185 333 225 331 q 156 337 169 335 q 129 346 142 339 m 589 456 q 539 541 569 500 q 470 611 508 582 q 386 653 432 640 q 290 651 340 665 q 211 608 243 639 q 160 538 179 578 q 134 450 142 497 q 129 357 126 403 q 185 343 153 346 q 270 352 224 340 q 365 392 317 364 q 482 439 424 425 q 589 456 540 453 z "},"f":{"ha":483,"x_min":35,"x_max":449,"o":"m 219 121 q 223 65 219 86 q 232 33 226 44 q 243 17 238 21 q 251 14 249 14 l 251 1 l 92 1 l 92 14 q 100 17 94 14 q 110 33 106 21 q 119 65 115 44 q 124 121 124 86 l 124 575 q 99 635 124 610 q 35 660 75 660 l 35 669 l 124 669 l 218 671 q 151 692 185 679 q 92 726 118 706 q 51 772 67 746 q 35 833 35 799 q 49 900 35 871 q 85 950 63 929 q 139 984 108 971 q 203 1001 169 997 q 267 1004 231 1007 q 332 996 303 1001 q 444 957 390 983 l 449 956 l 425 806 l 415 807 q 414 818 415 814 q 393 868 411 840 q 347 924 375 896 q 288 969 319 950 q 228 993 257 989 q 216 993 221 993 q 204 992 211 993 q 168 971 182 988 q 147 932 154 954 q 139 885 140 910 q 140 843 138 861 q 158 776 144 807 q 192 721 171 744 q 244 683 214 697 q 313 669 275 669 l 435 669 l 435 660 l 219 660 l 219 121 z "},"h":{"ha":738,"x_min":35,"x_max":703,"o":"m 543 13 q 551 16 546 13 q 562 31 557 19 q 571 63 567 42 q 575 118 575 83 q 564 260 571 185 q 544 403 557 335 q 508 529 531 472 q 447 618 485 586 q 369 646 411 649 q 290 608 328 642 q 264 581 275 594 q 220 506 239 547 q 189 420 201 464 q 171 331 176 376 q 165 244 165 286 l 165 119 q 169 64 165 85 q 178 31 172 43 q 189 16 183 19 q 197 13 194 13 l 197 0 l 36 0 l 36 13 q 44 16 39 13 q 55 31 50 19 q 64 64 60 43 q 68 119 68 85 l 68 883 q 54 931 64 919 q 39 942 44 942 l 35 954 l 165 1003 l 165 364 q 200 492 176 436 q 256 586 224 549 q 331 653 288 631 q 431 669 375 676 q 545 615 503 658 q 611 508 588 571 q 637 417 626 468 q 654 309 647 365 q 665 195 661 253 q 672 85 669 138 q 688 26 679 39 q 703 13 697 13 l 703 0 l 543 0 l 543 13 z "},"i":{"ha":232,"x_min":35,"x_max":197,"o":"m 35 619 l 165 669 l 165 119 q 169 64 165 85 q 178 31 172 43 q 189 16 183 19 q 197 13 194 13 l 197 0 l 36 0 l 36 13 q 46 16 40 13 q 56 31 51 19 q 65 64 61 43 q 69 119 69 85 l 69 549 q 54 597 64 586 q 39 608 44 608 l 35 619 m 107 782 q 60 801 79 782 q 42 847 42 819 q 60 894 42 875 q 107 913 79 913 q 153 894 135 913 q 172 847 172 875 q 153 801 172 819 q 107 782 135 782 z "},"j":{"ha":338,"x_min":35,"x_max":303,"o":"m 299 0 q 276 -159 299 -90 q 215 -274 253 -228 q 131 -344 178 -321 q 35 -368 83 -368 l 35 -358 q 91 -343 67 -358 q 133 -303 115 -328 q 163 -245 151 -278 q 183 -179 175 -212 q 203 0 201 -101 l 203 549 q 188 597 197 586 q 174 608 179 608 l 169 619 l 299 669 l 299 0 m 238 782 q 191 801 210 782 q 172 847 172 819 q 191 894 172 875 q 238 913 210 913 q 284 894 265 913 q 303 847 303 875 q 284 801 303 819 q 238 782 265 782 z "},"k":{"ha":688,"x_min":35,"x_max":653,"o":"m 165 1003 l 165 299 l 319 435 l 497 592 q 534 637 525 617 q 511 657 543 657 l 511 669 l 642 669 l 642 657 q 597 646 621 657 q 552 622 572 635 q 517 596 532 608 q 500 581 503 583 l 367 463 l 525 194 l 578 106 q 622 38 603 63 q 653 13 642 13 l 653 0 l 489 0 l 489 13 q 484 55 499 13 q 431 164 469 97 l 293 397 l 165 285 l 165 119 q 169 64 165 85 q 178 31 172 43 q 189 16 183 19 q 197 13 194 13 l 197 0 l 38 0 l 38 13 q 46 16 40 13 q 56 31 51 19 q 65 64 61 43 q 69 119 69 85 l 69 883 q 54 931 64 919 q 40 942 44 942 l 35 954 l 165 1003 z "},"m":{"ha":1088,"x_min":35,"x_max":1053,"o":"m 1021 411 l 1021 119 q 1024 64 1021 85 q 1033 31 1028 43 q 1044 16 1039 19 q 1053 13 1050 13 l 1053 0 l 892 0 l 892 13 q 900 16 894 13 q 910 31 906 19 q 919 64 915 43 q 924 119 924 85 l 924 411 q 921 472 924 436 q 909 541 918 507 q 883 603 900 575 q 836 640 865 631 q 779 640 807 650 q 728 608 751 629 q 688 561 706 588 q 658 511 669 535 q 610 348 628 444 q 592 119 592 251 q 595 64 592 85 q 604 31 599 43 q 615 16 610 19 q 624 13 621 13 l 624 0 l 463 0 l 463 13 q 471 16 465 13 q 481 31 476 19 q 490 64 486 43 q 494 119 494 85 l 494 411 q 492 472 494 436 q 480 541 489 507 q 453 603 471 575 q 407 640 436 631 q 350 640 378 650 q 299 608 322 629 q 258 561 276 588 q 229 511 240 535 q 181 348 199 444 q 163 119 163 251 q 166 64 163 85 q 175 31 169 43 q 186 16 181 19 q 194 13 192 13 l 194 0 l 35 0 l 35 13 q 43 16 38 13 q 53 31 49 19 q 63 64 58 43 q 67 119 67 85 l 67 550 q 63 605 67 583 q 53 638 58 626 q 43 653 49 649 q 35 657 38 657 l 35 669 l 163 669 l 163 310 q 186 425 172 374 q 218 517 200 476 q 250 574 232 546 q 292 624 268 601 q 345 661 317 647 q 408 675 374 675 q 501 651 465 675 q 558 590 538 628 q 585 506 578 553 q 592 411 592 458 l 592 310 q 614 425 600 374 q 647 517 628 476 q 678 574 660 546 q 721 624 697 601 q 774 661 744 647 q 838 675 803 675 q 930 651 894 675 q 985 590 965 628 q 1013 506 1006 553 q 1021 411 1021 458 z "},"l":{"ha":232,"x_min":35,"x_max":197,"o":"m 197 0 l 36 0 l 36 13 q 44 16 39 13 q 55 31 50 19 q 64 64 60 43 q 68 119 68 85 l 68 883 q 53 931 63 919 q 39 942 44 942 l 35 954 l 165 1003 l 165 119 q 169 64 165 85 q 178 31 172 43 q 189 16 183 19 q 197 13 194 13 l 197 0 z "},"n":{"ha":658,"x_min":35,"x_max":624,"o":"m 35 669 l 163 669 l 163 310 q 185 425 171 374 q 218 517 200 476 q 250 574 232 546 q 292 624 268 601 q 345 661 317 647 q 408 675 374 675 q 501 651 465 675 q 556 590 536 628 q 584 506 576 553 q 592 411 592 458 l 592 119 q 595 64 592 85 q 604 31 599 43 q 615 16 610 19 q 624 13 621 13 l 624 0 l 463 0 l 463 13 q 471 16 465 13 q 481 31 476 19 q 490 64 486 43 q 494 119 494 85 l 494 411 q 492 472 494 436 q 480 541 489 507 q 453 603 471 575 q 407 640 436 631 q 350 640 378 650 q 299 608 322 629 q 258 561 276 588 q 229 511 240 535 q 181 348 199 444 q 163 119 163 251 q 166 64 163 85 q 175 31 169 43 q 186 16 181 19 q 194 13 192 13 l 194 0 l 35 0 l 35 13 q 43 16 38 13 q 53 31 49 19 q 63 64 58 43 q 67 119 67 85 l 67 550 q 63 605 67 583 q 53 638 58 626 q 43 653 49 649 q 35 657 38 657 l 35 669 z "},"o":{"ha":751,"x_min":29,"x_max":722,"o":"m 47 254 q 39 389 29 322 q 81 512 49 456 q 167 610 114 568 q 288 669 219 651 q 422 678 356 688 q 546 635 489 668 q 644 550 603 603 q 704 429 686 497 q 713 294 722 361 q 670 172 703 228 q 585 74 638 115 q 464 14 532 32 q 329 6 396 -4 q 206 48 263 15 q 107 133 149 81 q 47 254 65 186 m 610 404 q 567 506 596 454 q 496 598 538 558 q 401 656 454 638 q 290 660 349 675 q 197 602 232 644 q 144 505 161 560 q 128 390 128 450 q 142 279 128 329 q 185 176 156 229 q 256 85 214 124 q 350 26 297 46 q 461 24 403 7 q 556 81 519 39 q 608 178 592 124 q 624 294 625 233 q 610 404 624 354 z "},"p":{"ha":763,"x_min":35,"x_max":729,"o":"m 163 294 q 190 421 172 364 q 233 524 208 478 q 333 640 275 604 q 350 650 339 644 q 426 678 386 672 q 508 676 467 683 q 627 629 581 664 q 698 545 674 594 q 726 438 722 496 q 716 322 729 381 q 673 207 703 263 q 601 108 643 151 q 481 23 550 56 q 328 -10 413 -10 q 251 -2 292 -10 q 163 25 210 6 l 163 -215 q 178 -262 168 -251 q 192 -274 188 -274 l 197 -286 l 67 -336 l 67 549 q 63 604 67 583 q 53 636 58 625 q 43 651 49 647 q 35 656 38 656 l 35 668 l 163 668 l 163 294 m 163 36 q 329 1 250 1 q 457 40 403 4 q 546 139 511 75 q 587 249 572 185 q 601 381 601 314 q 583 508 600 447 q 526 607 565 568 q 447 654 490 643 q 356 642 403 665 q 308 605 329 626 q 267 556 286 583 q 210 440 232 504 q 176 311 188 376 l 168 251 q 164 160 164 207 l 163 160 l 163 36 z "},"q":{"ha":765,"x_min":32,"x_max":731,"o":"m 694 665 l 694 -169 q 698 -225 694 -204 q 707 -258 701 -246 q 718 -273 713 -269 q 726 -276 724 -276 l 731 -289 l 600 -339 l 600 -337 l 597 -339 l 597 365 q 570 244 588 299 q 529 144 553 189 q 428 28 485 64 q 411 18 422 24 q 335 -10 375 -4 q 254 -8 294 -15 q 135 39 182 4 q 65 123 89 74 q 36 230 40 172 q 46 347 32 288 q 89 461 60 406 q 160 560 118 517 q 281 645 211 613 q 433 678 350 678 q 510 670 469 678 q 597 643 551 663 q 606 640 600 643 q 660 637 638 628 q 682 665 682 646 l 694 665 m 597 632 q 512 659 553 651 q 432 667 471 667 q 305 628 358 664 q 215 529 251 593 q 176 419 190 483 q 161 288 161 354 q 178 160 161 221 q 235 61 196 100 q 315 14 271 25 q 406 26 358 3 q 494 113 457 56 q 552 228 531 164 q 585 357 574 292 q 593 417 592 389 q 597 494 597 454 l 597 632 z "},"r":{"ha":601,"x_min":35,"x_max":567,"o":"m 535 536 q 563 488 546 483 l 567 476 l 492 447 l 488 446 l 415 418 l 415 431 q 436 462 431 440 q 442 503 442 483 q 434 549 439 526 q 419 592 429 572 q 394 624 410 611 q 356 640 378 638 q 261 635 297 649 q 204 593 225 621 q 174 528 183 565 q 164 453 165 492 l 164 119 q 167 64 164 85 q 176 31 171 43 q 188 16 182 19 q 196 13 193 13 l 196 0 l 35 0 l 35 13 q 44 16 39 13 q 55 31 50 19 q 64 64 60 43 q 68 119 68 85 l 68 550 q 64 606 68 585 q 55 638 60 626 q 44 653 50 649 q 35 657 39 657 l 35 669 l 164 669 l 164 538 q 185 592 171 567 q 222 636 199 618 q 278 665 244 654 q 358 675 311 675 q 480 636 438 675 q 535 536 522 597 z "},"s":{"ha":617,"x_min":35,"x_max":586,"o":"m 515 419 q 499 483 515 449 q 456 549 483 517 q 392 608 428 582 q 319 645 357 633 q 242 651 281 657 q 174 613 204 644 q 146 544 144 583 q 179 472 147 504 q 249 425 203 449 q 372 382 296 401 q 468 346 429 367 q 532 301 507 325 q 579 211 572 261 q 558 111 586 161 q 526 67 544 88 q 485 35 507 47 q 435 9 463 19 q 379 -8 408 -1 q 321 -16 350 -14 q 265 -17 292 -18 q 160 5 215 -12 q 46 58 106 22 l 35 65 l 68 219 l 79 217 q 85 185 76 204 q 106 144 93 165 q 132 106 118 124 q 156 81 146 89 q 217 37 183 53 q 286 14 250 21 q 355 8 321 7 q 419 18 389 10 q 450 28 436 22 q 479 43 464 35 q 504 64 493 53 q 522 88 514 75 q 532 114 529 100 q 529 154 535 136 q 497 199 519 181 q 443 231 474 218 q 377 254 413 244 q 307 275 342 264 q 190 331 240 294 q 116 413 139 367 q 102 513 93 460 q 165 619 111 565 q 260 666 201 657 q 380 666 319 675 q 490 633 440 657 q 557 578 539 608 l 522 419 l 515 419 z "},"t":{"ha":563,"x_min":35,"x_max":528,"o":"m 35 669 q 65 674 43 669 q 110 697 88 678 q 151 753 133 715 q 168 860 168 792 l 265 860 q 232 731 265 776 q 132 669 199 686 l 340 669 l 340 660 l 219 660 l 219 258 q 222 198 219 233 q 234 128 225 163 q 260 67 243 94 q 307 29 278 39 q 364 29 336 19 q 415 60 392 39 q 456 107 438 81 q 485 157 474 133 q 501 198 493 176 q 515 243 508 219 l 528 243 q 513 195 521 218 q 496 153 506 172 q 465 96 483 124 q 422 45 446 68 q 369 8 399 22 q 306 -6 340 -6 q 213 18 249 -6 q 158 79 178 42 q 130 164 138 117 q 122 258 122 211 l 122 575 q 99 635 122 610 q 35 660 75 660 l 35 669 z "},"u":{"ha":658,"x_min":35,"x_max":624,"o":"m 624 0 l 496 0 l 496 358 q 472 244 486 296 q 440 153 458 193 q 408 96 426 124 q 366 45 390 68 q 313 8 342 22 q 250 -6 285 -6 q 158 18 193 -6 q 102 79 122 42 q 74 164 82 117 q 67 258 67 211 l 67 550 q 63 606 67 585 q 53 638 58 626 q 43 653 49 649 q 35 657 38 657 l 35 669 l 164 669 l 164 258 q 167 198 164 233 q 178 128 169 163 q 205 67 188 94 q 251 29 222 39 q 308 29 281 19 q 359 60 336 39 q 400 107 382 81 q 429 157 418 133 q 478 320 460 224 q 496 550 496 417 q 492 606 496 585 q 483 638 488 626 q 472 653 478 649 q 464 657 467 657 l 464 669 l 592 669 l 592 119 q 595 64 592 85 q 604 31 599 43 q 615 16 610 19 q 624 13 621 13 l 624 0 z "},"v":{"ha":704,"x_min":35,"x_max":669,"o":"m 213 550 l 388 126 l 549 513 q 578 618 576 579 q 553 657 581 657 l 553 669 l 669 669 l 669 657 q 650 650 661 657 q 625 626 639 643 q 594 577 611 608 q 556 499 576 546 l 394 110 l 440 0 l 336 0 l 111 544 q 72 622 93 586 q 35 657 51 657 l 35 669 l 196 669 l 196 657 q 186 634 185 657 q 213 550 188 611 z "},"w":{"ha":1090,"x_min":35,"x_max":1056,"o":"m 938 669 l 1056 669 l 1056 657 q 1036 650 1047 657 q 1011 626 1025 643 q 980 577 997 608 q 942 499 963 546 l 781 110 l 826 0 l 722 0 l 536 450 l 394 110 l 440 0 l 336 0 l 110 544 q 72 622 93 586 q 35 657 51 657 l 35 669 l 194 669 l 194 657 q 186 634 185 657 q 213 550 188 611 l 388 126 l 529 465 l 497 544 q 458 622 479 586 q 421 657 438 657 l 421 669 l 582 669 l 582 657 q 572 634 571 657 q 599 550 574 611 l 774 126 l 935 513 q 964 618 963 579 q 938 657 965 657 l 938 669 z "},"x":{"ha":783,"x_min":35,"x_max":749,"o":"m 35 13 q 72 23 53 13 q 109 48 92 33 q 142 79 126 63 q 168 108 157 96 l 167 107 l 347 326 l 138 601 q 124 616 133 607 q 103 634 115 625 q 80 650 92 643 q 60 657 68 657 l 60 669 l 261 669 l 261 657 q 244 639 242 657 q 267 596 247 621 l 413 406 l 571 597 q 597 641 594 625 q 571 657 600 657 l 571 669 l 689 669 l 689 657 q 651 647 669 657 q 614 622 632 636 q 581 590 596 607 q 556 561 565 574 l 419 397 l 671 68 q 684 53 675 63 q 705 35 693 44 q 728 19 717 26 q 749 13 740 13 l 749 0 l 547 0 l 547 13 q 564 31 567 13 q 542 74 561 49 l 354 318 l 146 67 q 125 27 126 42 q 151 13 124 13 l 151 0 l 35 0 l 35 13 z "},"y":{"ha":760,"x_min":35,"x_max":725,"o":"m 175 -44 q 160 -69 160 -56 q 165 -94 160 -83 q 210 -162 183 -132 q 265 -201 236 -192 q 322 -190 294 -210 q 374 -106 350 -169 l 413 0 l 408 0 l 147 603 q 124 644 135 631 q 94 657 113 657 l 94 669 l 271 669 l 271 657 q 254 607 232 657 l 461 128 l 635 589 q 640 626 643 613 q 629 646 636 639 q 607 657 621 654 l 607 669 l 725 669 l 725 657 q 678 638 701 657 q 644 586 656 618 l 383 -108 q 317 -226 356 -186 q 235 -271 279 -267 q 141 -244 190 -275 q 43 -149 92 -212 l 35 -139 l 167 -35 l 175 -44 z "},"z":{"ha":757,"x_min":35,"x_max":722,"o":"m 707 167 l 643 11 l 638 0 l 35 0 l 35 13 q 55 19 43 13 q 78 35 67 26 q 99 53 90 44 q 113 68 108 63 l 114 69 l 515 596 q 538 639 535 621 q 522 657 542 657 l 346 657 q 278 645 313 657 q 214 613 244 633 q 158 563 183 592 q 119 501 133 535 l 106 501 l 171 658 l 175 669 l 722 669 l 722 657 q 703 650 714 657 q 680 634 692 643 q 658 616 668 625 q 644 601 649 607 l 644 600 l 242 74 q 219 31 222 49 q 236 13 215 13 l 468 13 q 534 24 500 13 q 599 56 568 36 q 654 105 629 76 q 694 167 679 133 l 707 167 z "},"ß":{"ha":815,"x_min":42,"x_max":774,"o":"m 313 989 q 490 972 418 989 q 607 924 563 954 q 671 852 651 894 q 690 760 690 810 q 676 679 690 717 q 631 613 663 642 q 548 563 599 583 q 424 535 497 543 q 561 506 497 526 q 672 453 625 486 q 747 375 719 421 q 774 269 774 329 q 736 135 774 188 q 635 53 699 83 q 489 11 572 22 q 313 0 406 0 l 42 0 l 42 11 q 50 15 44 11 q 60 31 56 19 q 69 64 65 43 q 74 119 74 85 l 74 621 q 83 772 74 704 q 117 888 92 840 q 190 963 143 936 q 313 989 236 989 m 674 269 q 650 375 674 332 q 591 447 626 418 q 512 492 556 476 q 428 517 468 508 q 358 527 389 525 q 317 529 328 529 l 174 529 l 174 11 l 313 11 q 493 39 414 13 q 559 69 526 50 q 617 115 592 88 q 658 181 643 143 q 674 269 674 219 m 174 621 l 174 542 l 313 542 l 313 540 q 406 550 357 540 q 497 585 456 560 q 566 652 539 610 q 593 760 593 694 q 566 866 593 824 q 497 933 539 908 q 406 968 456 958 q 313 978 357 978 q 246 959 272 978 q 203 898 219 940 q 181 788 188 856 q 174 621 174 719 z "},"æ":{"ha":1294,"x_min":36,"x_max":1253,"o":"m 676 1 l 549 1 l 549 401 q 545 485 549 439 q 528 571 542 531 q 485 638 514 611 q 407 665 457 665 q 320 651 357 665 q 261 617 283 636 q 232 577 239 597 q 235 546 225 557 q 253 535 240 539 q 283 530 267 532 q 318 525 300 528 q 354 515 336 522 q 426 458 399 497 q 465 369 454 418 q 474 269 476 321 q 454 179 471 218 q 360 46 422 99 q 224 -4 297 -7 q 111 34 154 -1 q 52 122 68 69 q 49 234 36 174 q 102 347 61 294 q 215 435 143 399 q 389 475 286 471 q 394 476 392 475 q 399 476 396 476 q 350 506 378 494 q 296 518 325 515 q 241 519 267 521 q 195 515 215 518 q 169 511 175 513 q 181 560 165 532 q 227 615 196 589 q 304 658 258 640 q 407 675 350 675 q 566 626 513 675 q 636 499 619 578 q 722 599 668 557 q 844 661 775 642 q 983 670 917 681 q 1103 629 1049 660 q 1197 551 1157 599 q 1253 449 1236 504 q 1145 444 1203 449 q 1039 428 1088 440 q 1110 415 1078 429 q 1167 376 1143 400 q 1206 318 1192 351 q 1222 249 1219 285 q 1197 129 1226 181 q 1116 45 1167 78 q 1000 1 1065 13 q 869 2 935 -10 q 743 50 803 14 q 644 150 683 86 l 644 121 q 648 65 644 86 q 657 33 651 44 q 668 17 663 21 q 676 13 674 13 l 676 1 m 1146 456 q 1096 541 1126 500 q 1027 611 1065 582 q 943 653 989 640 q 847 651 897 665 q 768 608 800 639 q 717 538 736 578 q 691 450 699 497 q 686 357 683 403 q 742 343 710 346 q 827 352 781 340 q 922 392 874 364 q 1039 439 981 425 q 1146 456 1097 453 m 408 465 q 303 451 353 465 q 217 407 254 436 q 159 334 181 378 q 138 231 138 290 q 144 172 138 201 q 165 118 150 143 q 201 75 179 93 q 256 51 224 57 q 317 54 288 44 q 372 83 347 64 q 415 128 396 101 q 446 182 435 154 q 463 253 458 215 q 464 330 468 292 q 446 403 460 368 q 408 465 432 438 m 686 344 q 691 306 688 325 q 699 271 694 288 q 779 114 725 171 q 897 36 833 57 q 1024 27 960 15 q 1135 75 1088 39 q 1203 167 1182 111 q 1204 293 1225 224 q 1168 361 1193 331 q 1107 406 1143 392 q 1025 417 1071 421 q 928 383 979 414 q 830 342 878 354 q 742 332 782 329 q 686 344 711 335 z "},"œ":{"ha":1336,"x_min":36,"x_max":1294,"o":"m 679 503 q 764 603 711 561 q 886 664 817 646 q 1025 673 958 683 q 1146 632 1092 663 q 1239 554 1200 601 q 1294 451 1278 507 q 1187 447 1244 451 q 1082 431 1129 443 q 1153 417 1121 432 q 1210 378 1186 403 q 1247 321 1233 354 q 1264 251 1261 288 q 1237 129 1268 182 q 1153 44 1206 76 q 1033 2 1100 13 q 899 6 965 -8 q 773 60 832 19 q 676 169 714 100 q 592 71 644 113 q 469 10 539 29 q 335 1 401 -8 q 212 44 268 11 q 114 129 156 76 q 54 250 72 182 q 46 385 36 318 q 88 508 56 451 q 174 607 121 565 q 294 667 226 649 q 408 677 351 682 q 517 650 465 672 q 610 590 568 628 q 679 503 651 553 m 615 401 q 572 503 601 451 q 501 595 543 556 q 408 653 460 635 q 297 657 356 672 q 203 599 239 642 q 150 501 167 556 q 133 385 133 446 q 147 275 133 325 q 191 173 161 225 q 263 81 221 121 q 356 23 304 42 q 467 19 408 4 q 561 78 525 35 q 614 176 597 121 q 630 291 631 231 q 615 401 629 351 m 728 347 q 733 309 731 328 q 740 274 736 290 q 821 117 767 174 q 938 39 875 60 q 1065 30 1001 18 q 1176 78 1129 42 q 1245 170 1224 114 q 1246 296 1267 226 q 1210 364 1235 333 q 1149 409 1185 394 q 1067 420 1113 424 q 969 386 1021 417 q 872 344 919 357 q 783 335 824 332 q 728 347 753 338 m 1188 458 q 1138 544 1168 503 q 1069 614 1107 585 q 985 656 1031 643 q 889 654 939 668 q 810 611 842 642 q 759 540 778 581 q 733 453 740 500 q 728 360 725 406 q 783 346 751 349 q 869 355 822 343 q 964 394 915 367 q 1081 442 1022 428 q 1188 458 1139 456 z "},"Æ":{"ha":1596,"x_min":42,"x_max":1554,"o":"m 622 532 q 657 677 628 607 q 733 805 686 747 q 845 905 781 863 q 988 968 910 947 q 1129 985 1058 988 q 1265 963 1200 983 q 1388 903 1331 942 q 1490 813 1446 865 l 1457 689 l 1444 689 q 1365 810 1413 753 q 1260 908 1318 868 q 1133 963 1201 947 q 990 957 1065 978 q 872 899 922 939 q 789 806 822 860 q 738 688 756 751 q 718 558 721 625 l 747 558 q 913 566 831 558 q 1063 585 996 574 q 1211 611 1139 596 l 1224 611 l 1224 493 l 1211 493 q 1063 519 1139 507 q 913 538 996 529 q 747 546 831 546 l 718 546 q 722 467 717 506 q 736 390 726 428 q 833 196 767 274 q 983 78 900 118 q 1155 34 1065 38 q 1324 64 1244 31 q 1462 166 1403 97 q 1542 338 1521 235 l 1554 335 q 1486 174 1536 242 q 1367 65 1436 107 q 1216 8 1299 24 q 1051 3 1133 -7 q 890 52 968 14 q 753 154 813 90 q 795 51 775 92 q 829 11 815 11 l 829 0 l 665 0 l 665 11 q 671 50 674 11 q 650 147 668 89 l 638 181 q 597 270 622 226 q 536 349 571 314 q 458 406 501 383 q 364 435 415 429 q 324 434 344 436 q 283 425 303 432 q 249 406 264 418 q 226 372 233 393 l 157 169 q 158 11 103 11 l 158 0 l 42 0 l 42 11 q 60 19 49 11 q 85 45 71 26 q 114 95 99 64 q 144 174 129 126 l 393 897 l 367 974 l 471 974 l 622 532 m 240 415 q 299 442 265 436 q 365 446 333 449 q 503 393 443 439 q 603 283 563 347 l 400 878 l 240 415 z "},"Œ":{"ha":1918,"x_min":33,"x_max":1876,"o":"m 986 693 q 1114 865 1031 792 q 1310 968 1197 939 q 1451 985 1381 988 q 1588 963 1522 983 q 1710 903 1653 942 q 1813 813 1768 865 l 1779 689 l 1767 689 q 1688 810 1735 753 q 1582 908 1640 868 q 1456 963 1524 947 q 1313 957 1388 978 q 1194 899 1244 939 q 1111 806 1144 860 q 1060 688 1078 751 q 1040 558 1043 625 l 1069 558 q 1235 566 1153 558 q 1385 585 1318 574 q 1533 611 1461 596 l 1546 611 l 1546 493 l 1533 493 q 1385 519 1461 507 q 1235 538 1318 529 q 1069 546 1153 546 l 1040 546 q 1044 467 1039 506 q 1058 390 1049 428 q 1156 196 1089 274 q 1305 78 1222 118 q 1478 34 1388 38 q 1647 64 1568 31 q 1785 166 1726 97 q 1865 338 1844 235 l 1876 335 q 1794 155 1856 228 q 1648 43 1732 82 q 1467 0 1564 4 q 1277 26 1369 -4 q 1108 123 1185 57 q 986 290 1031 189 q 859 119 942 192 q 664 15 776 46 q 469 3 565 -11 q 290 64 372 17 q 147 188 208 111 q 60 364 86 265 q 47 559 33 463 q 109 738 61 656 q 233 881 157 819 q 408 968 310 942 q 585 983 497 992 q 749 936 672 974 q 888 837 826 899 q 986 693 950 775 m 914 593 q 845 749 893 674 q 731 879 797 825 q 583 957 665 933 q 413 956 501 981 q 263 871 322 932 q 174 730 204 810 q 140 560 143 650 q 158 390 136 471 q 228 233 181 308 q 342 103 275 157 q 490 26 408 49 q 661 26 571 3 q 809 111 750 50 q 899 252 868 172 q 933 422 929 332 q 914 593 936 511 z "},"&":{"ha":992,"x_min":42,"x_max":950,"o":"m 394 536 q 574 335 478 432 q 771 147 671 239 q 844 225 811 183 q 900 311 876 267 l 903 308 l 907 307 q 853 222 888 265 q 778 140 819 179 q 864 65 821 101 q 950 -10 907 28 l 778 -10 q 734 31 756 11 q 692 72 713 51 q 557 6 632 32 q 411 -21 482 -21 q 349 -17 386 -21 q 270 -2 311 -12 q 188 28 229 8 q 115 78 147 47 q 62 152 82 108 q 42 256 42 196 q 65 369 42 324 q 126 443 89 414 q 206 489 163 472 q 288 518 249 506 q 244 583 265 550 q 203 650 222 615 q 166 763 171 703 q 192 876 161 824 q 260 949 217 922 q 354 982 303 975 q 450 981 400 990 q 542 949 500 972 q 610 885 583 925 q 638 793 638 846 q 621 685 638 728 q 572 615 604 643 q 495 568 540 586 q 394 536 450 550 m 683 79 q 478 285 576 181 q 293 511 379 390 q 239 488 265 501 q 190 450 213 474 q 149 377 163 422 q 140 264 135 332 q 175 151 146 199 q 249 73 204 104 q 349 27 293 42 q 463 13 404 13 q 578 31 521 14 q 683 79 636 47 m 344 971 q 302 952 322 965 q 267 920 282 939 q 242 879 251 901 q 233 833 233 857 q 250 763 233 803 q 290 684 267 724 q 340 608 314 644 q 383 550 365 572 q 447 588 417 564 q 499 641 476 611 q 536 706 522 671 q 550 778 550 742 q 535 874 550 836 q 494 933 519 911 q 424 969 467 958 q 344 971 381 981 z "},"£":{"ha":861,"x_min":42,"x_max":819,"o":"m 819 199 q 784 131 807 167 q 733 67 761 96 q 674 19 706 38 q 613 0 643 0 q 557 9 588 0 q 493 29 526 18 q 425 50 460 40 q 358 63 390 60 q 295 63 325 64 q 236 53 265 61 q 175 31 207 46 q 104 -8 143 15 l 94 0 q 228 178 188 83 q 238 379 268 272 q 224 428 231 406 q 210 472 217 451 l 42 472 l 42 486 l 204 486 q 176 569 189 532 q 157 640 164 606 q 150 708 150 674 q 160 786 150 743 q 203 878 172 840 q 275 938 233 915 q 365 969 317 960 q 460 978 413 979 q 576 953 528 976 q 654 885 624 929 q 699 781 685 842 q 713 644 713 719 l 706 644 q 688 797 706 736 q 637 895 669 858 q 559 947 604 932 q 460 963 514 963 q 371 947 411 963 q 302 902 331 931 q 258 835 274 874 q 246 753 243 797 q 272 631 249 697 q 314 486 294 565 l 624 486 l 624 472 l 317 472 q 333 368 329 422 q 324 269 338 315 q 286 184 310 224 q 231 110 263 144 q 168 50 199 76 q 228 86 197 68 q 285 115 258 104 q 327 129 301 122 q 385 139 353 136 q 458 138 418 142 q 546 119 499 133 q 712 103 649 86 q 807 201 775 119 l 819 199 z "},"¢":{"ha":710,"x_min":36,"x_max":668,"o":"m 344 1158 l 367 1158 l 367 853 q 469 847 419 856 q 558 824 518 838 q 624 796 597 810 q 661 776 651 782 l 667 776 l 647 649 l 635 651 q 589 728 617 693 q 526 790 561 764 q 451 830 492 815 q 367 843 410 844 l 367 210 q 463 205 415 199 q 551 233 511 211 q 621 289 592 254 q 660 368 650 324 l 668 368 q 630 283 658 319 q 560 221 601 246 q 469 184 519 196 q 367 175 418 172 l 367 -179 l 344 -179 l 344 176 q 252 199 297 182 q 168 247 207 217 q 99 322 129 278 q 54 425 69 367 q 46 560 36 493 q 88 683 56 626 q 174 781 121 739 q 294 840 226 822 q 344 850 317 847 l 344 1158 m 344 215 l 344 842 q 322 837 333 839 q 297 831 310 835 q 203 773 239 815 q 151 676 168 731 q 135 561 135 621 q 149 450 136 501 l 153 438 q 232 290 181 343 q 344 215 283 236 z "},"$":{"ha":763,"x_min":42,"x_max":721,"o":"m 378 1158 l 400 1158 l 400 978 q 521 963 469 978 q 610 923 572 947 q 674 866 647 899 q 719 799 700 833 l 686 675 l 675 675 q 615 818 653 754 q 578 871 599 844 q 530 918 557 897 q 471 951 503 939 q 400 965 439 964 l 400 540 l 443 524 q 547 478 497 504 q 636 416 597 451 q 698 335 675 381 q 721 231 721 289 q 699 127 721 174 q 638 48 676 81 q 548 -3 599 15 q 442 -21 497 -21 q 421 -20 431 -21 q 400 -19 411 -19 l 400 -179 l 378 -179 l 378 -17 q 265 15 318 -8 q 168 69 211 39 q 92 133 125 99 q 42 200 60 168 l 75 324 l 88 324 q 167 183 121 249 q 208 128 185 156 q 258 75 232 100 q 315 31 285 50 q 378 1 344 11 l 378 439 q 278 484 325 458 q 194 545 231 510 q 137 625 158 581 q 115 726 115 669 q 136 827 115 782 q 193 905 157 872 q 276 956 229 938 q 378 978 324 975 l 378 1158 m 442 -8 q 501 0 464 -8 q 575 28 539 8 q 637 83 611 49 q 663 167 663 117 q 640 258 663 217 q 579 331 617 299 q 494 389 542 364 q 400 431 447 414 l 400 -4 q 442 -8 421 -8 m 378 550 l 378 965 q 317 953 353 963 q 250 922 282 943 q 196 869 218 901 q 174 792 174 838 q 190 714 174 750 q 235 647 207 678 q 301 592 264 617 q 378 550 338 568 z "},"€":{"ha":1167,"x_min":42,"x_max":1125,"o":"m 210 347 q 194 436 196 393 l 42 436 l 42 458 l 193 458 q 192 499 192 478 q 196 539 193 519 l 42 539 l 42 561 l 200 561 q 243 692 213 629 q 319 806 274 754 q 426 894 365 857 q 558 951 486 932 q 700 967 629 969 q 836 944 771 965 q 959 885 901 924 q 1061 794 1017 847 l 1028 671 l 1015 671 q 936 794 983 736 q 831 890 889 851 q 704 944 772 929 q 561 939 636 960 q 447 885 496 922 q 365 796 399 847 q 313 684 332 744 q 290 561 294 624 l 453 561 l 453 539 l 289 539 q 288 499 288 519 q 292 458 289 478 l 453 458 l 453 436 l 294 436 q 301 404 297 419 q 307 374 304 389 q 404 179 338 257 q 553 60 471 101 q 726 16 636 19 q 896 46 817 13 q 1034 148 975 79 q 1114 319 1093 217 l 1125 317 q 1035 128 1103 204 q 876 16 967 53 q 682 -19 785 -21 q 485 24 579 -17 q 316 146 390 65 q 210 347 242 226 z "},"!":{"ha":208,"x_min":42,"x_max":167,"o":"m 156 978 l 121 250 l 107 250 l 74 978 l 156 978 m 104 124 q 60 106 79 124 q 42 64 42 89 q 60 22 42 39 q 104 4 79 4 q 149 22 131 4 q 167 64 167 39 q 149 106 167 89 q 104 124 131 124 z "},"?":{"ha":604,"x_min":42,"x_max":563,"o":"m 561 803 q 537 694 558 738 q 485 617 515 651 q 420 551 454 582 q 356 481 386 521 q 307 386 326 440 q 288 250 288 332 l 279 250 q 293 383 279 326 q 327 483 307 439 q 372 563 347 528 q 416 635 396 599 q 450 711 436 671 q 464 804 464 751 q 454 863 464 838 q 428 905 444 888 q 390 933 411 922 q 346 949 368 943 q 231 955 285 964 q 138 916 178 946 q 76 837 99 886 q 53 722 53 788 l 42 722 q 66 850 42 799 q 133 931 90 901 q 232 971 175 961 q 356 975 289 981 q 428 959 390 972 q 495 924 465 946 q 544 872 525 903 q 561 803 563 840 m 292 124 q 247 106 265 124 q 228 64 228 89 q 247 22 228 39 q 292 4 265 4 q 335 22 317 4 q 353 64 353 39 q 335 106 353 89 q 292 124 317 124 z "},"§":{"ha":763,"x_min":42,"x_max":721,"o":"m 542 233 q 669 132 618 193 q 721 -18 721 71 q 699 -122 721 -75 q 638 -201 676 -168 q 548 -251 599 -233 q 442 -269 497 -269 q 307 -249 371 -269 q 191 -195 243 -228 q 101 -124 139 -162 q 42 -49 63 -85 l 75 75 l 86 75 q 185 -92 129 -18 q 237 -153 208 -124 q 297 -206 265 -183 q 365 -244 329 -229 q 442 -258 401 -258 q 501 -250 464 -258 q 575 -222 539 -242 q 637 -167 611 -201 q 663 -83 663 -133 q 638 8 663 -33 q 576 83 614 50 q 489 142 538 117 q 393 185 440 168 q 289 230 339 204 q 200 291 239 256 q 138 373 161 326 q 115 478 115 419 q 165 628 115 567 q 294 714 215 689 q 224 758 257 733 q 167 814 190 783 q 129 882 143 844 q 115 964 115 919 q 138 1069 115 1022 q 198 1148 160 1115 q 287 1199 236 1181 q 394 1217 338 1217 q 517 1202 465 1217 q 608 1163 569 1188 q 672 1105 646 1138 q 719 1036 699 1072 l 686 913 l 674 913 q 613 1058 650 993 q 574 1111 596 1085 q 526 1158 553 1138 q 466 1192 499 1179 q 394 1204 433 1204 q 333 1196 371 1204 q 260 1167 296 1188 q 199 1113 225 1147 q 172 1029 172 1079 q 197 938 172 979 q 259 863 221 896 q 346 804 297 829 q 443 763 394 779 q 547 717 497 743 q 636 655 597 690 q 698 574 675 619 q 721 469 721 528 q 670 319 721 381 q 542 233 619 258 m 315 703 q 265 682 290 694 q 219 649 239 669 q 185 603 199 629 q 172 542 172 576 q 197 450 172 492 q 259 375 221 408 q 346 317 297 342 q 443 275 394 292 q 481 260 463 268 q 519 243 500 253 q 570 265 544 251 q 617 297 596 278 q 650 343 638 317 q 663 404 663 369 q 638 496 663 454 q 576 571 614 538 q 489 629 538 604 q 393 671 440 654 q 354 686 374 678 q 315 703 335 694 z "},"†":{"ha":476,"x_min":42,"x_max":435,"o":"m 435 751 l 435 738 l 246 738 l 246 4 l 231 4 l 231 738 l 42 738 l 42 751 l 231 751 l 231 978 l 246 978 l 246 751 l 435 751 z "},"‡":{"ha":478,"x_min":42,"x_max":436,"o":"m 246 231 l 246 4 l 232 4 l 232 231 l 42 231 l 42 244 l 232 244 l 232 738 l 42 738 l 42 751 l 232 751 l 232 978 l 246 978 l 246 751 l 436 751 l 436 738 l 246 738 l 246 244 l 436 244 l 436 231 l 246 231 z "},"#":{"ha":1044,"x_min":42,"x_max":1003,"o":"m 729 217 l 729 4 l 715 4 l 715 217 l 288 217 l 288 4 l 272 4 l 272 217 l 42 217 l 42 232 l 272 232 l 272 738 l 42 738 l 42 751 l 272 751 l 272 965 l 288 965 l 288 751 l 715 751 l 715 965 l 729 965 l 729 751 l 1003 751 l 1003 738 l 729 738 l 729 232 l 1003 232 l 1003 217 l 729 217 m 715 738 l 288 738 l 288 232 l 715 232 l 715 738 z "},"|":{"ha":1157,"x_min":0,"x_max":0,"o":""},"+":{"ha":476,"x_min":42,"x_max":435,"o":"m 246 293 l 231 293 l 231 482 l 42 482 l 42 496 l 231 496 l 231 686 l 246 686 l 246 496 l 435 496 l 435 482 l 246 482 l 246 293 z "},"-":{"ha":476,"x_min":42,"x_max":435,"o":"m 435 496 l 435 482 l 42 482 l 42 496 l 435 496 z "},"=":{"ha":476,"x_min":42,"x_max":435,"o":"m 435 583 l 435 568 l 42 568 l 42 583 l 435 583 m 435 425 l 435 411 l 42 411 l 42 425 l 435 425 z "},"÷":{"ha":478,"x_min":42,"x_max":436,"o":"m 239 386 q 283 368 265 386 q 301 325 301 350 q 283 283 301 300 q 239 265 265 265 q 194 283 213 265 q 176 325 176 300 q 194 368 176 350 q 239 386 213 386 m 239 694 q 283 677 265 694 q 301 635 301 660 q 283 592 301 610 q 239 574 265 574 q 194 592 213 574 q 176 635 176 610 q 194 677 176 660 q 239 694 213 694 m 436 496 l 436 482 l 42 482 l 42 496 l 436 496 z "},"~":{"ha":694,"x_min":42,"x_max":653,"o":"m 653 528 q 614 474 638 500 q 563 431 590 449 q 503 404 535 413 q 443 401 472 396 q 381 424 414 407 q 314 460 347 440 q 248 499 281 481 q 188 525 215 517 q 152 531 168 531 q 121 525 136 532 q 90 502 106 518 q 57 457 75 486 l 42 467 q 71 508 56 489 q 102 542 85 525 q 140 569 119 560 q 184 584 160 578 q 239 588 208 590 q 309 572 269 585 q 400 529 349 558 q 556 475 501 472 q 639 535 611 478 l 653 528 z "},"\\":{"ha":431,"x_min":42,"x_max":389,"o":"m 389 4 l 358 4 l 42 978 l 71 978 l 389 4 z "},"/":{"ha":429,"x_min":42,"x_max":388,"o":"m 358 974 l 388 974 l 71 0 l 42 0 l 358 974 z "},"‹":{"ha":419,"x_min":42,"x_max":378,"o":"m 146 503 l 378 158 l 372 153 l 42 503 l 372 853 l 378 847 l 146 503 z "},"«":{"ha":656,"x_min":42,"x_max":614,"o":"m 144 503 l 378 158 l 372 153 l 42 503 l 372 853 l 378 847 l 144 503 m 381 503 l 614 158 l 608 153 l 278 503 l 608 853 l 614 847 l 381 503 z "},"›":{"ha":421,"x_min":42,"x_max":379,"o":"m 42 847 l 49 853 l 379 503 l 49 153 l 42 158 l 275 503 l 42 847 z "},"»":{"ha":656,"x_min":42,"x_max":614,"o":"m 278 847 l 283 853 l 614 503 l 283 153 l 278 158 l 510 503 l 278 847 m 42 847 l 47 853 l 378 503 l 47 153 l 42 158 l 274 503 l 42 847 z "},"<":{"ha":840,"x_min":42,"x_max":799,"o":"m 67 414 l 799 133 l 789 115 l 42 403 l 42 425 l 789 713 l 799 694 l 67 414 z "},">":{"ha":840,"x_min":42,"x_max":799,"o":"m 42 694 l 51 713 l 799 425 l 799 403 l 51 115 l 42 133 l 774 414 l 42 694 z "},"^":{"ha":592,"x_min":42,"x_max":550,"o":"m 550 917 l 543 906 l 296 1081 l 50 906 l 42 917 l 296 1167 l 550 917 z "},"µ":{"ha":524,"x_min":42,"x_max":482,"o":"m 139 264 q 150 203 139 239 q 180 134 161 168 q 225 72 199 100 q 281 35 251 44 q 384 40 346 17 q 441 107 422 64 q 465 203 460 150 q 471 297 471 256 l 471 675 l 482 675 l 482 0 l 471 0 l 471 149 q 450 89 464 117 q 413 42 436 61 q 357 11 390 22 q 278 0 324 0 q 139 49 196 0 l 139 -240 l 42 -240 l 42 675 l 139 675 l 139 264 z "},"˜":{"ha":385,"x_min":42,"x_max":343,"o":"m 343 969 q 307 913 333 939 q 250 886 281 886 q 192 902 221 886 q 138 928 164 918 q 90 931 113 938 q 50 879 68 925 l 42 882 q 53 906 47 893 q 65 926 58 915 q 82 943 72 936 q 103 956 90 949 q 135 965 117 963 q 178 963 154 967 q 231 942 201 958 q 272 924 256 928 q 300 926 289 921 q 319 943 311 931 q 336 972 328 956 l 343 969 z "},"•":{"ha":386,"x_min":42,"x_max":344,"o":"m 193 611 q 251 599 224 611 q 300 568 279 588 q 333 522 321 549 q 344 465 344 496 q 333 408 344 435 q 300 362 321 382 q 251 331 279 342 q 193 319 224 319 q 134 331 161 319 q 86 362 107 342 q 53 408 65 382 q 42 465 42 435 q 53 522 42 496 q 86 568 65 549 q 134 599 107 588 q 193 611 161 611 z "},"*":{"ha":424,"x_min":40,"x_max":385,"o":"m 379 872 q 378 845 385 858 q 344 826 371 832 q 315 822 333 824 q 277 818 296 819 q 242 815 258 817 q 218 814 225 814 q 236 800 224 810 q 263 778 249 790 q 292 753 278 765 q 314 731 306 740 q 330 697 333 711 q 315 674 326 682 q 290 667 304 665 q 260 693 275 669 q 247 719 254 703 q 233 754 240 736 q 220 788 226 772 q 211 810 214 803 q 203 788 208 803 q 191 754 199 772 q 176 719 183 736 q 163 693 168 703 q 134 667 149 669 q 108 674 119 665 q 94 697 97 682 q 110 731 92 711 q 132 753 118 740 q 160 778 146 765 q 188 800 175 790 q 206 814 200 810 q 183 815 199 814 q 147 818 167 817 q 109 822 128 819 q 79 826 90 824 q 46 845 51 832 q 43 872 40 858 q 62 893 49 886 q 100 889 75 900 q 127 875 111 885 q 159 855 143 865 q 189 835 175 844 q 208 822 203 826 q 203 843 207 828 q 193 877 199 858 q 183 915 188 896 q 178 947 179 935 q 187 985 176 975 q 211 996 197 996 q 237 985 226 996 q 244 947 247 975 q 240 915 244 935 q 231 877 236 896 q 222 843 226 858 q 215 822 217 828 q 235 835 221 826 q 265 855 249 844 q 297 875 281 865 q 325 889 314 885 q 363 893 350 900 q 379 872 376 886 z "},"[":{"ha":433,"x_min":42,"x_max":392,"o":"m 392 1290 l 392 1264 l 154 1264 l 154 -489 l 392 -489 l 392 -517 l 42 -517 l 42 1290 l 392 1290 z "},"(":{"ha":526,"x_min":42,"x_max":485,"o":"m 161 374 q 176 139 161 258 q 227 -97 190 19 q 326 -324 264 -214 q 485 -526 389 -433 l 474 -543 q 153 -137 264 -368 q 42 374 42 94 q 153 884 42 653 q 474 1290 264 1115 l 485 1272 q 326 1071 389 1179 q 227 846 264 963 q 176 610 190 729 q 161 374 161 490 z "},"{":{"ha":479,"x_min":42,"x_max":438,"o":"m 438 1258 q 342 1252 389 1258 q 258 1231 296 1246 q 197 1189 221 1215 q 171 1121 174 1163 q 178 1042 167 1081 q 208 965 189 1004 q 249 888 226 926 q 289 807 271 849 q 317 721 307 765 q 324 626 328 676 q 292 517 317 561 q 235 444 268 472 q 167 402 203 417 q 106 381 132 388 q 167 360 132 374 q 235 318 203 346 q 292 246 268 290 q 324 136 317 201 q 306 -3 331 61 q 249 -126 281 -67 q 191 -243 217 -186 q 171 -361 165 -300 q 197 -428 174 -401 q 258 -469 221 -454 q 342 -491 296 -485 q 438 -497 389 -497 l 438 -511 q 190 -462 281 -511 q 88 -332 99 -414 q 92 -197 78 -260 q 130 -74 107 -133 q 176 44 153 -14 q 208 163 200 101 q 210 246 215 211 q 191 304 204 281 q 160 341 178 328 q 124 360 142 354 q 76 371 92 369 q 42 372 61 372 l 42 389 q 76 390 61 389 q 124 403 92 392 q 160 421 142 408 q 191 456 178 433 q 210 514 204 479 q 208 597 215 549 q 176 717 200 658 q 130 834 153 775 q 92 957 107 893 q 88 1093 78 1021 q 190 1224 99 1175 q 438 1272 281 1272 l 438 1258 l 438 1258 z "},"ˆ":{"ha":624,"x_min":42,"x_max":582,"o":"m 582 750 l 576 739 l 313 882 l 49 739 l 42 750 l 313 975 l 582 750 z "},"`":{"ha":371,"x_min":38,"x_max":329,"o":"m 129 944 q 176 899 144 931 q 243 835 208 868 q 329 751 282 796 l 324 743 q 221 803 268 775 q 180 827 200 815 q 141 850 160 839 q 108 869 122 861 q 85 883 93 878 q 44 923 51 904 q 50 957 38 942 q 81 972 63 974 q 129 944 100 971 z "},"ˇ":{"ha":622,"x_min":42,"x_max":581,"o":"m 581 983 l 310 758 l 42 983 l 47 994 l 310 850 l 574 994 l 581 983 z "},"–":{"ha":476,"x_min":42,"x_max":435,"o":"m 435 535 l 435 435 l 42 435 l 42 535 l 435 535 z "},"—":{"ha":478,"x_min":42,"x_max":436,"o":"m 436 535 l 436 435 l 42 435 l 42 535 l 436 535 z "},"−":{"ha":710,"x_min":42,"x_max":668,"o":"m 668 535 l 668 435 l 42 435 l 42 535 l 668 535 z "},"¬":{"ha":681,"x_min":42,"x_max":639,"o":"m 639 247 l 539 247 l 539 435 l 42 435 l 42 535 l 639 535 l 639 247 z "},"°":{"ha":660,"x_min":42,"x_max":618,"o":"m 331 1000 q 438 981 386 1000 q 529 926 489 961 q 594 841 569 890 q 618 731 618 792 q 594 620 618 669 q 529 537 569 571 q 438 484 489 503 q 331 465 386 465 q 223 484 275 465 q 131 537 171 503 q 66 620 90 571 q 42 731 42 669 q 66 841 42 792 q 131 926 90 890 q 223 981 171 961 q 331 1000 275 1000 m 331 482 q 460 549 410 482 q 510 731 510 615 q 497 834 510 788 q 460 913 483 881 q 403 963 436 946 q 331 981 369 981 q 202 913 251 981 q 153 731 153 846 q 202 549 153 615 q 331 482 251 482 z "},"¶":{"ha":1060,"x_min":42,"x_max":1018,"o":"m 1018 1196 l 1018 1179 l 982 1179 q 917 1175 946 1179 q 867 1159 888 1171 q 835 1126 846 1147 q 824 1069 824 1104 l 824 -304 l 801 -304 l 801 1175 l 481 1175 l 481 -304 l 458 -304 l 458 539 l 369 539 q 242 565 301 539 q 138 635 182 590 q 67 740 93 681 q 42 868 42 800 q 67 996 42 936 q 138 1100 93 1056 q 242 1170 182 1144 q 369 1196 301 1196 l 1018 1196 z "},"‰":{"ha":1949,"x_min":42,"x_max":1907,"o":"m 332 975 q 439 956 388 975 q 531 901 490 936 q 595 816 571 865 q 619 706 619 767 q 595 595 619 644 q 531 512 571 546 q 439 459 490 478 q 332 440 388 440 q 224 459 276 440 q 131 512 172 478 q 66 595 90 546 q 42 706 42 644 q 66 816 42 767 q 131 901 90 865 q 224 956 172 936 q 332 975 276 975 m 1006 535 q 1113 515 1061 535 q 1204 460 1164 496 q 1269 376 1244 425 q 1293 265 1293 326 q 1269 155 1293 204 q 1204 72 1244 106 q 1113 19 1164 38 q 1006 0 1061 0 q 898 19 950 0 q 806 72 846 38 q 741 155 765 106 q 717 265 717 204 q 741 376 717 326 q 806 460 765 425 q 898 515 846 496 q 1006 535 950 535 m 1006 17 q 1135 83 1085 17 q 1185 265 1185 150 q 1135 448 1185 381 q 1006 515 1085 515 q 933 498 965 515 q 876 448 900 481 q 840 369 853 415 q 826 265 826 322 q 876 83 826 150 q 1006 17 926 17 m 332 457 q 460 524 411 457 q 510 706 510 590 q 460 888 510 821 q 332 956 411 956 q 259 938 292 956 q 203 888 226 921 q 166 809 179 856 q 153 706 153 763 q 203 524 153 590 q 332 457 253 457 m 776 975 l 875 975 l 557 0 l 458 0 l 776 975 m 1619 535 q 1726 515 1675 535 q 1818 460 1778 496 q 1883 376 1858 425 q 1907 265 1907 326 q 1883 155 1907 204 q 1818 72 1858 106 q 1726 19 1778 38 q 1619 0 1675 0 q 1512 19 1564 0 q 1419 72 1460 38 q 1355 155 1379 106 q 1331 265 1331 204 q 1355 376 1331 326 q 1419 460 1379 425 q 1512 515 1460 496 q 1619 535 1564 535 m 1619 17 q 1749 83 1699 17 q 1799 265 1799 150 q 1749 448 1799 381 q 1619 515 1699 515 q 1547 498 1579 515 q 1490 448 1514 481 q 1453 369 1467 415 q 1440 265 1440 322 q 1490 83 1440 150 q 1619 17 1540 17 z "},"™":{"ha":1283,"x_min":42,"x_max":1242,"o":"m 1242 975 l 1242 967 q 1231 955 1239 967 q 1222 900 1222 943 l 1222 443 q 1231 389 1222 401 q 1242 376 1239 376 l 1242 369 l 1140 369 l 1140 376 q 1153 389 1144 376 q 1161 443 1161 401 l 1161 957 l 901 419 l 926 369 l 857 369 l 607 890 l 607 510 q 618 413 607 450 q 639 376 629 376 l 639 369 l 567 369 l 567 376 q 588 413 576 376 q 599 510 599 450 l 599 907 l 567 975 l 635 975 l 897 429 l 1161 975 l 1242 975 m 533 901 l 525 901 q 488 935 506 922 q 447 955 469 947 q 393 965 424 963 q 318 967 363 967 l 318 443 q 326 389 318 401 q 339 376 335 376 l 339 369 l 238 369 l 238 376 q 249 389 240 376 q 257 443 257 401 l 257 967 q 182 965 213 967 q 128 955 151 963 q 87 935 106 947 q 50 901 68 922 l 42 901 l 42 975 l 533 975 l 533 901 z "},"©":{"ha":1353,"x_min":42,"x_max":1311,"o":"m 676 1129 q 923 1079 807 1129 q 1125 944 1039 1029 q 1261 742 1211 858 q 1311 496 1311 626 q 1261 249 1311 364 q 1125 48 1211 133 q 923 -87 1039 -37 q 676 -137 807 -137 q 429 -87 544 -137 q 228 48 314 -37 q 92 249 142 133 q 42 496 42 364 q 92 742 42 626 q 228 944 142 858 q 429 1079 314 1029 q 676 1129 544 1129 m 676 -124 q 917 -75 804 -124 q 1113 58 1029 -26 q 1246 255 1197 142 q 1294 496 1294 368 q 1246 736 1294 624 q 1113 933 1197 849 q 917 1067 1029 1018 q 676 1115 804 1115 q 436 1067 549 1115 q 240 933 324 1018 q 107 736 156 849 q 58 496 58 624 q 107 255 58 368 q 240 58 156 142 q 436 -75 324 -26 q 676 -124 549 -124 m 346 433 q 338 569 328 501 q 381 694 347 638 q 467 794 414 751 q 590 854 521 836 q 689 866 640 868 q 783 849 738 864 q 869 808 829 835 q 940 746 908 782 l 918 660 l 910 660 q 853 745 886 706 q 781 812 821 785 q 692 849 740 839 q 592 846 644 860 q 488 787 529 829 q 426 689 447 744 q 402 571 404 633 q 415 451 400 508 q 483 315 438 369 q 587 233 529 261 q 707 202 644 204 q 825 223 769 200 q 922 294 881 246 q 976 414 963 342 l 985 413 q 922 281 969 333 q 812 203 875 229 q 676 178 749 176 q 538 208 604 179 q 421 292 472 236 q 346 433 369 349 z "},"®":{"ha":1353,"x_min":42,"x_max":1311,"o":"m 676 1129 q 923 1079 807 1129 q 1125 944 1039 1029 q 1261 742 1211 858 q 1311 496 1311 626 q 1261 249 1311 364 q 1125 48 1211 133 q 923 -87 1039 -37 q 676 -137 807 -137 q 429 -87 544 -137 q 228 48 314 -37 q 92 249 142 133 q 42 496 42 364 q 92 742 42 626 q 228 944 142 858 q 429 1079 314 1029 q 676 1129 544 1129 m 676 -124 q 917 -75 804 -124 q 1113 58 1029 -26 q 1246 255 1197 142 q 1294 496 1294 368 q 1246 736 1294 624 q 1113 933 1197 849 q 917 1067 1029 1018 q 676 1115 804 1115 q 436 1067 549 1115 q 239 933 324 1018 q 106 736 154 849 q 57 496 57 624 q 106 255 57 368 q 239 58 154 142 q 436 -75 324 -26 q 676 -124 549 -124 m 861 315 q 915 227 893 263 q 949 192 938 192 l 949 182 l 835 182 l 835 192 q 831 221 842 192 q 792 297 819 250 l 646 551 l 536 551 l 536 265 q 545 205 536 218 q 558 192 554 192 l 558 182 l 444 182 l 444 192 q 458 205 449 192 q 467 265 467 218 l 467 779 q 458 840 467 826 q 444 853 449 853 l 444 863 l 454 863 q 544 868 497 863 q 633 874 590 874 q 757 862 707 874 q 838 828 807 850 q 883 777 869 807 q 896 713 896 747 q 857 613 896 654 q 722 557 818 571 l 860 318 l 861 315 m 536 560 l 633 560 q 699 567 664 560 q 763 591 733 574 q 810 638 792 608 q 829 713 829 668 q 810 786 829 757 q 763 833 792 815 q 699 857 733 850 q 633 864 664 864 q 585 863 610 864 q 536 858 561 861 l 536 560 z "},"@":{"ha":1874,"x_min":35,"x_max":1833,"o":"m 1106 1371 q 1378 1318 1261 1361 q 1580 1210 1496 1275 q 1717 1065 1664 1146 q 1797 897 1769 983 q 1829 722 1825 810 q 1819 558 1833 635 q 1758 365 1797 447 q 1671 223 1719 282 q 1569 126 1622 164 q 1465 68 1515 89 q 1370 39 1414 47 q 1299 31 1326 31 q 1216 42 1256 31 q 1152 87 1176 54 q 1123 178 1128 119 q 1144 329 1118 236 q 1148 342 1146 336 q 1151 356 1150 349 q 1091 245 1125 300 q 1013 145 1057 190 q 914 69 968 100 q 794 32 860 39 q 649 47 715 24 q 539 122 583 69 q 476 252 494 174 q 474 433 457 331 q 543 640 492 546 q 665 805 594 735 q 817 915 735 875 q 982 957 900 954 q 1110 947 1053 958 q 1213 917 1168 936 q 1292 874 1258 897 q 1347 828 1325 850 q 1303 610 1325 715 q 1283 517 1293 565 q 1264 424 1274 469 q 1245 338 1254 379 q 1228 264 1236 296 q 1215 163 1213 204 q 1233 97 1218 122 q 1274 62 1249 72 q 1332 54 1300 51 q 1456 85 1386 58 q 1592 171 1525 111 q 1713 326 1658 231 q 1794 564 1768 422 q 1804 726 1808 640 q 1772 895 1800 811 q 1692 1056 1744 979 q 1558 1195 1640 1133 q 1363 1298 1476 1257 q 1101 1349 1250 1339 q 815 1327 960 1358 q 540 1220 669 1296 q 305 1024 410 1144 q 139 736 200 904 q 75 441 83 586 q 101 168 67 296 q 210 -66 135 40 q 400 -244 286 -172 q 685 -365 532 -329 q 988 -394 839 -400 q 1268 -343 1138 -387 q 1485 -221 1399 -299 l 1500 -243 q 1394 -319 1456 -286 q 1259 -374 1332 -351 q 1104 -409 1186 -397 q 936 -421 1022 -421 q 650 -385 793 -421 q 382 -271 507 -350 q 285 -194 338 -242 q 186 -80 233 -146 q 102 71 139 -14 q 50 258 65 156 q 47 483 35 361 q 111 744 60 604 q 274 1029 169 907 q 511 1231 378 1151 q 798 1347 644 1311 q 1106 1371 951 1382 m 840 71 q 948 115 897 78 q 1041 206 999 151 q 1118 326 1083 260 q 1176 456 1153 392 q 1201 569 1189 513 q 1224 672 1214 625 q 1244 778 1235 726 q 1226 820 1239 794 q 1188 870 1213 846 q 1124 914 1163 894 q 1028 940 1085 933 q 912 931 978 946 q 783 872 846 915 q 667 753 719 828 q 590 564 614 678 q 576 368 569 461 q 615 205 583 275 q 704 97 647 135 q 840 71 761 60 z "},"Y":{"ha":924,"x_min":42,"x_max":882,"o":"m 542 347 l 542 119 q 545 64 542 85 q 554 31 549 43 q 565 16 560 19 q 574 13 571 13 l 574 0 l 411 0 l 411 13 q 419 16 414 13 q 430 31 425 19 q 439 64 435 43 q 443 119 443 85 l 443 322 l 193 785 q 147 851 169 819 q 106 908 125 883 q 71 949 88 933 q 42 964 54 964 l 42 976 l 249 976 l 249 964 q 244 931 240 964 q 276 840 249 897 l 535 361 l 764 829 q 777 861 768 839 q 791 906 786 883 q 791 947 796 929 q 763 964 786 964 l 763 976 l 882 976 l 882 964 q 838 929 867 964 q 764 801 810 894 l 542 347 z "},"¥":{"ha":924,"x_min":42,"x_max":882,"o":"m 542 347 l 542 253 l 697 253 l 697 231 l 542 231 l 542 142 l 697 142 l 697 119 l 542 119 q 545 64 542 85 q 554 31 549 43 q 565 16 560 19 q 574 13 571 13 l 574 0 l 411 0 l 411 13 q 419 16 414 13 q 430 31 425 19 q 439 64 435 43 q 443 119 443 85 l 286 119 l 286 142 l 443 142 l 443 231 l 286 231 l 286 253 l 443 253 l 443 322 l 193 785 q 147 851 169 819 q 106 908 125 883 q 70 949 86 933 q 42 964 54 964 l 42 976 l 249 976 l 249 964 q 244 931 240 964 q 276 840 249 897 l 535 361 l 764 829 q 777 861 768 839 q 791 906 786 883 q 791 947 796 929 q 763 964 786 964 l 763 976 l 882 976 l 882 964 q 838 929 867 964 q 764 801 810 894 l 542 347 z "},"g":{"ha":828,"x_min":29,"x_max":793,"o":"m 47 254 q 39 389 29 322 q 81 513 49 456 q 167 611 114 569 q 288 671 219 653 q 423 680 357 690 q 546 638 489 669 l 592 650 q 688 683 654 667 q 735 712 721 699 q 751 733 750 725 q 753 743 753 742 l 753 744 l 765 747 l 778 696 l 781 683 l 793 632 l 781 629 q 750 647 771 642 q 701 653 732 653 q 619 643 669 654 l 561 629 q 650 545 613 596 q 706 431 688 494 q 715 301 724 365 q 676 181 706 236 q 597 83 646 125 q 483 19 547 40 q 419 3 456 8 q 343 -8 382 -3 q 266 -20 304 -14 q 199 -39 228 -26 q 156 -73 171 -51 q 144 -128 140 -94 q 176 -178 150 -167 q 240 -185 203 -190 q 319 -164 276 -181 q 402 -127 363 -147 q 474 -88 442 -107 q 518 -61 506 -69 q 608 -10 563 -33 q 689 17 653 13 q 760 -6 736 22 q 784 -76 783 -35 q 762 -160 785 -118 q 696 -222 739 -201 q 625 -237 663 -237 q 550 -226 588 -237 q 478 -195 513 -215 q 418 -150 443 -175 l 425 -143 q 547 -214 490 -194 q 644 -210 604 -233 q 681 -172 665 -197 q 705 -119 697 -147 q 708 -65 713 -90 q 684 -29 704 -40 q 625 -25 664 -18 q 524 -69 586 -32 q 463 -108 501 -83 q 376 -157 424 -132 q 280 -201 329 -182 q 188 -224 231 -221 q 115 -208 146 -226 q 74 -140 83 -190 q 95 -67 65 -93 q 170 -26 125 -40 q 265 -6 215 -11 q 347 3 314 -1 q 247 27 294 7 q 159 80 199 47 q 90 157 119 113 q 47 254 61 201 m 611 406 q 567 508 597 456 q 496 600 538 561 q 401 658 454 639 q 290 661 349 678 q 196 603 232 646 q 143 505 160 560 q 127 390 126 450 q 142 279 128 329 q 185 176 156 229 q 256 85 214 124 q 350 26 297 46 q 461 24 403 7 q 556 82 519 39 q 608 180 592 125 q 625 295 625 235 q 611 406 625 356 z "},"]":{"ha":433,"x_min":42,"x_max":392,"o":"m 392 1290 l 392 -517 l 42 -517 l 42 -489 l 279 -489 l 279 1264 l 42 1264 l 42 1290 l 392 1290 z "},"}":{"ha":479,"x_min":42,"x_max":438,"o":"m 42 1258 l 42 1272 q 290 1224 199 1272 q 392 1093 381 1175 q 387 957 401 1021 q 349 834 372 893 q 303 717 326 775 q 271 597 279 658 q 269 514 264 549 q 288 456 275 479 q 319 421 301 433 q 356 403 338 408 q 403 390 388 392 q 438 389 418 389 l 438 372 q 403 371 418 372 q 356 360 388 369 q 319 341 338 354 q 288 304 301 328 q 269 246 275 281 q 271 163 264 211 q 303 44 279 101 q 349 -74 326 -14 q 387 -197 372 -133 q 392 -332 401 -260 q 290 -462 381 -414 q 42 -511 199 -511 l 42 -497 q 137 -491 90 -497 q 221 -469 183 -485 q 282 -428 258 -454 q 308 -361 306 -401 q 288 -243 314 -300 q 231 -126 263 -186 q 174 -3 199 -67 q 156 136 149 61 q 186 246 161 201 q 244 318 211 290 q 312 360 276 346 q 374 381 347 374 q 312 402 347 388 q 244 444 276 417 q 186 517 211 472 q 156 626 161 561 q 162 721 151 676 q 190 807 172 765 q 231 888 208 849 q 272 965 253 926 q 301 1042 290 1004 q 308 1121 313 1081 q 282 1189 306 1163 q 221 1231 258 1215 q 137 1252 183 1246 q 42 1258 90 1258 z "},".":{"ha":208,"x_min":42,"x_max":167,"o":"m 104 121 q 149 103 131 121 q 167 60 167 85 q 149 17 167 35 q 104 0 131 0 q 60 17 79 0 q 42 60 42 35 q 60 103 42 85 q 104 121 79 121 z "},",":{"ha":207,"x_min":42,"x_max":165,"o":"m 104 121 q 148 103 131 121 q 165 60 165 85 q 141 -15 165 15 q 75 -46 117 -46 l 75 -33 q 103 -28 94 -33 q 114 -17 111 -24 q 117 1 118 -10 q 104 0 114 0 q 60 17 79 0 q 42 60 42 35 q 60 103 42 85 q 104 121 79 121 z "},")":{"ha":526,"x_min":42,"x_max":485,"o":"m 365 374 q 351 610 365 490 q 299 846 336 729 q 200 1071 263 963 q 42 1272 138 1179 l 53 1290 q 374 884 263 1115 q 485 374 485 653 q 374 -137 485 94 q 53 -543 263 -368 l 42 -526 q 200 -324 138 -433 q 299 -97 263 -214 q 351 139 336 19 q 365 374 365 258 z "},"%":{"ha":1335,"x_min":42,"x_max":1293,"o":"m 332 975 q 439 956 388 975 q 531 901 490 936 q 595 816 571 865 q 619 706 619 767 q 595 595 619 644 q 531 512 571 546 q 439 459 490 478 q 332 440 388 440 q 224 459 276 440 q 131 512 172 478 q 66 595 90 546 q 42 706 42 644 q 66 816 42 767 q 131 901 90 865 q 224 956 172 936 q 332 975 276 975 m 1006 535 q 1113 515 1061 535 q 1204 460 1164 496 q 1269 376 1244 425 q 1293 265 1293 326 q 1269 155 1293 204 q 1204 72 1244 106 q 1113 19 1164 38 q 1006 0 1061 0 q 898 19 950 0 q 806 72 846 38 q 741 155 765 106 q 717 265 717 204 q 741 376 717 326 q 806 460 765 425 q 898 515 846 496 q 1006 535 950 535 m 1006 17 q 1135 83 1085 17 q 1185 265 1185 150 q 1135 448 1185 381 q 1006 515 1085 515 q 933 498 965 515 q 876 448 900 481 q 840 369 853 415 q 826 265 826 322 q 876 83 826 150 q 1006 17 926 17 m 332 457 q 460 524 411 457 q 510 706 510 590 q 460 888 510 821 q 332 956 411 956 q 259 938 292 956 q 203 888 226 921 q 166 809 179 856 q 153 706 153 763 q 203 524 153 590 q 332 457 253 457 m 776 975 l 875 975 l 557 0 l 458 0 l 776 975 z "},"'":{"ha":113,"x_min":42,"x_max":71,"o":"m 71 863 l 42 863 l 42 992 l 71 992 l 71 863 z "},"\"":{"ha":164,"x_min":42,"x_max":122,"o":"m 71 863 l 42 863 l 42 992 l 71 992 l 71 863 m 122 863 l 93 863 l 93 992 l 122 992 l 122 863 z "},":":{"ha":208,"x_min":42,"x_max":167,"o":"m 104 121 q 149 103 131 121 q 167 60 167 85 q 149 17 167 35 q 104 0 131 0 q 60 17 79 0 q 42 60 42 35 q 60 103 42 85 q 104 121 79 121 m 104 689 q 149 671 131 689 q 167 628 167 653 q 149 585 167 603 q 104 568 131 568 q 60 585 79 568 q 42 628 42 603 q 60 671 42 653 q 104 689 79 689 z "},";":{"ha":208,"x_min":42,"x_max":167,"o":"m 104 689 q 149 671 131 689 q 167 628 167 653 q 149 585 167 603 q 104 568 131 568 q 60 585 79 568 q 42 628 42 603 q 60 671 42 653 q 104 689 79 689 m 104 121 q 148 103 131 121 q 165 60 165 85 q 141 -15 165 15 q 75 -46 117 -46 l 75 -33 q 103 -28 94 -33 q 114 -17 111 -24 q 117 1 118 -10 q 104 0 114 0 q 60 17 79 0 q 42 60 42 35 q 60 103 42 85 q 104 121 79 121 z "},"_":{"ha":721,"x_min":42,"x_max":679,"o":"m 679 -82 l 679 -96 l 42 -96 l 42 -82 l 679 -82 z "},"‚":{"ha":207,"x_min":42,"x_max":165,"o":"m 104 121 q 148 103 131 121 q 165 60 165 85 q 141 -15 165 15 q 75 -46 117 -46 l 75 -33 q 103 -28 94 -33 q 114 -17 111 -24 q 117 1 118 -10 q 104 0 114 0 q 60 17 79 0 q 42 60 42 35 q 60 103 42 85 q 104 121 79 121 z "},"„":{"ha":342,"x_min":42,"x_max":300,"o":"m 104 121 q 148 103 131 121 q 165 60 165 85 q 141 -15 165 15 q 75 -46 117 -46 l 75 -33 q 103 -28 94 -33 q 114 -17 111 -24 q 117 1 118 -10 q 104 0 114 0 q 60 17 79 0 q 42 60 42 35 q 60 103 42 85 q 104 121 79 121 m 239 121 q 283 103 265 121 q 300 60 300 85 q 276 -15 300 15 q 210 -46 251 -46 l 210 -33 q 238 -28 229 -33 q 249 -17 246 -24 q 251 1 253 -10 q 239 0 249 0 q 195 17 214 0 q 176 60 176 35 q 195 103 176 85 q 239 121 214 121 z "},"”":{"ha":342,"x_min":42,"x_max":300,"o":"m 104 972 q 148 954 131 972 q 165 911 165 936 q 141 836 165 867 q 75 806 117 806 l 75 818 q 103 823 94 818 q 114 835 111 828 q 117 853 118 842 q 104 851 114 851 q 60 869 79 851 q 42 911 42 886 q 60 954 42 936 q 104 972 79 972 m 239 972 q 283 954 265 972 q 300 911 300 936 q 276 836 300 867 q 210 806 251 806 l 210 818 q 238 823 229 818 q 249 835 246 828 q 251 853 253 842 q 239 851 249 851 q 195 869 214 851 q 176 911 176 886 q 195 954 176 936 q 239 972 214 972 z "},"’":{"ha":207,"x_min":42,"x_max":165,"o":"m 104 972 q 148 954 131 972 q 165 911 165 936 q 141 836 165 867 q 75 806 117 806 l 75 818 q 103 823 94 818 q 114 835 111 828 q 117 853 118 842 q 104 851 114 851 q 60 869 79 851 q 42 911 42 886 q 60 954 42 936 q 104 972 79 972 z "},"“":{"ha":342,"x_min":42,"x_max":300,"o":"m 238 851 q 194 869 211 851 q 176 913 176 888 q 201 988 176 957 q 267 1018 225 1018 l 267 1006 q 238 1000 247 1006 q 226 988 229 994 q 225 971 222 981 q 238 972 228 972 q 281 955 263 972 q 300 913 300 938 q 281 869 300 888 q 238 851 263 851 m 103 851 q 59 869 76 851 q 42 913 42 888 q 66 988 42 957 q 132 1018 90 1018 l 132 1006 q 103 1000 113 1006 q 92 988 94 994 q 90 971 88 981 q 103 972 93 972 q 147 955 128 972 q 165 913 165 938 q 147 869 165 888 q 103 851 128 851 z "},"‘":{"ha":207,"x_min":42,"x_max":165,"o":"m 103 851 q 59 869 76 851 q 42 913 42 888 q 66 988 42 957 q 132 1018 90 1018 l 132 1006 q 103 1000 113 1006 q 92 988 94 994 q 90 971 88 981 q 103 972 93 972 q 147 955 128 972 q 165 913 165 938 q 147 869 165 888 q 103 851 128 851 z "},"…":{"ha":825,"x_min":42,"x_max":783,"o":"m 104 121 q 149 103 131 121 q 167 60 167 85 q 149 17 167 35 q 104 0 131 0 q 60 17 79 0 q 42 60 42 35 q 60 103 42 85 q 104 121 79 121 m 406 121 q 450 103 432 121 q 468 60 468 85 q 450 17 468 35 q 406 0 432 0 q 362 17 381 0 q 343 60 343 35 q 362 103 343 85 q 406 121 381 121 m 721 121 q 765 103 747 121 q 783 60 783 85 q 765 17 783 35 q 721 0 747 0 q 677 17 696 0 q 658 60 658 35 q 677 103 658 85 q 721 121 696 121 z "},"¡":{"ha":208,"x_min":42,"x_max":167,"o":"m 156 0 l 121 728 l 107 728 l 74 0 l 156 0 m 104 854 q 60 872 79 854 q 42 914 42 889 q 60 956 42 939 q 104 974 79 974 q 149 956 131 974 q 167 914 167 939 q 149 872 167 889 q 104 854 131 854 z "},"¿":{"ha":604,"x_min":42,"x_max":563,"o":"m 561 174 q 537 282 558 239 q 485 360 515 325 q 420 425 454 394 q 356 496 386 456 q 307 590 326 536 q 288 726 288 644 l 279 726 q 293 594 279 650 q 327 493 307 538 q 372 413 347 449 q 416 342 396 378 q 450 265 436 306 q 464 172 464 225 q 454 114 464 139 q 428 72 444 89 q 390 44 411 54 q 346 28 368 33 q 231 22 285 13 q 138 60 178 31 q 76 140 99 90 q 53 254 53 189 l 42 254 q 66 126 42 178 q 133 45 90 75 q 232 6 175 15 q 356 1 289 -4 q 428 17 390 4 q 495 52 465 31 q 544 105 525 74 q 561 174 563 136 m 292 853 q 247 870 265 853 q 228 913 228 888 q 247 955 228 938 q 292 972 265 972 q 335 955 317 972 q 353 913 353 938 q 335 870 353 888 q 292 853 317 853 z "},"²":{"ha":756,"x_min":42,"x_max":714,"o":"m 333 976 q 431 968 381 978 q 526 935 482 958 q 603 875 571 913 q 646 786 635 838 q 647 688 656 735 q 613 594 639 640 q 543 499 586 547 q 442 396 500 450 q 281 242 357 314 q 119 100 206 171 l 518 100 q 553 103 528 100 q 606 117 578 107 q 660 142 633 126 q 700 182 686 158 l 703 188 l 714 181 l 618 3 l 615 3 l 614 0 l 42 0 l 42 49 q 242 220 150 132 q 431 408 335 308 q 497 497 472 451 q 535 585 522 542 q 549 671 547 629 q 549 750 551 713 q 528 827 544 789 q 485 895 513 865 q 419 944 458 925 q 333 963 381 963 q 225 939 269 963 q 153 883 181 915 q 115 815 126 850 q 103 758 103 781 l 93 758 q 110 834 93 796 q 159 904 128 872 q 235 956 190 936 q 333 976 279 976 z "},"³":{"ha":788,"x_min":42,"x_max":749,"o":"m 411 976 q 509 965 458 978 q 601 927 560 953 q 667 860 642 901 q 688 761 692 818 q 663 680 685 715 q 607 615 642 644 q 526 563 572 586 q 429 519 481 540 q 529 522 476 526 q 637 493 592 517 q 709 431 682 469 q 742 342 736 393 q 735 232 749 292 q 688 137 722 181 q 606 60 654 93 q 496 10 557 28 q 367 -8 435 -8 q 276 1 324 -8 q 183 28 228 10 q 101 75 139 47 q 42 139 64 103 l 51 146 q 101 92 69 118 q 174 48 132 67 q 270 20 217 29 q 388 17 324 11 q 544 78 482 25 q 629 228 606 132 q 639 322 642 276 q 620 403 636 367 q 574 465 604 440 q 503 500 544 490 q 449 507 474 507 q 401 502 425 507 q 351 490 376 497 q 297 475 326 483 l 292 488 q 394 522 344 501 q 485 571 444 542 q 553 640 525 600 q 593 732 582 679 q 593 827 603 785 q 558 900 583 869 q 495 947 533 931 q 411 963 457 963 q 324 949 365 963 q 250 910 282 936 q 199 847 218 885 q 181 758 181 808 l 171 758 q 178 825 171 788 q 212 897 186 863 q 285 953 238 931 q 411 976 332 976 z "},"¹":{"ha":289,"x_min":42,"x_max":247,"o":"m 47 882 l 42 893 l 189 975 l 215 975 l 215 119 q 219 65 215 86 q 228 32 222 43 q 239 17 233 21 q 247 13 244 13 l 247 0 l 83 0 l 83 13 q 92 17 86 13 q 102 32 97 21 q 111 65 107 43 q 115 119 115 86 l 115 806 q 113 845 115 826 q 102 876 110 864 q 82 890 94 888 q 50 883 69 893 l 47 882 z "},"´":{"ha":371,"x_min":42,"x_max":333,"o":"m 242 944 q 290 972 271 971 q 321 957 308 974 q 326 923 333 942 q 286 883 319 904 q 263 869 278 878 q 230 850 249 861 q 191 827 211 839 q 150 803 171 815 q 47 743 103 775 l 42 751 q 126 835 86 796 q 193 899 160 868 q 242 944 226 931 z "},"±":{"ha":476,"x_min":42,"x_max":435,"o":"m 246 68 l 231 68 l 231 257 l 42 257 l 42 271 l 231 271 l 231 461 l 246 461 l 246 271 l 435 271 l 435 257 l 246 257 l 246 68 m 435 14 l 435 0 l 42 0 l 42 14 l 435 14 z "},"·":{"ha":208,"x_min":42,"x_max":167,"o":"m 104 603 q 149 585 131 603 q 167 542 167 567 q 149 499 167 517 q 104 482 131 482 q 60 499 79 482 q 42 542 42 517 q 60 585 42 567 q 104 603 79 603 z "},"º":{"ha":765,"x_min":36,"x_max":729,"o":"m 54 542 q 46 676 36 610 q 88 799 56 743 q 174 897 121 856 q 294 957 226 939 q 429 965 363 975 q 553 923 496 956 q 651 838 610 890 q 711 717 693 785 q 719 582 729 649 q 677 459 710 515 q 592 361 644 403 q 471 301 539 319 q 336 293 403 283 q 213 335 269 303 q 114 421 156 368 q 54 542 72 474 m 617 692 q 574 794 603 742 q 503 885 544 846 q 408 944 461 925 q 297 947 356 963 q 203 890 239 932 q 151 792 168 847 q 135 677 135 738 q 149 567 135 617 q 192 464 163 517 q 263 372 221 411 q 357 314 304 333 q 468 311 410 294 q 563 369 526 326 q 615 466 599 411 q 631 581 632 521 q 617 692 631 642 z "},"¨":{"ha":483,"x_min":42,"x_max":442,"o":"m 104 972 q 149 954 131 972 q 167 911 167 936 q 149 869 167 886 q 104 851 131 851 q 60 869 79 851 q 42 911 42 886 q 60 954 42 936 q 104 972 79 972 m 379 972 q 424 954 406 972 q 442 911 442 936 q 424 869 442 886 q 379 851 406 851 q 335 869 354 851 q 317 911 317 886 q 335 954 317 936 q 379 972 354 972 z "},"ª":{"ha":718,"x_min":36,"x_max":676,"o":"m 676 0 l 549 0 l 549 400 q 545 483 549 438 q 528 569 542 529 q 485 637 514 610 q 407 664 457 664 q 320 649 357 664 q 261 615 283 635 q 232 576 239 596 q 235 546 225 557 q 253 535 240 539 q 283 529 267 532 q 319 524 300 526 q 354 514 338 521 q 427 456 400 496 q 465 368 454 417 q 474 268 476 319 q 454 178 471 217 q 360 44 422 97 q 224 -6 297 -8 q 111 33 154 -3 q 52 120 68 68 q 49 233 36 172 q 102 345 61 293 q 215 433 143 397 q 389 474 286 469 q 399 475 392 475 q 350 504 378 493 q 296 517 325 514 q 241 518 267 519 q 195 514 215 517 q 169 510 175 511 q 181 559 165 531 q 228 613 197 588 q 305 656 260 639 q 407 674 350 674 q 519 653 474 674 q 593 596 565 632 q 633 509 621 560 q 644 400 644 458 l 644 119 q 648 64 644 85 q 657 31 651 43 q 668 16 663 19 q 676 13 674 13 l 676 0 m 408 464 q 303 450 353 464 q 217 407 254 436 q 159 333 181 378 q 138 229 138 289 q 144 171 138 200 q 165 117 150 142 q 201 74 179 92 q 256 50 224 56 q 318 53 289 43 q 372 81 347 63 q 416 126 397 100 q 446 181 435 153 q 463 252 458 214 q 464 328 468 290 q 446 401 460 367 q 408 464 432 436 z "},"¾":{"ha":1724,"x_min":42,"x_max":1682,"o":"m 411 976 q 509 965 458 978 q 601 927 560 953 q 667 860 642 901 q 688 761 692 818 q 663 680 685 715 q 607 615 642 644 q 526 563 572 586 q 429 519 481 540 q 529 522 476 526 q 637 493 592 517 q 709 431 682 469 q 742 342 736 393 q 735 232 749 292 q 688 137 722 181 q 606 60 654 93 q 496 10 557 28 q 367 -8 435 -8 q 276 1 324 -8 q 183 28 228 10 q 101 75 139 47 q 42 139 64 103 l 51 146 q 101 92 69 118 q 174 48 132 67 q 270 20 217 29 q 388 17 324 11 q 544 78 482 25 q 629 228 606 132 q 639 322 642 276 q 620 403 636 367 q 574 465 604 440 q 503 500 544 490 q 449 507 474 507 q 401 502 425 507 q 351 490 376 497 q 297 475 326 483 l 292 488 q 394 522 344 501 q 485 571 444 542 q 553 640 525 600 q 593 732 582 679 q 593 827 603 785 q 558 900 583 869 q 495 947 533 931 q 411 963 457 963 q 324 949 365 963 q 250 910 282 936 q 199 847 218 885 q 181 758 181 808 l 171 758 q 178 825 171 788 q 212 897 186 863 q 285 953 238 931 q 411 976 332 976 m 1042 974 l 1071 974 l 754 0 l 725 0 l 1042 974 m 1493 242 l 1493 96 q 1496 53 1493 69 q 1508 27 1499 36 q 1533 15 1517 18 q 1576 11 1550 11 l 1603 11 l 1603 0 l 1293 0 l 1293 11 l 1321 11 q 1363 15 1347 11 q 1388 27 1379 18 q 1400 53 1397 36 q 1403 96 1403 69 l 1403 242 l 929 242 l 929 257 l 1481 967 l 1493 967 l 1493 257 l 1682 257 l 1682 242 l 1493 242 m 1403 257 l 1403 840 l 951 257 l 1403 257 z "},"½":{"ha":1324,"x_min":42,"x_max":1282,"o":"m 47 882 l 42 893 l 189 975 l 215 975 l 215 119 q 219 65 215 86 q 228 32 222 43 q 239 17 233 21 q 247 13 244 13 l 247 0 l 83 0 l 83 13 q 92 17 86 13 q 102 32 97 21 q 111 65 107 43 q 115 119 115 86 l 115 806 q 113 845 115 826 q 102 876 110 864 q 82 890 94 888 q 50 883 69 893 l 47 882 m 629 974 l 658 974 l 342 0 l 313 0 l 629 974 m 901 976 q 999 968 949 978 q 1094 935 1050 958 q 1171 875 1139 913 q 1214 786 1203 838 q 1215 688 1224 735 q 1181 594 1207 640 q 1111 499 1154 547 q 1010 396 1068 450 q 849 242 925 314 q 688 100 774 171 l 1086 100 q 1121 103 1096 100 q 1174 117 1146 107 q 1228 142 1201 126 q 1268 182 1254 158 l 1271 188 l 1282 181 l 1186 3 l 1183 3 l 1182 0 l 610 0 l 610 49 q 810 220 718 132 q 999 408 903 308 q 1065 497 1040 451 q 1103 585 1090 542 q 1117 671 1115 629 q 1117 750 1119 713 q 1097 827 1113 789 q 1053 895 1081 865 q 988 944 1026 925 q 901 963 949 963 q 793 939 838 963 q 722 883 749 915 q 683 815 694 850 q 671 758 671 781 l 661 758 q 678 834 661 796 q 727 904 696 872 q 803 956 758 936 q 901 976 847 976 z "},"¼":{"ha":1225,"x_min":42,"x_max":1183,"o":"m 47 882 l 42 893 l 189 975 l 215 975 l 215 119 q 219 65 215 86 q 228 32 222 43 q 239 17 233 21 q 247 13 244 13 l 247 0 l 83 0 l 83 13 q 92 17 86 13 q 102 32 97 21 q 111 65 107 43 q 115 119 115 86 l 115 806 q 113 845 115 826 q 102 876 110 864 q 82 890 94 888 q 50 883 69 893 l 47 882 m 585 974 l 614 974 l 297 0 l 268 0 l 585 974 m 994 242 l 994 96 q 997 53 994 69 q 1009 27 1000 36 q 1035 15 1018 18 q 1078 11 1051 11 l 1104 11 l 1104 0 l 794 0 l 794 11 l 822 11 q 865 15 849 11 q 890 27 881 18 q 901 53 899 36 q 904 96 904 69 l 904 242 l 431 242 l 431 257 l 982 967 l 994 967 l 994 257 l 1183 257 l 1183 242 l 994 242 m 904 257 l 904 840 l 453 257 l 904 257 z "},"˛":{"ha":242,"x_min":40,"x_max":200,"o":"m 121 0 q 93 -26 107 -8 q 71 -66 79 -44 q 62 -108 63 -87 q 75 -143 61 -129 q 103 -153 85 -154 q 140 -144 121 -151 q 175 -129 158 -137 q 200 -117 192 -121 l 200 -174 q 131 -194 168 -189 q 67 -174 93 -200 q 43 -130 46 -154 q 49 -82 40 -106 q 73 -37 57 -58 q 107 0 89 -15 l 121 0 z "},"¸":{"ha":258,"x_min":42,"x_max":217,"o":"m 217 -118 q 198 -168 217 -153 q 152 -187 179 -183 q 94 -185 125 -190 q 42 -172 64 -181 l 47 -118 q 87 -135 61 -125 q 139 -151 113 -146 q 185 -151 165 -157 q 204 -121 204 -146 q 193 -102 204 -110 q 167 -90 182 -94 q 136 -84 151 -86 q 113 -82 121 -82 l 136 0 l 151 0 l 136 -50 q 217 -118 217 -58 z "},"¦":{"ha":99,"x_min":42,"x_max":57,"o":"m 57 554 l 42 554 l 42 978 l 57 978 l 57 554 m 57 8 l 42 8 l 42 432 l 57 432 l 57 8 z "},"×":{"ha":372,"x_min":42,"x_max":331,"o":"m 53 344 l 42 356 l 175 489 l 42 622 l 51 632 l 185 499 l 319 633 l 331 622 l 196 488 l 329 354 l 319 344 l 186 478 l 53 344 z "},"⁄":{"ha":429,"x_min":42,"x_max":388,"o":"m 358 974 l 388 974 l 71 0 l 42 0 l 358 974 z "},"˘":{"ha":401,"x_min":42,"x_max":360,"o":"m 360 974 q 201 835 343 835 q 42 974 58 835 l 76 974 q 201 874 101 874 q 325 974 300 874 l 360 974 z "},"˙":{"ha":208,"x_min":42,"x_max":167,"o":"m 104 972 q 149 954 131 972 q 167 911 167 936 q 149 869 167 886 q 104 851 131 851 q 60 869 79 851 q 42 911 42 886 q 60 954 42 936 q 104 972 79 972 z "},"˚":{"ha":301,"x_min":42,"x_max":260,"o":"m 150 1000 q 226 972 193 1000 q 260 899 260 944 q 226 826 260 853 q 150 799 193 799 q 75 826 108 799 q 42 899 42 853 q 75 972 42 944 q 150 1000 108 1000 m 150 804 q 199 829 181 804 q 218 899 218 854 q 199 967 218 942 q 150 993 181 993 q 102 967 121 993 q 83 899 83 942 q 102 829 83 854 q 150 804 121 804 z "},"˝":{"ha":558,"x_min":42,"x_max":521,"o":"m 242 944 q 290 972 271 971 q 321 957 308 974 q 326 923 333 942 q 286 883 319 904 q 263 869 278 878 q 230 850 249 861 q 191 827 211 839 q 150 803 171 815 q 47 743 103 775 l 42 751 q 126 835 86 796 q 193 899 160 868 q 242 944 226 931 m 429 944 q 477 972 458 971 q 508 957 496 974 q 514 923 521 942 q 474 883 507 904 q 451 869 465 878 q 417 850 436 861 q 378 827 399 839 q 338 803 358 815 q 235 743 290 775 l 229 751 q 314 835 274 796 q 381 899 347 868 q 429 944 414 931 z "},"¤":{"ha":769,"x_min":42,"x_max":728,"o":"m 139 660 l 42 756 l 122 838 l 219 740 q 385 790 293 790 q 550 740 476 790 l 647 838 l 728 756 l 631 660 q 681 496 681 583 q 631 331 681 407 l 728 236 l 647 153 l 550 250 q 385 200 476 200 q 219 250 293 200 l 122 153 l 42 236 l 139 331 q 89 496 89 407 q 139 660 89 583 m 203 496 q 256 367 203 421 q 383 314 310 314 q 511 367 458 314 q 564 496 564 421 q 511 623 564 569 q 383 676 458 676 q 256 623 310 676 q 203 496 203 569 z "},"ƒ":{"ha":497,"x_min":42,"x_max":456,"o":"m 226 121 q 230 65 226 86 q 239 33 233 44 q 250 17 244 21 q 258 14 256 14 l 258 1 l 99 1 l 99 14 q 107 17 101 14 q 117 33 113 21 q 126 65 122 44 q 131 121 131 86 l 131 575 q 106 635 131 610 q 42 660 82 660 l 42 669 l 131 669 l 225 671 q 158 692 192 679 q 99 726 125 706 q 58 772 74 746 q 42 833 42 799 q 56 900 42 871 q 92 950 69 929 q 146 984 115 971 q 210 1001 176 997 q 274 1004 238 1007 q 339 996 310 1001 q 451 957 397 983 l 456 956 l 432 806 l 422 807 q 421 818 422 814 q 400 868 418 840 q 354 924 382 896 q 295 969 326 950 q 235 993 264 989 q 223 993 228 993 q 211 992 218 993 q 175 971 189 988 q 154 932 161 954 q 146 885 147 910 q 147 843 144 861 q 165 776 151 807 q 199 721 178 744 q 251 683 221 697 q 319 669 282 669 l 442 669 l 442 660 l 226 660 l 226 121 z "},"Š":{"ha":763,"x_min":42,"x_max":721,"o":"m 442 -11 q 307 10 371 -11 q 191 63 243 31 q 101 135 139 96 q 42 210 63 174 l 75 333 l 86 333 q 185 167 129 240 q 237 105 208 135 q 297 52 265 75 q 365 15 329 29 q 442 0 401 0 q 501 8 464 0 q 575 37 539 17 q 637 91 611 57 q 663 175 663 125 q 638 267 663 225 q 576 342 614 308 q 489 401 538 375 q 393 443 440 426 q 289 488 339 463 q 200 549 239 514 q 138 631 161 585 q 115 736 115 678 q 138 840 115 793 q 198 919 160 886 q 287 969 236 951 q 394 988 338 988 q 517 973 465 988 q 608 933 569 958 q 672 876 646 908 q 719 807 699 843 l 686 685 l 674 685 q 613 829 650 765 q 575 882 596 856 q 527 929 554 908 q 467 963 500 950 q 394 975 433 975 q 333 967 371 975 q 260 938 296 958 q 199 884 225 918 q 172 800 172 850 q 197 708 172 750 q 259 633 221 667 q 346 575 297 600 q 443 533 394 550 q 547 488 497 514 q 636 426 597 461 q 698 344 675 390 q 721 240 721 299 q 699 137 721 183 q 638 58 676 90 q 548 7 599 25 q 442 -11 497 -11 m 650 1261 l 379 1036 l 111 1261 l 117 1272 l 379 1128 l 643 1272 l 650 1261 z "},"š":{"ha":617,"x_min":35,"x_max":586,"o":"m 515 419 q 499 483 515 449 q 456 549 483 517 q 392 608 428 582 q 319 645 357 633 q 242 651 281 657 q 174 613 204 644 q 146 544 144 583 q 179 472 147 504 q 249 425 203 449 q 372 382 296 401 q 468 346 429 367 q 532 301 507 325 q 579 211 572 261 q 558 111 586 161 q 526 67 544 88 q 485 35 507 47 q 435 9 463 19 q 379 -8 408 -1 q 321 -16 350 -14 q 265 -17 292 -18 q 160 5 215 -12 q 46 58 106 22 l 35 65 l 68 219 l 79 217 q 85 185 76 204 q 106 144 93 165 q 132 106 118 124 q 156 81 146 89 q 217 37 183 53 q 286 14 250 21 q 355 8 321 7 q 419 18 389 10 q 450 28 436 22 q 479 43 464 35 q 504 64 493 53 q 522 88 514 75 q 532 114 529 100 q 529 154 535 136 q 497 199 519 181 q 443 231 474 218 q 377 254 413 244 q 307 275 342 264 q 190 331 240 294 q 116 413 139 367 q 102 513 93 460 q 165 619 111 565 q 260 666 201 657 q 380 666 319 675 q 490 633 440 657 q 557 578 539 608 l 522 419 l 515 419 m 578 983 l 307 758 l 39 983 l 44 994 l 307 850 l 571 994 l 578 983 z "},"Ÿ":{"ha":924,"x_min":42,"x_max":882,"o":"m 542 347 l 542 119 q 545 64 542 85 q 554 31 549 43 q 565 16 560 19 q 574 13 571 13 l 574 0 l 411 0 l 411 13 q 419 16 414 13 q 430 31 425 19 q 439 64 435 43 q 443 119 443 85 l 443 322 l 193 785 q 147 851 169 819 q 106 908 125 883 q 71 949 88 933 q 42 964 54 964 l 42 976 l 249 976 l 249 964 q 244 931 240 964 q 276 840 249 897 l 535 361 l 764 829 q 777 861 768 839 q 791 906 786 883 q 791 947 796 929 q 763 964 786 964 l 763 976 l 882 976 l 882 964 q 838 929 867 964 q 764 801 810 894 l 542 347 m 324 1250 q 368 1232 350 1250 q 386 1189 386 1214 q 368 1147 386 1164 q 324 1129 350 1129 q 280 1147 299 1129 q 261 1189 261 1164 q 280 1232 261 1214 q 324 1250 299 1250 m 599 1250 q 643 1232 625 1250 q 661 1189 661 1214 q 643 1147 661 1164 q 599 1129 625 1129 q 555 1147 574 1129 q 536 1189 536 1164 q 555 1232 536 1214 q 599 1250 574 1250 z "}," ":{"ha":0,"x_min":0,"x_max":0,"o":""},"¯":{"ha":1157,"x_min":0,"x_max":0,"o":""},"À":{"ha":871,"x_min":42,"x_max":829,"o":"m 639 182 q 598 272 624 228 q 538 350 572 315 q 460 408 503 385 q 365 436 417 431 q 325 435 346 438 q 285 426 304 433 q 249 407 265 419 q 226 374 233 394 l 158 171 q 131 52 131 92 q 160 13 132 13 l 160 0 l 42 0 l 42 13 q 61 20 50 13 q 85 47 72 28 q 114 97 99 65 q 146 175 129 128 l 393 899 l 367 975 l 472 975 l 738 201 q 765 128 751 163 q 790 67 778 93 q 811 27 801 42 q 829 13 821 13 l 829 0 l 667 0 l 667 13 q 672 51 674 13 q 650 149 669 90 l 639 182 m 242 415 q 300 444 265 438 q 365 447 335 450 q 504 394 444 440 q 604 285 564 349 l 400 879 l 242 415 m 383 1222 q 431 1177 399 1208 q 497 1113 463 1146 q 583 1029 536 1074 l 578 1021 q 475 1081 522 1053 q 434 1105 454 1093 q 395 1128 414 1117 q 362 1147 376 1139 q 339 1161 347 1156 q 299 1201 306 1182 q 304 1235 292 1219 q 335 1250 317 1251 q 383 1222 354 1249 z "},"Á":{"ha":871,"x_min":42,"x_max":829,"o":"m 639 182 q 598 272 624 228 q 538 350 572 315 q 460 408 503 385 q 365 436 417 431 q 325 435 346 438 q 285 426 304 433 q 249 407 265 419 q 226 374 233 394 l 158 171 q 131 52 131 92 q 160 13 132 13 l 160 0 l 42 0 l 42 13 q 61 20 50 13 q 85 47 72 28 q 114 97 99 65 q 146 175 129 128 l 393 899 l 367 975 l 472 975 l 738 201 q 765 128 751 163 q 790 67 778 93 q 811 27 801 42 q 829 13 821 13 l 829 0 l 667 0 l 667 13 q 672 51 674 13 q 650 149 669 90 l 639 182 m 242 415 q 300 444 265 438 q 365 447 335 450 q 504 394 444 440 q 604 285 564 349 l 400 879 l 242 415 m 488 1222 q 535 1250 517 1249 q 567 1235 554 1251 q 572 1201 579 1219 q 532 1161 565 1182 q 509 1147 524 1156 q 476 1128 494 1139 q 437 1105 457 1117 q 396 1081 417 1093 q 293 1021 349 1053 l 288 1029 q 372 1113 332 1074 q 439 1177 406 1146 q 488 1222 472 1208 z "},"Â":{"ha":871,"x_min":42,"x_max":829,"o":"m 639 182 q 598 272 624 228 q 538 350 572 315 q 460 408 503 385 q 365 436 417 431 q 325 435 346 438 q 285 426 304 433 q 249 407 265 419 q 226 374 233 394 l 158 171 q 131 52 131 92 q 160 13 132 13 l 160 0 l 42 0 l 42 13 q 61 20 50 13 q 85 47 72 28 q 114 97 99 65 q 146 175 129 128 l 393 899 l 367 975 l 472 975 l 738 201 q 765 128 751 163 q 790 67 778 93 q 811 27 801 42 q 829 13 821 13 l 829 0 l 667 0 l 667 13 q 672 51 674 13 q 650 149 669 90 l 639 182 m 242 415 q 300 444 265 438 q 365 447 335 450 q 504 394 444 440 q 604 285 564 349 l 400 879 l 242 415 m 706 1028 l 700 1017 l 436 1160 l 172 1017 l 165 1028 l 436 1253 l 706 1028 z "},"Ã":{"ha":871,"x_min":42,"x_max":829,"o":"m 639 182 q 598 272 624 228 q 538 350 572 315 q 460 408 503 385 q 365 436 417 431 q 325 435 346 438 q 285 426 304 433 q 249 407 265 419 q 226 374 233 394 l 158 171 q 131 52 131 92 q 160 13 132 13 l 160 0 l 42 0 l 42 13 q 61 20 50 13 q 85 47 72 28 q 114 97 99 65 q 146 175 129 128 l 393 899 l 367 975 l 472 975 l 738 201 q 765 128 751 163 q 790 67 778 93 q 811 27 801 42 q 829 13 821 13 l 829 0 l 667 0 l 667 13 q 672 51 674 13 q 650 149 669 90 l 639 182 m 242 415 q 300 444 265 438 q 365 447 335 450 q 504 394 444 440 q 604 285 564 349 l 400 879 l 242 415 m 586 1247 q 550 1190 576 1217 q 493 1164 524 1164 q 435 1180 464 1164 q 381 1206 407 1196 q 333 1209 356 1215 q 293 1157 311 1203 l 285 1160 q 296 1183 290 1171 q 308 1203 301 1193 q 325 1221 315 1214 q 347 1233 333 1226 q 378 1242 360 1240 q 421 1240 397 1244 q 474 1219 444 1236 q 515 1202 499 1206 q 543 1203 532 1199 q 563 1221 554 1208 q 579 1250 571 1233 l 586 1247 z "},"Ä":{"ha":871,"x_min":42,"x_max":829,"o":"m 639 182 q 598 272 624 228 q 538 350 572 315 q 460 408 503 385 q 365 436 417 431 q 325 435 346 438 q 285 426 304 433 q 249 407 265 419 q 226 374 233 394 l 158 171 q 131 52 131 92 q 160 13 132 13 l 160 0 l 42 0 l 42 13 q 61 20 50 13 q 85 47 72 28 q 114 97 99 65 q 146 175 129 128 l 393 899 l 367 975 l 472 975 l 738 201 q 765 128 751 163 q 790 67 778 93 q 811 27 801 42 q 829 13 821 13 l 829 0 l 667 0 l 667 13 q 672 51 674 13 q 650 149 669 90 l 639 182 m 242 415 q 300 444 265 438 q 365 447 335 450 q 504 394 444 440 q 604 285 564 349 l 400 879 l 242 415 m 297 1250 q 342 1232 324 1250 q 360 1189 360 1214 q 342 1147 360 1164 q 297 1129 324 1129 q 253 1147 272 1129 q 235 1189 235 1164 q 253 1232 235 1214 q 297 1250 272 1250 m 572 1250 q 617 1232 599 1250 q 635 1189 635 1214 q 617 1147 635 1164 q 572 1129 599 1129 q 528 1147 547 1129 q 510 1189 510 1164 q 528 1232 510 1214 q 572 1250 547 1250 z "},"Å":{"ha":871,"x_min":42,"x_max":829,"o":"m 639 182 q 598 272 624 228 q 538 350 572 315 q 460 408 503 385 q 365 436 417 431 q 325 435 346 438 q 285 426 304 433 q 249 407 265 419 q 226 374 233 394 l 158 171 q 131 52 131 92 q 160 13 132 13 l 160 0 l 42 0 l 42 13 q 61 20 50 13 q 85 47 72 28 q 114 97 99 65 q 146 175 129 128 l 393 899 l 367 975 l 472 975 l 738 201 q 765 128 751 163 q 790 67 778 93 q 811 27 801 42 q 829 13 821 13 l 829 0 l 667 0 l 667 13 q 672 51 674 13 q 650 149 669 90 l 639 182 m 242 415 q 300 444 265 438 q 365 447 335 450 q 504 394 444 440 q 604 285 564 349 l 400 879 l 242 415 m 435 1278 q 511 1250 478 1278 q 544 1176 544 1222 q 511 1103 544 1131 q 435 1076 478 1076 q 360 1103 393 1076 q 326 1176 326 1131 q 360 1250 326 1222 q 435 1278 393 1278 m 435 1082 q 484 1107 465 1082 q 503 1176 503 1132 q 484 1245 503 1219 q 435 1271 465 1271 q 387 1245 406 1271 q 368 1176 368 1219 q 387 1107 368 1132 q 435 1082 406 1082 z "},"Ç":{"ha":1017,"x_min":33,"x_max":975,"o":"m 60 363 q 47 558 33 461 q 108 738 61 656 q 233 880 156 819 q 408 967 310 940 q 550 983 479 986 q 686 960 621 981 q 809 901 751 939 q 911 810 867 863 l 879 688 l 867 688 q 788 809 835 751 q 682 906 740 867 q 555 960 624 944 q 411 956 486 975 q 263 871 321 932 q 174 730 204 810 q 140 560 143 650 q 158 389 136 469 q 256 194 189 272 q 405 76 322 117 q 577 33 488 36 q 746 63 667 29 q 884 165 825 96 q 964 336 943 233 l 975 333 q 885 145 953 221 q 727 33 818 69 q 533 -3 636 -4 q 335 40 429 -1 q 166 161 240 81 q 60 363 92 242 m 596 -118 q 577 -168 596 -153 q 531 -187 558 -183 q 474 -185 504 -190 q 421 -172 443 -181 l 426 -118 q 466 -135 440 -125 q 518 -151 492 -146 q 564 -151 544 -157 q 583 -121 583 -146 q 572 -102 583 -110 q 546 -90 561 -94 q 515 -84 531 -86 q 492 -82 500 -82 l 515 0 l 531 0 l 515 -50 q 596 -118 596 -58 z "},"È":{"ha":1018,"x_min":33,"x_max":976,"o":"m 60 361 q 47 557 33 460 q 109 736 61 654 q 233 878 157 818 q 408 965 310 939 q 550 982 479 985 q 687 958 621 979 q 810 899 753 938 q 913 808 868 861 l 879 686 l 867 686 q 788 808 835 750 q 682 904 740 865 q 555 958 624 943 q 411 954 486 974 q 294 896 344 936 q 211 802 244 856 q 160 685 178 749 q 140 556 142 621 l 168 556 q 334 563 251 556 q 483 582 417 571 q 633 608 561 593 l 646 608 l 646 490 l 633 490 q 483 517 561 504 q 334 535 417 526 q 168 543 251 543 l 139 543 q 143 464 139 503 q 158 388 147 425 q 256 193 189 271 q 405 75 322 115 q 577 31 488 35 q 746 61 667 28 q 884 163 825 94 q 964 335 943 231 l 976 332 q 886 144 954 219 q 727 31 818 68 q 533 -4 636 -6 q 335 38 429 -3 q 166 160 240 79 q 60 361 92 240 m 457 1222 q 504 1177 472 1208 q 571 1113 536 1146 q 657 1029 610 1074 l 651 1021 q 549 1081 596 1053 q 508 1105 528 1093 q 469 1128 488 1117 q 435 1147 450 1139 q 413 1161 421 1156 q 372 1201 379 1182 q 378 1235 365 1219 q 409 1250 390 1251 q 457 1222 428 1249 z "},"É":{"ha":1018,"x_min":33,"x_max":976,"o":"m 60 361 q 47 557 33 460 q 109 736 61 654 q 233 878 157 818 q 408 965 310 939 q 550 982 479 985 q 687 958 621 979 q 810 899 753 938 q 913 808 868 861 l 879 686 l 867 686 q 788 808 835 750 q 682 904 740 865 q 555 958 624 943 q 411 954 486 974 q 294 896 344 936 q 211 802 244 856 q 160 685 178 749 q 140 556 142 621 l 168 556 q 334 563 251 556 q 483 582 417 571 q 633 608 561 593 l 646 608 l 646 490 l 633 490 q 483 517 561 504 q 334 535 417 526 q 168 543 251 543 l 139 543 q 143 464 139 503 q 158 388 147 425 q 256 193 189 271 q 405 75 322 115 q 577 31 488 35 q 746 61 667 28 q 884 163 825 94 q 964 335 943 231 l 976 332 q 886 144 954 219 q 727 31 818 68 q 533 -4 636 -6 q 335 38 429 -3 q 166 160 240 79 q 60 361 92 240 m 561 1222 q 609 1250 590 1249 q 640 1235 628 1251 q 646 1201 653 1219 q 606 1161 639 1182 q 583 1147 597 1156 q 549 1128 568 1139 q 510 1105 531 1117 q 469 1081 490 1093 q 367 1021 422 1053 l 361 1029 q 446 1113 406 1074 q 513 1177 479 1146 q 561 1222 546 1208 z "},"Ê":{"ha":1018,"x_min":33,"x_max":976,"o":"m 60 361 q 47 557 33 460 q 109 736 61 654 q 233 878 157 818 q 408 965 310 939 q 550 982 479 985 q 687 958 621 979 q 810 899 753 938 q 913 808 868 861 l 879 686 l 867 686 q 788 808 835 750 q 682 904 740 865 q 555 958 624 943 q 411 954 486 974 q 294 896 344 936 q 211 802 244 856 q 160 685 178 749 q 140 556 142 621 l 168 556 q 334 563 251 556 q 483 582 417 571 q 633 608 561 593 l 646 608 l 646 490 l 633 490 q 483 517 561 504 q 334 535 417 526 q 168 543 251 543 l 139 543 q 143 464 139 503 q 158 388 147 425 q 256 193 189 271 q 405 75 322 115 q 577 31 488 35 q 746 61 667 28 q 884 163 825 94 q 964 335 943 231 l 976 332 q 886 144 954 219 q 727 31 818 68 q 533 -4 636 -6 q 335 38 429 -3 q 166 160 240 79 q 60 361 92 240 m 779 1028 l 774 1017 l 510 1160 l 246 1017 l 239 1028 l 510 1253 l 779 1028 z "},"Ë":{"ha":1018,"x_min":33,"x_max":976,"o":"m 60 361 q 47 557 33 460 q 109 736 61 654 q 233 878 157 818 q 408 965 310 939 q 550 982 479 985 q 687 958 621 979 q 810 899 753 938 q 913 808 868 861 l 879 686 l 867 686 q 788 808 835 750 q 682 904 740 865 q 555 958 624 943 q 411 954 486 974 q 294 896 344 936 q 211 802 244 856 q 160 685 178 749 q 140 556 142 621 l 168 556 q 334 563 251 556 q 483 582 417 571 q 633 608 561 593 l 646 608 l 646 490 l 633 490 q 483 517 561 504 q 334 535 417 526 q 168 543 251 543 l 139 543 q 143 464 139 503 q 158 388 147 425 q 256 193 189 271 q 405 75 322 115 q 577 31 488 35 q 746 61 667 28 q 884 163 825 94 q 964 335 943 231 l 976 332 q 886 144 954 219 q 727 31 818 68 q 533 -4 636 -6 q 335 38 429 -3 q 166 160 240 79 q 60 361 92 240 m 371 1250 q 415 1232 397 1250 q 433 1189 433 1214 q 415 1147 433 1164 q 371 1129 397 1129 q 327 1147 346 1129 q 308 1189 308 1164 q 327 1232 308 1214 q 371 1250 346 1250 m 646 1250 q 690 1232 672 1250 q 708 1189 708 1214 q 690 1147 708 1164 q 646 1129 672 1129 q 602 1147 621 1129 q 583 1189 583 1164 q 602 1232 583 1214 q 646 1250 621 1250 z "},"Ì":{"ha":247,"x_min":-19,"x_max":272,"o":"m 206 963 q 196 958 201 963 q 185 943 190 954 q 176 911 181 932 q 172 856 172 890 l 172 119 q 176 65 172 86 q 185 32 181 43 q 196 17 190 21 q 206 13 201 13 l 206 0 l 42 0 l 42 13 q 50 17 44 13 q 60 32 56 21 q 69 65 65 43 q 74 119 74 86 l 74 856 q 69 911 74 890 q 60 943 65 932 q 50 958 56 954 q 42 963 44 963 l 42 975 l 206 975 l 206 963 m 72 1222 q 119 1177 88 1208 q 186 1113 151 1146 q 272 1029 225 1074 l 267 1021 q 164 1081 211 1053 q 123 1105 143 1093 q 84 1128 103 1117 q 51 1147 65 1139 q 28 1161 36 1156 q -12 1201 -6 1182 q -7 1235 -19 1219 q 24 1250 6 1251 q 72 1222 43 1249 z "},"Í":{"ha":247,"x_min":-24,"x_max":268,"o":"m 206 963 q 196 958 201 963 q 185 943 190 954 q 176 911 181 932 q 172 856 172 890 l 172 119 q 176 65 172 86 q 185 32 181 43 q 196 17 190 21 q 206 13 201 13 l 206 0 l 42 0 l 42 13 q 50 17 44 13 q 60 32 56 21 q 69 65 65 43 q 74 119 74 86 l 74 856 q 69 911 74 890 q 60 943 65 932 q 50 958 56 954 q 42 963 44 963 l 42 975 l 206 975 l 206 963 m 176 1222 q 224 1250 206 1249 q 256 1235 243 1251 q 261 1201 268 1219 q 221 1161 254 1182 q 198 1147 213 1156 q 165 1128 183 1139 q 126 1105 146 1117 q 85 1081 106 1093 q -18 1021 38 1053 l -24 1029 q 61 1113 21 1074 q 128 1177 94 1146 q 176 1222 161 1208 z "},"Î":{"ha":247,"x_min":-146,"x_max":394,"o":"m 206 963 q 196 958 201 963 q 185 943 190 954 q 176 911 181 932 q 172 856 172 890 l 172 119 q 176 65 172 86 q 185 32 181 43 q 196 17 190 21 q 206 13 201 13 l 206 0 l 42 0 l 42 13 q 50 17 44 13 q 60 32 56 21 q 69 65 65 43 q 74 119 74 86 l 74 856 q 69 911 74 890 q 60 943 65 932 q 50 958 56 954 q 42 963 44 963 l 42 975 l 206 975 l 206 963 m 394 1028 l 389 1017 l 125 1160 l -139 1017 l -146 1028 l 125 1253 l 394 1028 z "},"Ï":{"ha":247,"x_min":-76,"x_max":324,"o":"m 206 963 q 196 958 201 963 q 185 943 190 954 q 176 911 181 932 q 172 856 172 890 l 172 119 q 176 65 172 86 q 185 32 181 43 q 196 17 190 21 q 206 13 201 13 l 206 0 l 42 0 l 42 13 q 50 17 44 13 q 60 32 56 21 q 69 65 65 43 q 74 119 74 86 l 74 856 q 69 911 74 890 q 60 943 65 932 q 50 958 56 954 q 42 963 44 963 l 42 975 l 206 975 l 206 963 m -14 1250 q 31 1232 13 1250 q 49 1189 49 1214 q 31 1147 49 1164 q -14 1129 13 1129 q -58 1147 -39 1129 q -76 1189 -76 1164 q -58 1232 -76 1214 q -14 1250 -39 1250 m 261 1250 q 306 1232 288 1250 q 324 1189 324 1214 q 306 1147 324 1164 q 261 1129 288 1129 q 217 1147 236 1129 q 199 1189 199 1164 q 217 1232 199 1214 q 261 1250 236 1250 z "},"Ð":{"ha":925,"x_min":0,"x_max":883,"o":"m 42 975 l 172 975 l 172 828 q 258 938 196 897 q 399 986 319 978 q 563 969 478 994 q 720 882 649 943 q 838 723 792 821 q 883 488 883 625 q 840 257 883 353 q 718 101 796 161 q 535 13 640 40 q 306 -15 429 -15 q 181 -8 244 -15 q 54 0 117 -1 l 42 0 l 42 13 q 50 17 44 13 q 60 32 56 21 q 69 65 65 43 q 74 119 74 86 l 74 856 q 69 911 74 890 q 60 943 65 932 q 50 958 56 954 q 42 963 44 963 l 42 975 m 786 488 q 741 729 786 631 q 627 884 696 828 q 479 957 558 940 q 331 955 400 974 q 217 884 263 936 q 172 750 172 832 l 172 6 q 240 0 207 3 q 306 -3 274 -3 q 508 31 419 -3 q 659 128 597 65 q 753 283 721 192 q 786 488 786 374 m 393 453 l 393 439 l 0 439 l 0 453 l 393 453 z "},"Ñ":{"ha":978,"x_min":42,"x_max":936,"o":"m 828 138 l 936 0 l 810 0 l 146 843 l 146 228 q 151 140 146 179 q 165 72 157 100 q 181 28 172 43 q 199 13 190 13 l 199 0 l 81 0 l 81 13 q 98 28 89 13 q 115 72 107 43 q 128 140 122 100 q 133 228 133 179 l 133 858 l 42 975 l 168 975 l 815 153 l 815 749 q 810 837 815 797 q 797 904 804 876 q 780 947 789 932 q 763 963 771 963 l 763 975 l 881 975 l 881 963 q 863 947 872 963 q 847 904 854 932 q 833 837 839 876 q 828 749 828 797 l 828 138 m 639 1247 q 603 1190 629 1217 q 546 1164 576 1164 q 488 1180 517 1164 q 434 1206 460 1196 q 386 1209 408 1215 q 346 1157 364 1203 l 338 1160 q 349 1183 343 1171 q 361 1203 354 1193 q 378 1221 368 1214 q 399 1233 386 1226 q 431 1242 413 1240 q 474 1240 450 1244 q 526 1219 497 1236 q 568 1202 551 1206 q 596 1203 585 1199 q 615 1221 607 1208 q 632 1250 624 1233 l 639 1247 z "},"Ò":{"ha":1071,"x_min":32,"x_max":1038,"o":"m 58 361 q 47 557 32 460 q 108 736 61 654 q 232 878 156 818 q 407 965 308 939 q 603 978 506 992 q 782 917 700 964 q 924 792 864 869 q 1011 617 985 715 q 1024 422 1038 518 q 963 243 1010 325 q 838 100 915 161 q 663 13 761 39 q 467 0 564 -14 q 289 62 371 14 q 146 186 207 110 q 58 361 85 263 m 913 590 q 844 747 892 671 q 730 878 796 824 q 582 955 664 932 q 411 954 500 978 q 262 869 321 931 q 172 728 203 808 q 139 558 142 649 q 157 388 136 468 q 226 231 179 307 q 340 101 274 156 q 488 24 407 47 q 660 25 569 0 q 808 110 749 49 q 897 251 867 171 q 931 420 928 331 q 913 590 935 510 m 483 1222 q 531 1177 499 1208 q 597 1113 563 1146 q 683 1029 636 1074 l 678 1021 q 575 1081 622 1053 q 534 1105 554 1093 q 495 1128 514 1117 q 462 1147 476 1139 q 439 1161 447 1156 q 399 1201 406 1182 q 404 1235 392 1219 q 435 1250 417 1251 q 483 1222 454 1249 z "},"Ó":{"ha":1071,"x_min":32,"x_max":1038,"o":"m 58 361 q 47 557 32 460 q 108 736 61 654 q 232 878 156 818 q 407 965 308 939 q 603 978 506 992 q 782 917 700 964 q 924 792 864 869 q 1011 617 985 715 q 1024 422 1038 518 q 963 243 1010 325 q 838 100 915 161 q 663 13 761 39 q 467 0 564 -14 q 289 62 371 14 q 146 186 207 110 q 58 361 85 263 m 913 590 q 844 747 892 671 q 730 878 796 824 q 582 955 664 932 q 411 954 500 978 q 262 869 321 931 q 172 728 203 808 q 139 558 142 649 q 157 388 136 468 q 226 231 179 307 q 340 101 274 156 q 488 24 407 47 q 660 25 569 0 q 808 110 749 49 q 897 251 867 171 q 931 420 928 331 q 913 590 935 510 m 588 1222 q 635 1250 617 1249 q 667 1235 654 1251 q 672 1201 679 1219 q 632 1161 665 1182 q 609 1147 624 1156 q 576 1128 594 1139 q 537 1105 557 1117 q 496 1081 517 1093 q 393 1021 449 1053 l 388 1029 q 472 1113 432 1074 q 539 1177 506 1146 q 588 1222 572 1208 z "},"Ô":{"ha":1071,"x_min":32,"x_max":1038,"o":"m 58 361 q 47 557 32 460 q 108 736 61 654 q 232 878 156 818 q 407 965 308 939 q 603 978 506 992 q 782 917 700 964 q 924 792 864 869 q 1011 617 985 715 q 1024 422 1038 518 q 963 243 1010 325 q 838 100 915 161 q 663 13 761 39 q 467 0 564 -14 q 289 62 371 14 q 146 186 207 110 q 58 361 85 263 m 913 590 q 844 747 892 671 q 730 878 796 824 q 582 955 664 932 q 411 954 500 978 q 262 869 321 931 q 172 728 203 808 q 139 558 142 649 q 157 388 136 468 q 226 231 179 307 q 340 101 274 156 q 488 24 407 47 q 660 25 569 0 q 808 110 749 49 q 897 251 867 171 q 931 420 928 331 q 913 590 935 510 m 806 1028 l 800 1017 l 536 1160 l 272 1017 l 265 1028 l 536 1253 l 806 1028 z "},"Õ":{"ha":1071,"x_min":32,"x_max":1038,"o":"m 58 361 q 47 557 32 460 q 108 736 61 654 q 232 878 156 818 q 407 965 308 939 q 603 978 506 992 q 782 917 700 964 q 924 792 864 869 q 1011 617 985 715 q 1024 422 1038 518 q 963 243 1010 325 q 838 100 915 161 q 663 13 761 39 q 467 0 564 -14 q 289 62 371 14 q 146 186 207 110 q 58 361 85 263 m 913 590 q 844 747 892 671 q 730 878 796 824 q 582 955 664 932 q 411 954 500 978 q 262 869 321 931 q 172 728 203 808 q 139 558 142 649 q 157 388 136 468 q 226 231 179 307 q 340 101 274 156 q 488 24 407 47 q 660 25 569 0 q 808 110 749 49 q 897 251 867 171 q 931 420 928 331 q 913 590 935 510 m 686 1247 q 650 1190 676 1217 q 593 1164 624 1164 q 535 1180 564 1164 q 481 1206 507 1196 q 433 1209 456 1215 q 393 1157 411 1203 l 385 1160 q 396 1183 390 1171 q 408 1203 401 1193 q 425 1221 415 1214 q 447 1233 433 1226 q 478 1242 460 1240 q 521 1240 497 1244 q 574 1219 544 1236 q 615 1202 599 1206 q 643 1203 632 1199 q 663 1221 654 1208 q 679 1250 671 1233 l 686 1247 z "},"Ö":{"ha":1071,"x_min":32,"x_max":1038,"o":"m 58 361 q 47 557 32 460 q 108 736 61 654 q 232 878 156 818 q 407 965 308 939 q 603 978 506 992 q 782 917 700 964 q 924 792 864 869 q 1011 617 985 715 q 1024 422 1038 518 q 963 243 1010 325 q 838 100 915 161 q 663 13 761 39 q 467 0 564 -14 q 289 62 371 14 q 146 186 207 110 q 58 361 85 263 m 913 590 q 844 747 892 671 q 730 878 796 824 q 582 955 664 932 q 411 954 500 978 q 262 869 321 931 q 172 728 203 808 q 139 558 142 649 q 157 388 136 468 q 226 231 179 307 q 340 101 274 156 q 488 24 407 47 q 660 25 569 0 q 808 110 749 49 q 897 251 867 171 q 931 420 928 331 q 913 590 935 510 m 397 1250 q 442 1232 424 1250 q 460 1189 460 1214 q 442 1147 460 1164 q 397 1129 424 1129 q 353 1147 372 1129 q 335 1189 335 1164 q 353 1232 335 1214 q 397 1250 372 1250 m 672 1250 q 717 1232 699 1250 q 735 1189 735 1214 q 717 1147 735 1164 q 672 1129 699 1129 q 628 1147 647 1129 q 610 1189 610 1164 q 628 1232 610 1214 q 672 1250 647 1250 z "},"Ø":{"ha":1071,"x_min":32,"x_max":1038,"o":"m 58 361 q 47 557 32 460 q 108 736 61 654 q 232 878 156 818 q 407 965 308 939 q 603 978 506 992 q 782 917 700 964 q 924 792 864 869 q 1011 617 985 715 q 1024 422 1038 518 q 963 243 1010 325 q 838 100 915 161 q 663 13 761 39 q 467 0 564 -14 q 289 62 371 14 q 146 186 207 110 q 58 361 85 263 m 913 590 q 844 747 892 671 q 730 878 796 824 q 582 955 664 932 q 411 954 500 978 q 262 869 321 931 q 172 728 203 808 q 139 558 142 649 q 157 388 136 468 q 226 231 179 307 q 340 101 274 156 q 488 24 407 47 q 660 25 569 0 q 808 110 749 49 q 897 251 867 171 q 931 420 928 331 q 913 590 935 510 m 679 974 l 708 974 l 392 0 l 363 0 l 679 974 z "},"Ù":{"ha":875,"x_min":42,"x_max":833,"o":"m 74 856 q 69 911 74 890 q 60 943 65 932 q 50 958 56 954 q 42 963 44 963 l 42 975 l 204 975 l 204 963 q 196 958 201 963 q 185 943 190 954 q 176 911 179 932 q 172 856 172 890 l 172 367 q 197 188 171 265 q 227 122 208 154 q 274 64 246 89 q 342 24 303 39 q 435 8 382 8 q 544 22 486 8 q 653 75 603 36 q 735 184 703 114 q 768 367 768 254 l 768 749 q 763 837 768 797 q 749 904 757 876 q 733 947 742 932 q 715 963 724 963 l 715 975 l 833 975 l 833 963 q 816 947 825 963 q 799 904 807 932 q 786 837 792 876 q 781 749 781 797 l 781 367 q 761 217 781 279 q 711 114 742 156 q 642 48 681 72 q 567 11 604 24 q 497 -5 529 -1 q 444 -8 464 -8 q 390 -4 425 -8 q 313 14 354 0 q 228 53 271 28 q 152 119 186 78 q 96 222 118 161 q 74 367 74 282 l 74 856 m 385 1222 q 432 1177 400 1208 q 499 1113 464 1146 q 585 1029 538 1074 l 579 1021 q 476 1081 524 1053 q 435 1105 456 1093 q 397 1128 415 1117 q 363 1147 378 1139 q 340 1161 349 1156 q 300 1201 307 1182 q 306 1235 293 1219 q 337 1250 318 1251 q 385 1222 356 1249 z "},"Ú":{"ha":875,"x_min":42,"x_max":833,"o":"m 74 856 q 69 911 74 890 q 60 943 65 932 q 50 958 56 954 q 42 963 44 963 l 42 975 l 204 975 l 204 963 q 196 958 201 963 q 185 943 190 954 q 176 911 179 932 q 172 856 172 890 l 172 367 q 197 188 171 265 q 227 122 208 154 q 274 64 246 89 q 342 24 303 39 q 435 8 382 8 q 544 22 486 8 q 653 75 603 36 q 735 184 703 114 q 768 367 768 254 l 768 749 q 763 837 768 797 q 749 904 757 876 q 733 947 742 932 q 715 963 724 963 l 715 975 l 833 975 l 833 963 q 816 947 825 963 q 799 904 807 932 q 786 837 792 876 q 781 749 781 797 l 781 367 q 761 217 781 279 q 711 114 742 156 q 642 48 681 72 q 567 11 604 24 q 497 -5 529 -1 q 444 -8 464 -8 q 390 -4 425 -8 q 313 14 354 0 q 228 53 271 28 q 152 119 186 78 q 96 222 118 161 q 74 367 74 282 l 74 856 m 489 1222 q 537 1250 518 1249 q 568 1235 556 1251 q 574 1201 581 1219 q 533 1161 567 1182 q 510 1147 525 1156 q 477 1128 496 1139 q 438 1105 458 1117 q 397 1081 418 1093 q 294 1021 350 1053 l 289 1029 q 374 1113 333 1074 q 440 1177 407 1146 q 489 1222 474 1208 z "},"Û":{"ha":875,"x_min":42,"x_max":833,"o":"m 74 856 q 69 911 74 890 q 60 943 65 932 q 50 958 56 954 q 42 963 44 963 l 42 975 l 204 975 l 204 963 q 196 958 201 963 q 185 943 190 954 q 176 911 179 932 q 172 856 172 890 l 172 367 q 197 188 171 265 q 227 122 208 154 q 274 64 246 89 q 342 24 303 39 q 435 8 382 8 q 544 22 486 8 q 653 75 603 36 q 735 184 703 114 q 768 367 768 254 l 768 749 q 763 837 768 797 q 749 904 757 876 q 733 947 742 932 q 715 963 724 963 l 715 975 l 833 975 l 833 963 q 816 947 825 963 q 799 904 807 932 q 786 837 792 876 q 781 749 781 797 l 781 367 q 761 217 781 279 q 711 114 742 156 q 642 48 681 72 q 567 11 604 24 q 497 -5 529 -1 q 444 -8 464 -8 q 390 -4 425 -8 q 313 14 354 0 q 228 53 271 28 q 152 119 186 78 q 96 222 118 161 q 74 367 74 282 l 74 856 m 707 1028 l 701 1017 l 438 1160 l 174 1017 l 167 1028 l 438 1253 l 707 1028 z "},"Ü":{"ha":875,"x_min":42,"x_max":833,"o":"m 74 856 q 69 911 74 890 q 60 943 65 932 q 50 958 56 954 q 42 963 44 963 l 42 975 l 204 975 l 204 963 q 196 958 201 963 q 185 943 190 954 q 176 911 179 932 q 172 856 172 890 l 172 367 q 197 188 171 265 q 227 122 208 154 q 274 64 246 89 q 342 24 303 39 q 435 8 382 8 q 544 22 486 8 q 653 75 603 36 q 735 184 703 114 q 768 367 768 254 l 768 749 q 763 837 768 797 q 749 904 757 876 q 733 947 742 932 q 715 963 724 963 l 715 975 l 833 975 l 833 963 q 816 947 825 963 q 799 904 807 932 q 786 837 792 876 q 781 749 781 797 l 781 367 q 761 217 781 279 q 711 114 742 156 q 642 48 681 72 q 567 11 604 24 q 497 -5 529 -1 q 444 -8 464 -8 q 390 -4 425 -8 q 313 14 354 0 q 228 53 271 28 q 152 119 186 78 q 96 222 118 161 q 74 367 74 282 l 74 856 m 300 1250 q 344 1232 326 1250 q 363 1189 363 1214 q 344 1147 363 1164 q 300 1129 326 1129 q 256 1147 275 1129 q 238 1189 238 1164 q 256 1232 238 1214 q 300 1250 275 1250 m 575 1250 q 619 1232 601 1250 q 638 1189 638 1214 q 619 1147 638 1164 q 575 1129 601 1129 q 531 1147 550 1129 q 513 1189 513 1164 q 531 1232 513 1214 q 575 1250 550 1250 z "},"Ý":{"ha":924,"x_min":42,"x_max":882,"o":"m 542 347 l 542 119 q 545 64 542 85 q 554 31 549 43 q 565 16 560 19 q 574 13 571 13 l 574 0 l 411 0 l 411 13 q 419 16 414 13 q 430 31 425 19 q 439 64 435 43 q 443 119 443 85 l 443 322 l 193 785 q 147 851 169 819 q 106 908 125 883 q 71 949 88 933 q 42 964 54 964 l 42 976 l 249 976 l 249 964 q 244 931 240 964 q 276 840 249 897 l 535 361 l 764 829 q 777 861 768 839 q 791 906 786 883 q 791 947 796 929 q 763 964 786 964 l 763 976 l 882 976 l 882 964 q 838 929 867 964 q 764 801 810 894 l 542 347 m 514 1222 q 562 1250 543 1249 q 593 1235 581 1251 q 599 1201 606 1219 q 558 1161 592 1182 q 535 1147 550 1156 q 502 1128 521 1139 q 463 1105 483 1117 q 422 1081 443 1093 q 319 1021 375 1053 l 314 1029 q 399 1113 358 1074 q 465 1177 432 1146 q 514 1222 499 1208 z "},"à":{"ha":704,"x_min":29,"x_max":669,"o":"m 669 0 l 542 0 l 542 400 q 538 483 542 438 q 521 569 535 529 q 478 637 507 610 q 400 664 450 664 q 313 649 350 664 q 254 615 276 635 q 225 576 232 596 q 228 546 218 557 q 247 535 233 539 q 276 529 260 532 q 312 524 293 526 q 347 514 331 521 q 420 456 393 496 q 458 368 447 417 q 467 268 469 319 q 447 178 464 217 q 353 44 415 97 q 217 -6 290 -8 q 104 33 147 -3 q 45 120 61 68 q 42 233 29 172 q 95 345 54 293 q 208 433 136 397 q 382 474 279 469 q 392 475 385 475 q 343 504 371 493 q 289 517 318 514 q 234 518 260 519 q 188 514 208 517 q 163 510 168 511 q 174 559 158 531 q 222 613 190 588 q 298 656 253 639 q 400 674 343 674 q 513 653 467 674 q 586 596 558 632 q 626 509 614 560 q 638 400 638 458 l 638 119 q 641 64 638 85 q 650 31 644 43 q 661 16 656 19 q 669 13 667 13 l 669 0 m 401 464 q 297 450 346 464 q 210 407 247 436 q 152 333 174 378 q 131 229 131 289 q 137 171 131 200 q 158 117 143 142 q 194 74 172 92 q 249 50 217 56 q 311 53 282 43 q 365 81 340 63 q 409 126 390 100 q 439 181 428 153 q 456 252 451 214 q 457 328 461 290 q 439 401 453 367 q 401 464 425 436 m 300 944 q 347 899 315 931 q 414 835 379 868 q 500 751 453 796 l 494 743 q 392 803 439 775 q 351 827 371 815 q 312 850 331 839 q 278 869 293 861 q 256 883 264 878 q 215 923 222 904 q 221 957 208 942 q 252 972 233 974 q 300 944 271 971 z "},"á":{"ha":704,"x_min":29,"x_max":669,"o":"m 669 0 l 542 0 l 542 400 q 538 483 542 438 q 521 569 535 529 q 478 637 507 610 q 400 664 450 664 q 313 649 350 664 q 254 615 276 635 q 225 576 232 596 q 228 546 218 557 q 247 535 233 539 q 276 529 260 532 q 312 524 293 526 q 347 514 331 521 q 420 456 393 496 q 458 368 447 417 q 467 268 469 319 q 447 178 464 217 q 353 44 415 97 q 217 -6 290 -8 q 104 33 147 -3 q 45 120 61 68 q 42 233 29 172 q 95 345 54 293 q 208 433 136 397 q 382 474 279 469 q 392 475 385 475 q 343 504 371 493 q 289 517 318 514 q 234 518 260 519 q 188 514 208 517 q 163 510 168 511 q 174 559 158 531 q 222 613 190 588 q 298 656 253 639 q 400 674 343 674 q 513 653 467 674 q 586 596 558 632 q 626 509 614 560 q 638 400 638 458 l 638 119 q 641 64 638 85 q 650 31 644 43 q 661 16 656 19 q 669 13 667 13 l 669 0 m 401 464 q 297 450 346 464 q 210 407 247 436 q 152 333 174 378 q 131 229 131 289 q 137 171 131 200 q 158 117 143 142 q 194 74 172 92 q 249 50 217 56 q 311 53 282 43 q 365 81 340 63 q 409 126 390 100 q 439 181 428 153 q 456 252 451 214 q 457 328 461 290 q 439 401 453 367 q 401 464 425 436 m 404 944 q 452 972 433 971 q 483 957 471 974 q 489 923 496 942 q 449 883 482 904 q 426 869 440 878 q 392 850 411 861 q 353 827 374 839 q 313 803 333 815 q 210 743 265 775 l 204 751 q 289 835 249 796 q 356 899 322 868 q 404 944 389 931 z "},"â":{"ha":704,"x_min":29,"x_max":669,"o":"m 669 0 l 542 0 l 542 400 q 538 483 542 438 q 521 569 535 529 q 478 637 507 610 q 400 664 450 664 q 313 649 350 664 q 254 615 276 635 q 225 576 232 596 q 228 546 218 557 q 247 535 233 539 q 276 529 260 532 q 312 524 293 526 q 347 514 331 521 q 420 456 393 496 q 458 368 447 417 q 467 268 469 319 q 447 178 464 217 q 353 44 415 97 q 217 -6 290 -8 q 104 33 147 -3 q 45 120 61 68 q 42 233 29 172 q 95 345 54 293 q 208 433 136 397 q 382 474 279 469 q 392 475 385 475 q 343 504 371 493 q 289 517 318 514 q 234 518 260 519 q 188 514 208 517 q 163 510 168 511 q 174 559 158 531 q 222 613 190 588 q 298 656 253 639 q 400 674 343 674 q 513 653 467 674 q 586 596 558 632 q 626 509 614 560 q 638 400 638 458 l 638 119 q 641 64 638 85 q 650 31 644 43 q 661 16 656 19 q 669 13 667 13 l 669 0 m 401 464 q 297 450 346 464 q 210 407 247 436 q 152 333 174 378 q 131 229 131 289 q 137 171 131 200 q 158 117 143 142 q 194 74 172 92 q 249 50 217 56 q 311 53 282 43 q 365 81 340 63 q 409 126 390 100 q 439 181 428 153 q 456 252 451 214 q 457 328 461 290 q 439 401 453 367 q 401 464 425 436 m 622 750 l 617 739 l 353 882 l 89 739 l 82 750 l 353 975 l 622 750 z "},"ã":{"ha":704,"x_min":29,"x_max":669,"o":"m 669 0 l 542 0 l 542 400 q 538 483 542 438 q 521 569 535 529 q 478 637 507 610 q 400 664 450 664 q 313 649 350 664 q 254 615 276 635 q 225 576 232 596 q 228 546 218 557 q 247 535 233 539 q 276 529 260 532 q 312 524 293 526 q 347 514 331 521 q 420 456 393 496 q 458 368 447 417 q 467 268 469 319 q 447 178 464 217 q 353 44 415 97 q 217 -6 290 -8 q 104 33 147 -3 q 45 120 61 68 q 42 233 29 172 q 95 345 54 293 q 208 433 136 397 q 382 474 279 469 q 392 475 385 475 q 343 504 371 493 q 289 517 318 514 q 234 518 260 519 q 188 514 208 517 q 163 510 168 511 q 174 559 158 531 q 222 613 190 588 q 298 656 253 639 q 400 674 343 674 q 513 653 467 674 q 586 596 558 632 q 626 509 614 560 q 638 400 638 458 l 638 119 q 641 64 638 85 q 650 31 644 43 q 661 16 656 19 q 669 13 667 13 l 669 0 m 401 464 q 297 450 346 464 q 210 407 247 436 q 152 333 174 378 q 131 229 131 289 q 137 171 131 200 q 158 117 143 142 q 194 74 172 92 q 249 50 217 56 q 311 53 282 43 q 365 81 340 63 q 409 126 390 100 q 439 181 428 153 q 456 252 451 214 q 457 328 461 290 q 439 401 453 367 q 401 464 425 436 m 503 969 q 467 913 493 939 q 410 886 440 886 q 352 902 381 886 q 298 928 324 918 q 250 931 272 938 q 210 879 228 925 l 201 882 q 213 906 207 893 q 225 926 218 915 q 242 943 232 936 q 263 956 250 949 q 295 965 276 963 q 338 963 314 967 q 390 942 361 958 q 432 924 415 928 q 460 926 449 921 q 479 943 471 931 q 496 972 488 956 l 503 969 z "},"ä":{"ha":704,"x_min":29,"x_max":669,"o":"m 669 0 l 542 0 l 542 400 q 538 483 542 438 q 521 569 535 529 q 478 637 507 610 q 400 664 450 664 q 313 649 350 664 q 254 615 276 635 q 225 576 232 596 q 228 546 218 557 q 247 535 233 539 q 276 529 260 532 q 312 524 293 526 q 347 514 331 521 q 420 456 393 496 q 458 368 447 417 q 467 268 469 319 q 447 178 464 217 q 353 44 415 97 q 217 -6 290 -8 q 104 33 147 -3 q 45 120 61 68 q 42 233 29 172 q 95 345 54 293 q 208 433 136 397 q 382 474 279 469 q 392 475 385 475 q 343 504 371 493 q 289 517 318 514 q 234 518 260 519 q 188 514 208 517 q 163 510 168 511 q 174 559 158 531 q 222 613 190 588 q 298 656 253 639 q 400 674 343 674 q 513 653 467 674 q 586 596 558 632 q 626 509 614 560 q 638 400 638 458 l 638 119 q 641 64 638 85 q 650 31 644 43 q 661 16 656 19 q 669 13 667 13 l 669 0 m 401 464 q 297 450 346 464 q 210 407 247 436 q 152 333 174 378 q 131 229 131 289 q 137 171 131 200 q 158 117 143 142 q 194 74 172 92 q 249 50 217 56 q 311 53 282 43 q 365 81 340 63 q 409 126 390 100 q 439 181 428 153 q 456 252 451 214 q 457 328 461 290 q 439 401 453 367 q 401 464 425 436 m 214 972 q 258 954 240 972 q 276 911 276 936 q 258 869 276 886 q 214 851 240 851 q 170 869 189 851 q 151 911 151 886 q 170 954 151 936 q 214 972 189 972 m 489 972 q 533 954 515 972 q 551 911 551 936 q 533 869 551 886 q 489 851 515 851 q 445 869 464 851 q 426 911 426 886 q 445 954 426 936 q 489 972 464 972 z "},"å":{"ha":704,"x_min":29,"x_max":669,"o":"m 669 0 l 542 0 l 542 400 q 538 483 542 438 q 521 569 535 529 q 478 637 507 610 q 400 664 450 664 q 313 649 350 664 q 254 615 276 635 q 225 576 232 596 q 228 546 218 557 q 247 535 233 539 q 276 529 260 532 q 312 524 293 526 q 347 514 331 521 q 420 456 393 496 q 458 368 447 417 q 467 268 469 319 q 447 178 464 217 q 353 44 415 97 q 217 -6 290 -8 q 104 33 147 -3 q 45 120 61 68 q 42 233 29 172 q 95 345 54 293 q 208 433 136 397 q 382 474 279 469 q 392 475 385 475 q 343 504 371 493 q 289 517 318 514 q 234 518 260 519 q 188 514 208 517 q 163 510 168 511 q 174 559 158 531 q 222 613 190 588 q 298 656 253 639 q 400 674 343 674 q 513 653 467 674 q 586 596 558 632 q 626 509 614 560 q 638 400 638 458 l 638 119 q 641 64 638 85 q 650 31 644 43 q 661 16 656 19 q 669 13 667 13 l 669 0 m 401 464 q 297 450 346 464 q 210 407 247 436 q 152 333 174 378 q 131 229 131 289 q 137 171 131 200 q 158 117 143 142 q 194 74 172 92 q 249 50 217 56 q 311 53 282 43 q 365 81 340 63 q 409 126 390 100 q 439 181 428 153 q 456 252 451 214 q 457 328 461 290 q 439 401 453 367 q 401 464 425 436 m 351 1000 q 428 972 394 1000 q 461 899 461 944 q 428 826 461 853 q 351 799 394 799 q 276 826 310 799 q 243 899 243 853 q 276 972 243 944 q 351 1000 310 1000 m 351 804 q 401 829 382 804 q 419 899 419 854 q 401 967 419 942 q 351 993 382 993 q 303 967 322 993 q 285 899 285 942 q 303 829 285 854 q 351 804 322 804 z "},"ç":{"ha":697,"x_min":29,"x_max":663,"o":"m 628 472 q 572 562 607 521 q 492 628 536 603 q 397 662 449 654 q 290 651 344 669 q 197 594 232 636 q 144 497 161 551 q 128 382 128 442 q 142 271 129 322 l 146 258 q 215 124 171 175 q 311 48 258 72 q 419 24 364 24 q 524 44 475 24 q 607 101 572 64 q 653 189 642 139 l 663 189 q 606 83 650 126 q 501 17 563 39 q 370 -5 440 -6 q 236 24 300 -4 q 121 106 172 51 q 47 246 69 160 q 39 381 29 314 q 81 503 49 447 q 167 601 114 560 q 289 661 221 643 q 413 673 353 678 q 524 653 474 668 q 608 622 574 639 q 654 597 643 604 l 660 597 l 640 469 l 628 472 l 628 472 m 436 -118 q 417 -168 436 -153 q 372 -187 399 -183 q 314 -185 344 -190 q 261 -172 283 -181 l 267 -118 q 306 -135 281 -125 q 358 -151 332 -146 q 404 -151 385 -157 q 424 -121 424 -146 q 413 -102 424 -110 q 386 -90 401 -94 q 356 -84 371 -86 q 332 -82 340 -82 l 356 0 l 371 0 l 356 -50 q 436 -118 436 -58 z "},"è":{"ha":731,"x_min":29,"x_max":696,"o":"m 47 246 q 39 381 29 314 q 81 503 49 447 q 167 601 114 560 q 288 661 219 643 q 426 670 360 681 q 547 629 493 660 q 640 551 601 599 q 696 449 679 504 q 588 444 646 449 q 483 429 531 440 q 555 416 522 431 q 611 376 588 401 q 649 318 635 351 q 665 249 663 285 q 634 119 671 174 q 537 33 597 64 q 401 -3 476 1 q 256 17 326 -8 q 129 98 186 42 q 47 246 72 154 m 129 346 q 142 271 133 306 q 222 114 168 171 q 340 36 276 57 q 467 27 403 15 q 578 75 531 39 q 647 167 625 111 q 647 293 668 224 q 611 361 636 331 q 550 406 586 392 q 468 417 514 421 q 371 383 422 414 q 273 342 321 354 q 185 333 225 331 q 156 337 169 335 q 129 346 142 339 m 589 456 q 539 541 569 500 q 470 611 508 582 q 386 653 432 640 q 290 651 340 665 q 211 608 243 639 q 160 538 179 578 q 134 450 142 497 q 129 357 126 403 q 185 343 153 346 q 270 352 224 340 q 365 392 317 364 q 482 439 424 425 q 589 456 540 453 m 313 944 q 360 899 328 931 q 426 835 392 868 q 513 751 465 796 l 507 743 q 404 803 451 775 q 363 827 383 815 q 324 850 343 839 q 291 869 306 861 q 268 883 276 878 q 228 923 235 904 q 233 957 221 942 q 265 972 246 974 q 313 944 283 971 z "},"é":{"ha":731,"x_min":29,"x_max":696,"o":"m 47 246 q 39 381 29 314 q 81 503 49 447 q 167 601 114 560 q 288 661 219 643 q 426 670 360 681 q 547 629 493 660 q 640 551 601 599 q 696 449 679 504 q 588 444 646 449 q 483 429 531 440 q 555 416 522 431 q 611 376 588 401 q 649 318 635 351 q 665 249 663 285 q 634 119 671 174 q 537 33 597 64 q 401 -3 476 1 q 256 17 326 -8 q 129 98 186 42 q 47 246 72 154 m 129 346 q 142 271 133 306 q 222 114 168 171 q 340 36 276 57 q 467 27 403 15 q 578 75 531 39 q 647 167 625 111 q 647 293 668 224 q 611 361 636 331 q 550 406 586 392 q 468 417 514 421 q 371 383 422 414 q 273 342 321 354 q 185 333 225 331 q 156 337 169 335 q 129 346 142 339 m 589 456 q 539 541 569 500 q 470 611 508 582 q 386 653 432 640 q 290 651 340 665 q 211 608 243 639 q 160 538 179 578 q 134 450 142 497 q 129 357 126 403 q 185 343 153 346 q 270 352 224 340 q 365 392 317 364 q 482 439 424 425 q 589 456 540 453 m 417 944 q 465 972 446 971 q 496 957 483 974 q 501 923 508 942 q 461 883 494 904 q 438 869 453 878 q 405 850 424 861 q 366 827 386 839 q 325 803 346 815 q 222 743 278 775 l 217 751 q 301 835 261 796 q 368 899 335 868 q 417 944 401 931 z "},"ê":{"ha":731,"x_min":29,"x_max":696,"o":"m 47 246 q 39 381 29 314 q 81 503 49 447 q 167 601 114 560 q 288 661 219 643 q 426 670 360 681 q 547 629 493 660 q 640 551 601 599 q 696 449 679 504 q 588 444 646 449 q 483 429 531 440 q 555 416 522 431 q 611 376 588 401 q 649 318 635 351 q 665 249 663 285 q 634 119 671 174 q 537 33 597 64 q 401 -3 476 1 q 256 17 326 -8 q 129 98 186 42 q 47 246 72 154 m 129 346 q 142 271 133 306 q 222 114 168 171 q 340 36 276 57 q 467 27 403 15 q 578 75 531 39 q 647 167 625 111 q 647 293 668 224 q 611 361 636 331 q 550 406 586 392 q 468 417 514 421 q 371 383 422 414 q 273 342 321 354 q 185 333 225 331 q 156 337 169 335 q 129 346 142 339 m 589 456 q 539 541 569 500 q 470 611 508 582 q 386 653 432 640 q 290 651 340 665 q 211 608 243 639 q 160 538 179 578 q 134 450 142 497 q 129 357 126 403 q 185 343 153 346 q 270 352 224 340 q 365 392 317 364 q 482 439 424 425 q 589 456 540 453 m 635 750 l 629 739 l 365 882 l 101 739 l 94 750 l 365 975 l 635 750 z "},"ë":{"ha":731,"x_min":29,"x_max":696,"o":"m 47 246 q 39 381 29 314 q 81 503 49 447 q 167 601 114 560 q 288 661 219 643 q 426 670 360 681 q 547 629 493 660 q 640 551 601 599 q 696 449 679 504 q 588 444 646 449 q 483 429 531 440 q 555 416 522 431 q 611 376 588 401 q 649 318 635 351 q 665 249 663 285 q 634 119 671 174 q 537 33 597 64 q 401 -3 476 1 q 256 17 326 -8 q 129 98 186 42 q 47 246 72 154 m 129 346 q 142 271 133 306 q 222 114 168 171 q 340 36 276 57 q 467 27 403 15 q 578 75 531 39 q 647 167 625 111 q 647 293 668 224 q 611 361 636 331 q 550 406 586 392 q 468 417 514 421 q 371 383 422 414 q 273 342 321 354 q 185 333 225 331 q 156 337 169 335 q 129 346 142 339 m 589 456 q 539 541 569 500 q 470 611 508 582 q 386 653 432 640 q 290 651 340 665 q 211 608 243 639 q 160 538 179 578 q 134 450 142 497 q 129 357 126 403 q 185 343 153 346 q 270 352 224 340 q 365 392 317 364 q 482 439 424 425 q 589 456 540 453 m 228 972 q 272 954 254 972 q 290 911 290 936 q 272 869 290 886 q 228 851 254 851 q 184 869 203 851 q 165 911 165 886 q 184 954 165 936 q 228 972 203 972 m 503 972 q 547 954 529 972 q 565 911 565 936 q 547 869 565 886 q 503 851 529 851 q 459 869 478 851 q 440 911 440 886 q 459 954 440 936 q 503 972 478 972 z "},"ì":{"ha":232,"x_min":-28,"x_max":264,"o":"m 35 619 l 165 669 l 165 119 q 169 64 165 85 q 178 31 172 43 q 189 16 183 19 q 197 13 194 13 l 197 0 l 36 0 l 36 13 q 46 16 40 13 q 56 31 51 19 q 65 64 61 43 q 69 119 69 85 l 69 549 q 54 597 64 586 q 39 608 44 608 l 35 619 m 64 944 q 111 899 79 931 q 178 835 143 868 q 264 751 217 796 l 258 743 q 156 803 203 775 q 115 827 135 815 q 76 850 94 839 q 42 869 57 861 q 19 883 28 878 q -21 923 -14 904 q -15 957 -28 942 q 16 972 -3 974 q 64 944 35 971 z "},"í":{"ha":232,"x_min":-32,"x_max":260,"o":"m 39 608 q 54 597 44 608 q 69 549 64 586 l 69 119 q 65 64 69 85 q 56 31 61 43 q 46 16 51 19 q 36 13 40 13 l 36 0 l 197 0 l 197 13 q 189 16 194 13 q 178 31 183 19 q 169 64 172 43 q 165 119 165 85 l 165 669 l 35 619 l 39 608 m 168 944 q 216 972 197 971 q 247 957 235 974 q 253 923 260 942 q 213 883 246 904 q 190 869 204 878 q 156 850 175 861 q 117 827 138 839 q 76 803 97 815 q -26 743 29 775 l -32 751 q 53 835 13 796 q 119 899 86 868 q 168 944 153 931 z "},"î":{"ha":232,"x_min":-154,"x_max":386,"o":"m 35 619 l 165 669 l 165 119 q 169 64 165 85 q 178 31 172 43 q 189 16 183 19 q 197 13 194 13 l 197 0 l 36 0 l 36 13 q 46 16 40 13 q 56 31 51 19 q 65 64 61 43 q 69 119 69 85 l 69 549 q 54 597 64 586 q 39 608 44 608 l 35 619 m 386 750 l 381 739 l 117 882 l -147 739 l -154 750 l 117 975 l 386 750 z "},"ï":{"ha":232,"x_min":-83,"x_max":317,"o":"m 35 619 l 165 669 l 165 119 q 169 64 165 85 q 178 31 172 43 q 189 16 183 19 q 197 13 194 13 l 197 0 l 36 0 l 36 13 q 46 16 40 13 q 56 31 51 19 q 65 64 61 43 q 69 119 69 85 l 69 549 q 54 597 64 586 q 39 608 44 608 l 35 619 m -21 972 q 24 954 6 972 q 42 911 42 936 q 24 869 42 886 q -21 851 6 851 q -65 869 -46 851 q -83 911 -83 886 q -65 954 -83 936 q -21 972 -46 972 m 254 972 q 299 954 281 972 q 317 911 317 936 q 299 869 317 886 q 254 851 281 851 q 210 869 229 851 q 192 911 192 886 q 210 954 192 936 q 254 972 229 972 z "},"ð":{"ha":771,"x_min":38,"x_max":738,"o":"m 299 358 q 192 392 242 365 q 107 462 142 419 q 55 561 72 504 q 44 685 38 618 q 74 790 50 736 q 140 886 97 843 q 247 955 183 929 q 396 976 310 981 q 515 949 451 974 q 628 872 578 924 q 708 737 679 819 q 726 538 738 654 q 687 376 718 450 q 607 243 656 303 q 498 138 558 183 q 372 60 438 92 q 240 13 307 29 q 111 -4 172 -4 l 113 8 q 201 17 150 8 q 305 47 251 25 q 411 103 358 68 q 508 195 464 139 q 581 329 551 251 q 617 511 610 407 q 570 442 600 474 q 499 390 540 411 q 406 360 457 369 q 299 358 356 351 m 147 688 q 190 485 144 564 q 328 383 235 407 q 426 381 375 371 q 519 419 476 390 q 588 490 561 447 q 618 588 615 533 q 594 789 622 714 q 524 903 567 864 q 434 954 482 943 q 353 961 386 965 q 260 929 299 956 q 197 864 221 903 q 160 778 172 825 q 147 688 149 732 z "},"ñ":{"ha":658,"x_min":35,"x_max":624,"o":"m 35 669 l 163 669 l 163 310 q 185 425 171 374 q 218 517 200 476 q 250 574 232 546 q 292 624 268 601 q 345 661 317 647 q 408 675 374 675 q 501 651 465 675 q 556 590 536 628 q 584 506 576 553 q 592 411 592 458 l 592 119 q 595 64 592 85 q 604 31 599 43 q 615 16 610 19 q 624 13 621 13 l 624 0 l 463 0 l 463 13 q 471 16 465 13 q 481 31 476 19 q 490 64 486 43 q 494 119 494 85 l 494 411 q 492 472 494 436 q 480 541 489 507 q 453 603 471 575 q 407 640 436 631 q 350 640 378 650 q 299 608 322 629 q 258 561 276 588 q 229 511 240 535 q 181 348 199 444 q 163 119 163 251 q 166 64 163 85 q 175 31 169 43 q 186 16 181 19 q 194 13 192 13 l 194 0 l 35 0 l 35 13 q 43 16 38 13 q 53 31 49 19 q 63 64 58 43 q 67 119 67 85 l 67 550 q 63 605 67 583 q 53 638 58 626 q 43 653 49 649 q 35 657 38 657 l 35 669 m 479 969 q 443 913 469 939 q 386 886 417 886 q 328 902 357 886 q 274 928 300 918 q 226 931 249 938 q 186 879 204 925 l 178 882 q 189 906 183 893 q 201 926 194 915 q 218 943 208 936 q 240 956 226 949 q 272 965 253 963 q 314 963 290 967 q 367 942 338 958 q 408 924 392 928 q 436 926 425 921 q 456 943 447 931 q 472 972 464 956 l 479 969 z "},"ò":{"ha":751,"x_min":29,"x_max":722,"o":"m 47 254 q 39 389 29 322 q 81 512 49 456 q 167 610 114 568 q 288 669 219 651 q 422 678 356 688 q 546 635 489 668 q 644 550 603 603 q 704 429 686 497 q 713 294 722 361 q 670 172 703 228 q 585 74 638 115 q 464 14 532 32 q 329 6 396 -4 q 206 48 263 15 q 107 133 149 81 q 47 254 65 186 m 610 404 q 567 506 596 454 q 496 598 538 558 q 401 656 454 638 q 290 660 349 675 q 197 602 232 644 q 144 505 161 560 q 128 390 128 450 q 142 279 128 329 q 185 176 156 229 q 256 85 214 124 q 350 26 297 46 q 461 24 403 7 q 556 81 519 39 q 608 178 592 124 q 624 294 625 233 q 610 404 624 354 m 324 944 q 371 899 339 931 q 438 835 403 868 q 524 751 476 796 l 518 743 q 415 803 463 775 q 374 827 394 815 q 335 850 354 839 q 302 869 317 861 q 279 883 288 878 q 239 923 246 904 q 244 957 232 942 q 276 972 257 974 q 324 944 294 971 z "},"ó":{"ha":751,"x_min":29,"x_max":722,"o":"m 47 254 q 39 389 29 322 q 81 512 49 456 q 167 610 114 568 q 288 669 219 651 q 422 678 356 688 q 546 635 489 668 q 644 550 603 603 q 704 429 686 497 q 713 294 722 361 q 670 172 703 228 q 585 74 638 115 q 464 14 532 32 q 329 6 396 -4 q 206 48 263 15 q 107 133 149 81 q 47 254 65 186 m 610 404 q 567 506 596 454 q 496 598 538 558 q 401 656 454 638 q 290 660 349 675 q 197 602 232 644 q 144 505 161 560 q 128 390 128 450 q 142 279 128 329 q 185 176 156 229 q 256 85 214 124 q 350 26 297 46 q 461 24 403 7 q 556 81 519 39 q 608 178 592 124 q 624 294 625 233 q 610 404 624 354 m 428 944 q 476 972 457 971 q 507 957 494 974 q 513 923 519 942 q 472 883 506 904 q 449 869 464 878 q 416 850 435 861 q 377 827 397 839 q 336 803 357 815 q 233 743 289 775 l 228 751 q 313 835 272 796 q 379 899 346 868 q 428 944 413 931 z "},"ô":{"ha":751,"x_min":29,"x_max":722,"o":"m 47 254 q 39 389 29 322 q 81 512 49 456 q 167 610 114 568 q 288 669 219 651 q 422 678 356 688 q 546 635 489 668 q 644 550 603 603 q 704 429 686 497 q 713 294 722 361 q 670 172 703 228 q 585 74 638 115 q 464 14 532 32 q 329 6 396 -4 q 206 48 263 15 q 107 133 149 81 q 47 254 65 186 m 610 404 q 567 506 596 454 q 496 598 538 558 q 401 656 454 638 q 290 660 349 675 q 197 602 232 644 q 144 505 161 560 q 128 390 128 450 q 142 279 128 329 q 185 176 156 229 q 256 85 214 124 q 350 26 297 46 q 461 24 403 7 q 556 81 519 39 q 608 178 592 124 q 624 294 625 233 q 610 404 624 354 m 646 750 l 640 739 l 376 882 l 113 739 l 106 750 l 376 975 l 646 750 z "},"õ":{"ha":751,"x_min":29,"x_max":722,"o":"m 47 254 q 39 389 29 322 q 81 512 49 456 q 167 610 114 568 q 288 669 219 651 q 422 678 356 688 q 546 635 489 668 q 644 550 603 603 q 704 429 686 497 q 713 294 722 361 q 670 172 703 228 q 585 74 638 115 q 464 14 532 32 q 329 6 396 -4 q 206 48 263 15 q 107 133 149 81 q 47 254 65 186 m 610 404 q 567 506 596 454 q 496 598 538 558 q 401 656 454 638 q 290 660 349 675 q 197 602 232 644 q 144 505 161 560 q 128 390 128 450 q 142 279 128 329 q 185 176 156 229 q 256 85 214 124 q 350 26 297 46 q 461 24 403 7 q 556 81 519 39 q 608 178 592 124 q 624 294 625 233 q 610 404 624 354 m 526 969 q 490 913 517 939 q 433 886 464 886 q 376 902 404 886 q 322 928 347 918 q 274 931 296 938 q 233 879 251 925 l 225 882 q 236 906 231 893 q 249 926 242 915 q 265 943 256 936 q 287 956 274 949 q 319 965 300 963 q 361 963 338 967 q 414 942 385 958 q 456 924 439 928 q 483 926 472 921 q 503 943 494 931 q 519 972 511 956 l 526 969 z "},"ö":{"ha":751,"x_min":29,"x_max":722,"o":"m 47 254 q 39 389 29 322 q 81 512 49 456 q 167 610 114 568 q 288 669 219 651 q 422 678 356 688 q 546 635 489 668 q 644 550 603 603 q 704 429 686 497 q 713 294 722 361 q 670 172 703 228 q 585 74 638 115 q 464 14 532 32 q 329 6 396 -4 q 206 48 263 15 q 107 133 149 81 q 47 254 65 186 m 610 404 q 567 506 596 454 q 496 598 538 558 q 401 656 454 638 q 290 660 349 675 q 197 602 232 644 q 144 505 161 560 q 128 390 128 450 q 142 279 128 329 q 185 176 156 229 q 256 85 214 124 q 350 26 297 46 q 461 24 403 7 q 556 81 519 39 q 608 178 592 124 q 624 294 625 233 q 610 404 624 354 m 238 972 q 282 954 264 972 q 300 911 300 936 q 282 869 300 886 q 238 851 264 851 q 194 869 213 851 q 175 911 175 886 q 194 954 175 936 q 238 972 213 972 m 513 972 q 557 954 539 972 q 575 911 575 936 q 557 869 575 886 q 513 851 539 851 q 469 869 488 851 q 450 911 450 886 q 469 954 450 936 q 513 972 488 972 z "},"ø":{"ha":751,"x_min":29,"x_max":722,"o":"m 47 254 q 39 389 29 322 q 81 512 49 456 q 167 610 114 568 q 288 669 219 651 q 422 678 356 688 q 546 635 489 668 q 644 550 603 603 q 704 429 686 497 q 713 294 722 361 q 670 172 703 228 q 585 74 638 115 q 464 14 532 32 q 329 6 396 -4 q 206 48 263 15 q 107 133 149 81 q 47 254 65 186 m 610 404 q 567 506 596 454 q 496 598 538 558 q 401 656 454 638 q 290 660 349 675 q 197 602 232 644 q 144 505 161 560 q 128 390 128 450 q 142 279 128 329 q 185 176 156 229 q 256 85 214 124 q 350 26 297 46 q 461 24 403 7 q 556 81 519 39 q 608 178 592 124 q 624 294 625 233 q 610 404 624 354 m 519 800 l 549 800 l 232 -174 l 203 -174 l 519 800 z "},"ù":{"ha":658,"x_min":35,"x_max":624,"o":"m 624 0 l 496 0 l 496 358 q 472 244 486 296 q 440 153 458 193 q 408 96 426 124 q 366 45 390 68 q 313 8 342 22 q 250 -6 285 -6 q 158 18 193 -6 q 102 79 122 42 q 74 164 82 117 q 67 258 67 211 l 67 550 q 63 606 67 585 q 53 638 58 626 q 43 653 49 649 q 35 657 38 657 l 35 669 l 164 669 l 164 258 q 167 198 164 233 q 178 128 169 163 q 205 67 188 94 q 251 29 222 39 q 308 29 281 19 q 359 60 336 39 q 400 107 382 81 q 429 157 418 133 q 478 320 460 224 q 496 550 496 417 q 492 606 496 585 q 483 638 488 626 q 472 653 478 649 q 464 657 467 657 l 464 669 l 592 669 l 592 119 q 595 64 592 85 q 604 31 599 43 q 615 16 610 19 q 624 13 621 13 l 624 0 m 276 944 q 324 899 292 931 q 390 835 356 868 q 476 751 429 796 l 471 743 q 368 803 415 775 q 327 827 347 815 q 288 850 307 839 q 255 869 269 861 q 232 883 240 878 q 192 923 199 904 q 197 957 185 942 q 228 972 210 974 q 276 944 247 971 z "},"ú":{"ha":658,"x_min":35,"x_max":624,"o":"m 624 0 l 496 0 l 496 358 q 472 244 486 296 q 440 153 458 193 q 408 96 426 124 q 366 45 390 68 q 313 8 342 22 q 250 -6 285 -6 q 158 18 193 -6 q 102 79 122 42 q 74 164 82 117 q 67 258 67 211 l 67 550 q 63 606 67 585 q 53 638 58 626 q 43 653 49 649 q 35 657 38 657 l 35 669 l 164 669 l 164 258 q 167 198 164 233 q 178 128 169 163 q 205 67 188 94 q 251 29 222 39 q 308 29 281 19 q 359 60 336 39 q 400 107 382 81 q 429 157 418 133 q 478 320 460 224 q 496 550 496 417 q 492 606 496 585 q 483 638 488 626 q 472 653 478 649 q 464 657 467 657 l 464 669 l 592 669 l 592 119 q 595 64 592 85 q 604 31 599 43 q 615 16 610 19 q 624 13 621 13 l 624 0 m 381 944 q 428 972 410 971 q 460 957 447 974 q 465 923 472 942 q 425 883 458 904 q 402 869 417 878 q 369 850 388 861 q 330 827 350 839 q 289 803 310 815 q 186 743 242 775 l 181 751 q 265 835 225 796 q 332 899 299 868 q 381 944 365 931 z "},"û":{"ha":658,"x_min":35,"x_max":624,"o":"m 624 0 l 496 0 l 496 358 q 472 244 486 296 q 440 153 458 193 q 408 96 426 124 q 366 45 390 68 q 313 8 342 22 q 250 -6 285 -6 q 158 18 193 -6 q 102 79 122 42 q 74 164 82 117 q 67 258 67 211 l 67 550 q 63 606 67 585 q 53 638 58 626 q 43 653 49 649 q 35 657 38 657 l 35 669 l 164 669 l 164 258 q 167 198 164 233 q 178 128 169 163 q 205 67 188 94 q 251 29 222 39 q 308 29 281 19 q 359 60 336 39 q 400 107 382 81 q 429 157 418 133 q 478 320 460 224 q 496 550 496 417 q 492 606 496 585 q 483 638 488 626 q 472 653 478 649 q 464 657 467 657 l 464 669 l 592 669 l 592 119 q 595 64 592 85 q 604 31 599 43 q 615 16 610 19 q 624 13 621 13 l 624 0 m 599 750 l 593 739 l 329 882 l 65 739 l 58 750 l 329 975 l 599 750 z "},"ü":{"ha":658,"x_min":35,"x_max":624,"o":"m 624 0 l 496 0 l 496 358 q 472 244 486 296 q 440 153 458 193 q 408 96 426 124 q 366 45 390 68 q 313 8 342 22 q 250 -6 285 -6 q 158 18 193 -6 q 102 79 122 42 q 74 164 82 117 q 67 258 67 211 l 67 550 q 63 606 67 585 q 53 638 58 626 q 43 653 49 649 q 35 657 38 657 l 35 669 l 164 669 l 164 258 q 167 198 164 233 q 178 128 169 163 q 205 67 188 94 q 251 29 222 39 q 308 29 281 19 q 359 60 336 39 q 400 107 382 81 q 429 157 418 133 q 478 320 460 224 q 496 550 496 417 q 492 606 496 585 q 483 638 488 626 q 472 653 478 649 q 464 657 467 657 l 464 669 l 592 669 l 592 119 q 595 64 592 85 q 604 31 599 43 q 615 16 610 19 q 624 13 621 13 l 624 0 m 192 972 q 236 954 218 972 q 254 911 254 936 q 236 869 254 886 q 192 851 218 851 q 148 869 167 851 q 129 911 129 886 q 148 954 129 936 q 192 972 167 972 m 467 972 q 511 954 493 972 q 529 911 529 936 q 511 869 529 886 q 467 851 493 851 q 423 869 442 851 q 404 911 404 886 q 423 954 404 936 q 467 972 442 972 z "},"ý":{"ha":760,"x_min":35,"x_max":725,"o":"m 175 -44 q 160 -69 160 -56 q 165 -94 160 -83 q 210 -162 183 -132 q 265 -201 236 -192 q 322 -190 294 -210 q 374 -106 350 -169 l 413 0 l 408 0 l 147 603 q 124 644 135 631 q 94 657 113 657 l 94 669 l 271 669 l 271 657 q 254 607 232 657 l 461 128 l 635 589 q 640 626 643 613 q 629 646 636 639 q 607 657 621 654 l 607 669 l 725 669 l 725 657 q 678 638 701 657 q 644 586 656 618 l 383 -108 q 317 -226 356 -186 q 235 -271 279 -267 q 141 -244 190 -275 q 43 -149 92 -212 l 35 -139 l 167 -35 l 175 -44 m 432 944 q 480 972 461 971 q 511 957 499 974 q 517 923 524 942 q 476 883 510 904 q 453 869 468 878 q 420 850 439 861 q 381 827 401 839 q 340 803 361 815 q 238 743 293 775 l 232 751 q 317 835 276 796 q 383 899 350 868 q 432 944 417 931 z "},"ÿ":{"ha":760,"x_min":35,"x_max":725,"o":"m 175 -44 q 160 -69 160 -56 q 165 -94 160 -83 q 210 -162 183 -132 q 265 -201 236 -192 q 322 -190 294 -210 q 374 -106 350 -169 l 413 0 l 408 0 l 147 603 q 124 644 135 631 q 94 657 113 657 l 94 669 l 271 669 l 271 657 q 254 607 232 657 l 461 128 l 635 589 q 640 626 643 613 q 629 646 636 639 q 607 657 621 654 l 607 669 l 725 669 l 725 657 q 678 638 701 657 q 644 586 656 618 l 383 -108 q 317 -226 356 -186 q 235 -271 279 -267 q 141 -244 190 -275 q 43 -149 92 -212 l 35 -139 l 167 -35 l 175 -44 m 242 972 q 286 954 268 972 q 304 911 304 936 q 286 869 304 886 q 242 851 268 851 q 198 869 217 851 q 179 911 179 886 q 198 954 179 936 q 242 972 217 972 m 517 972 q 561 954 543 972 q 579 911 579 936 q 561 869 579 886 q 517 851 543 851 q 473 869 492 851 q 454 911 454 886 q 473 954 454 936 q 517 972 492 972 z "},"þ":{"ha":1157,"x_min":197,"x_max":893,"o":"m 328 301 q 355 422 338 368 q 396 521 372 476 q 497 639 440 603 q 514 649 503 643 q 590 676 550 669 q 671 675 631 682 q 790 628 743 663 q 860 544 836 593 q 889 437 885 494 q 879 320 893 379 q 836 206 865 261 q 765 107 807 150 q 644 21 714 54 q 492 -11 575 -12 q 328 22 419 -12 l 319 26 q 265 29 288 38 q 243 0 243 21 l 231 0 l 231 885 q 217 932 226 921 q 201 943 207 943 l 197 956 l 328 1004 l 328 301 m 328 33 q 413 8 372 15 q 493 -1 454 0 q 620 38 567 1 q 710 138 674 74 q 749 248 735 183 q 764 379 764 313 q 746 506 764 446 q 689 606 728 567 q 610 653 653 642 q 519 640 567 664 q 431 554 467 610 q 373 438 394 501 q 340 310 351 374 q 332 249 335 279 q 328 172 328 211 l 328 33 z "},"ı":{"ha":232,"x_min":35,"x_max":197,"o":"m 35 619 l 165 669 l 165 119 q 169 64 165 85 q 178 31 172 43 q 189 16 183 19 q 197 13 194 13 l 197 0 l 36 0 l 36 13 q 46 16 40 13 q 56 31 51 19 q 65 64 61 43 q 69 119 69 85 l 69 549 q 54 597 64 586 q 39 608 44 608 l 35 619 m 107 782 q 60 801 79 782 q 42 847 42 819 q 60 894 42 875 q 107 913 79 913 q 153 894 135 913 q 172 847 172 875 q 153 801 172 819 q 107 782 135 782 z "},"ﬁ":{"ha":715,"x_min":35,"x_max":681,"o":"m 219 121 q 223 65 219 86 q 232 33 226 44 q 243 17 238 21 q 251 14 249 14 l 251 1 l 92 1 l 92 14 q 100 17 94 14 q 110 33 106 21 q 119 65 115 44 q 124 121 124 86 l 124 575 q 99 635 124 610 q 35 660 75 660 l 35 669 l 124 669 l 218 671 q 151 692 185 679 q 92 726 118 706 q 51 772 67 746 q 35 833 35 799 q 49 900 35 871 q 85 950 63 929 q 139 984 108 971 q 203 1001 169 997 q 267 1004 231 1007 q 332 996 303 1001 q 444 957 390 983 l 449 956 l 425 806 l 415 807 q 414 818 415 814 q 393 868 411 840 q 347 924 375 896 q 288 969 319 950 q 228 993 257 989 q 216 993 221 993 q 204 992 211 993 q 168 971 182 988 q 147 932 154 954 q 139 885 140 910 q 140 843 138 861 q 158 776 144 807 q 192 721 171 744 q 244 683 214 697 q 313 669 275 669 l 435 669 l 435 660 l 219 660 l 219 121 m 518 619 l 649 669 l 649 119 q 652 64 649 85 q 661 31 656 43 q 672 16 667 19 q 681 13 678 13 l 681 0 l 519 0 l 519 13 q 529 16 524 13 q 540 31 535 19 q 549 64 544 43 q 553 119 553 85 l 553 549 q 538 597 547 586 q 522 608 528 608 l 518 619 m 590 782 q 544 801 563 782 q 525 847 525 819 q 544 894 525 875 q 590 913 563 913 q 637 894 618 913 q 656 847 656 875 q 637 801 656 819 q 590 782 618 782 z "},"ﬂ":{"ha":715,"x_min":35,"x_max":681,"o":"m 219 121 q 223 65 219 86 q 232 33 226 44 q 243 17 238 21 q 251 14 249 14 l 251 1 l 92 1 l 92 14 q 100 17 94 14 q 110 33 106 21 q 119 65 115 44 q 124 121 124 86 l 124 575 q 99 635 124 610 q 35 660 75 660 l 35 669 l 124 669 l 218 671 q 151 692 185 679 q 92 726 118 706 q 51 772 67 746 q 35 833 35 799 q 49 900 35 871 q 85 950 63 929 q 139 984 108 971 q 203 1001 169 997 q 267 1004 231 1007 q 332 996 303 1001 q 444 957 390 983 l 449 956 l 425 806 l 415 807 q 414 818 415 814 q 393 868 411 840 q 347 924 375 896 q 288 969 319 950 q 228 993 257 989 q 216 993 221 993 q 204 992 211 993 q 168 971 182 988 q 147 932 154 954 q 139 885 140 910 q 140 843 138 861 q 158 776 144 807 q 192 721 171 744 q 244 683 214 697 q 313 669 275 669 l 435 669 l 435 660 l 219 660 l 219 121 m 681 0 l 519 0 l 519 13 q 528 16 522 13 q 538 31 533 19 q 547 64 543 43 q 551 119 551 85 l 551 883 q 537 931 546 919 q 522 942 528 942 l 518 954 l 649 1003 l 649 119 q 652 64 649 85 q 661 31 656 43 q 672 16 667 19 q 681 13 678 13 l 681 0 z "},"Ł":{"ha":686,"x_min":42,"x_max":644,"o":"m 206 961 q 197 957 203 961 q 186 942 192 953 q 177 910 181 931 q 174 854 174 889 l 174 13 l 331 13 q 424 28 382 18 q 502 51 467 38 q 569 81 538 64 q 632 117 600 97 l 644 117 l 644 -1 l 525 -1 l 489 0 l 42 0 l 42 13 q 50 16 44 13 q 60 31 56 19 q 69 64 65 43 q 74 119 74 85 l 74 854 q 69 910 74 889 q 60 942 65 931 q 50 957 56 953 q 42 961 44 961 l 42 974 l 206 974 l 206 961 m 539 535 l 539 435 l 146 435 l 146 535 l 539 535 z "},"Ž":{"ha":906,"x_min":42,"x_max":864,"o":"m 614 810 q 660 919 653 876 q 657 963 667 963 l 465 963 q 371 947 413 957 q 294 924 329 938 q 227 893 258 910 q 164 857 196 876 l 151 857 l 151 975 l 864 975 l 864 963 q 828 941 849 963 q 785 885 808 919 l 743 824 l 713 779 l 293 165 q 260 98 271 126 q 244 51 249 69 q 242 22 240 32 q 247 13 243 13 l 479 13 q 573 28 531 18 q 651 51 615 38 q 717 81 686 64 q 781 117 749 97 l 792 117 l 792 0 l 42 0 l 42 13 q 65 27 50 13 q 99 67 79 42 q 142 125 118 92 q 193 196 167 158 l 614 810 l 614 810 m 722 1261 l 451 1036 l 183 1261 l 189 1272 l 451 1128 l 715 1272 l 722 1261 z "},"ł":{"ha":232,"x_min":-81,"x_max":313,"o":"m 197 0 l 36 0 l 36 13 q 44 16 39 13 q 55 31 50 19 q 64 64 60 43 q 68 119 68 85 l 68 883 q 53 931 63 919 q 39 942 44 942 l 35 954 l 165 1003 l 165 119 q 169 64 165 85 q 178 31 172 43 q 189 16 183 19 q 197 13 194 13 l 197 0 m 313 535 l 313 435 l -81 435 l -81 535 l 313 535 z "},"ž":{"ha":757,"x_min":35,"x_max":722,"o":"m 707 167 l 643 11 l 638 0 l 35 0 l 35 13 q 55 19 43 13 q 78 35 67 26 q 99 53 90 44 q 113 68 108 63 l 114 69 l 515 596 q 538 639 535 621 q 522 657 542 657 l 346 657 q 278 645 313 657 q 214 613 244 633 q 158 563 183 592 q 119 501 133 535 l 106 501 l 171 658 l 175 669 l 722 669 l 722 657 q 703 650 714 657 q 680 634 692 643 q 658 616 668 625 q 644 601 649 607 l 644 600 l 242 74 q 219 31 222 49 q 236 13 215 13 l 468 13 q 534 24 500 13 q 599 56 568 36 q 654 105 629 76 q 694 167 679 133 l 707 167 m 647 983 l 376 758 l 108 983 l 114 994 l 376 850 l 640 994 l 647 983 z "},"D":{"ha":925,"x_min":42,"x_max":883,"o":"m 42 975 l 172 975 l 172 828 q 258 938 196 897 q 399 986 319 978 q 563 969 478 994 q 720 882 649 943 q 838 723 792 821 q 883 488 883 625 q 840 257 883 353 q 718 101 796 161 q 535 13 640 40 q 306 -15 429 -15 q 181 -8 244 -15 q 54 0 117 -1 l 42 0 l 42 13 q 50 17 44 13 q 60 32 56 21 q 69 65 65 43 q 74 119 74 86 l 74 856 q 69 911 74 890 q 60 943 65 932 q 50 958 56 954 q 42 963 44 963 l 42 975 m 786 488 q 741 729 786 631 q 627 884 696 828 q 479 957 558 940 q 331 955 400 974 q 217 884 263 936 q 172 750 172 832 l 172 6 q 240 0 207 3 q 306 -3 274 -3 q 508 31 419 -3 q 659 128 597 65 q 753 283 721 192 q 786 488 786 374 z "},"A":{"ha":871,"x_min":42,"x_max":829,"o":"m 639 182 q 598 272 624 228 q 538 350 572 315 q 460 408 503 385 q 365 436 417 431 q 325 435 346 438 q 285 426 304 433 q 249 407 265 419 q 226 374 233 394 l 158 171 q 131 52 131 92 q 160 13 132 13 l 160 0 l 42 0 l 42 13 q 61 20 50 13 q 85 47 72 28 q 114 97 99 65 q 146 175 129 128 l 393 899 l 367 975 l 472 975 l 738 201 q 765 128 751 163 q 790 67 778 93 q 811 27 801 42 q 829 13 821 13 l 829 0 l 667 0 l 667 13 q 672 51 674 13 q 650 149 669 90 l 639 182 m 242 415 q 300 444 265 438 q 365 447 335 450 q 504 394 444 440 q 604 285 564 349 l 400 879 l 242 415 z "},"B":{"ha":814,"x_min":42,"x_max":772,"o":"m 42 0 l 42 13 q 50 17 44 13 q 60 32 56 21 q 69 65 65 43 q 74 119 74 86 l 74 856 q 69 911 74 890 q 60 943 65 932 q 50 958 56 954 q 42 963 44 963 l 42 975 l 54 975 q 184 983 117 976 q 311 990 251 990 q 489 973 417 990 q 606 925 561 956 q 669 852 650 894 q 689 760 689 810 q 675 680 689 717 q 630 614 661 643 q 548 565 599 585 q 424 536 497 544 q 561 508 497 528 q 672 454 625 488 q 745 375 718 421 q 772 269 772 329 q 735 135 772 188 q 634 53 697 83 q 488 12 571 24 q 311 0 404 0 l 42 0 m 674 269 q 650 376 674 332 q 591 448 626 419 q 512 493 556 476 q 428 518 468 510 q 358 528 389 526 q 317 531 328 531 l 172 531 l 172 13 l 311 13 q 492 40 413 14 q 558 70 525 51 q 616 116 590 89 q 658 181 642 143 q 674 269 674 219 m 311 543 l 311 542 q 406 551 357 542 q 497 586 456 561 q 565 653 538 611 q 592 760 592 696 q 565 866 592 824 q 497 933 538 908 q 406 969 456 958 q 311 979 357 979 q 244 976 279 979 q 172 971 208 974 l 172 543 l 311 543 z "},"C":{"ha":1017,"x_min":33,"x_max":975,"o":"m 60 363 q 47 558 33 461 q 108 738 61 656 q 233 880 156 819 q 408 967 310 940 q 550 983 479 986 q 686 960 621 981 q 809 901 751 939 q 911 810 867 863 l 879 688 l 867 688 q 788 809 835 751 q 682 906 740 867 q 555 960 624 944 q 411 956 486 975 q 263 871 321 932 q 174 730 204 810 q 140 560 143 650 q 158 389 136 469 q 256 194 189 272 q 405 76 322 117 q 577 33 488 36 q 746 63 667 29 q 884 165 825 96 q 964 336 943 233 l 975 333 q 885 145 953 221 q 727 33 818 69 q 533 -3 636 -4 q 335 40 429 -1 q 166 161 240 81 q 60 363 92 242 z "}}}
